<?xml version="1.0" standalone="no"?>
<!DOCTYPE svg PUBLIC "-//W3C//DTD SVG 20010904//EN"
 "http://www.w3.org/TR/2001/REC-SVG-20010904/DTD/svg10.dtd">
<svg version="1.0" xmlns="http://www.w3.org/2000/svg"
 width="512.000000pt" height="512.000000pt" viewBox="0 0 512.000000 512.000000"
 preserveAspectRatio="xMidYMid meet">

<g transform="translate(0.000000,512.000000) scale(0.100000,-0.100000)"
fill="#000000" stroke="none">
<path d="M1168 4620 c-45 -14 -95 -49 -126 -88 -15 -20 -75 -115 -133 -210
-57 -95 -140 -230 -183 -300 -44 -70 -134 -217 -201 -327 -67 -110 -171 -281
-232 -380 -182 -297 -193 -318 -193 -357 0 -43 31 -91 108 -171 344 -355 1116
-592 2060 -633 l162 -7 0 56 c0 57 27 145 62 202 10 16 18 35 18 41 0 6 -86
15 -242 23 -134 7 -256 14 -273 16 -16 2 -59 7 -95 10 -267 26 -610 94 -855
171 -279 88 -523 217 -637 338 l-38 40 37 65 c20 36 44 77 53 91 10 14 67 111
128 215 60 105 125 215 142 245 18 30 80 136 138 235 271 463 319 540 343 552
19 10 313 12 1362 10 l1339 -2 21 -27 c26 -32 34 -45 213 -352 76 -131 156
-266 176 -300 20 -33 52 -88 71 -121 18 -33 86 -150 151 -260 65 -110 130
-220 144 -245 14 -25 33 -56 44 -69 10 -13 18 -29 18 -36 0 -16 -113 -114
-180 -157 -224 -143 -692 -303 -1007 -344 l-52 -6 6 -47 c3 -25 -2 -85 -11
-132 -22 -119 -21 -139 7 -139 52 0 305 52 486 101 144 38 379 123 491 177
214 102 460 294 510 396 38 79 34 89 -137 364 -23 37 -58 94 -77 127 -46 76
-55 91 -87 140 -15 22 -36 56 -46 75 -11 19 -44 73 -73 120 -29 47 -71 114
-92 150 -64 106 -102 168 -116 187 -6 10 -28 45 -48 78 -20 33 -53 87 -73 119
-20 32 -47 78 -61 101 -116 195 -131 213 -202 252 -31 17 -99 18 -1413 20
-759 1 -1392 -2 -1407 -7z"/>
<path d="M1542 4203 c-26 -10 -402 -484 -402 -506 1 -45 50 -73 86 -49 6 4 71
81 145 172 265 325 274 341 227 374 -23 16 -34 18 -56 9z"/>
<path d="M1558 3777 c-158 -194 -303 -374 -322 -399 -54 -70 -46 -118 19 -118
29 0 49 22 261 282 419 516 437 541 402 576 -7 7 -26 12 -43 12 -28 0 -53 -27
-317 -353z"/>
<path d="M3490 3350 c-201 -4 -619 -11 -930 -15 -311 -4 -577 -9 -592 -10 -16
-1 -44 -2 -64 -3 l-35 -2 2 -186 3 -187 370 7 c330 5 587 8 624 7 9 -1 12 -29
12 -105 l0 -105 52 -23 c50 -23 52 -26 89 -113 l37 -90 16 37 c9 21 29 52 45
71 29 33 29 34 33 179 2 81 5 148 8 151 6 5 547 17 801 17 l177 0 -3 78 c-1
42 -3 128 -4 190 l-1 112 -137 -2 c-76 -1 -302 -5 -503 -8z"/>
<path d="M2775 2567 c-82 -56 -102 -80 -123 -148 -11 -35 -34 -90 -51 -123
-37 -69 -38 -95 -9 -148 l22 -39 -22 -87 c-64 -251 -65 -371 -5 -540 l36 -102
-16 -78 c-9 -42 -19 -111 -23 -152 -5 -59 -13 -84 -36 -117 -36 -53 -98 -197
-98 -229 0 -55 100 -129 251 -184 79 -29 232 -70 263 -70 9 0 33 -8 54 -18 68
-34 130 -47 158 -32 28 16 59 103 73 210 5 36 25 146 46 245 33 156 38 199 39
325 1 141 0 146 -26 192 -34 57 -34 65 -2 146 47 118 56 207 45 450 -5 119 -7
220 -4 225 2 4 10 43 17 85 13 84 6 138 -22 160 -19 15 -76 16 -103 2 -49 -27
-99 -197 -124 -426 -8 -78 -20 -98 -34 -61 -6 16 -11 31 -11 35 -1 4 -9 25
-20 47 -11 22 -19 44 -20 49 0 10 -63 179 -118 316 -46 113 -59 120 -137 67z"/>
</g>
</svg>
