<?xml version="1.0" encoding="UTF-8"?>
<!DOCTYPE svg PUBLIC "-//W3C//DTD SVG 1.1//EN" "http://www.w3.org/Graphics/SVG/1.1/DTD/svg11.dtd">
<svg xmlns="http://www.w3.org/2000/svg" version="1.1" width="512px" height="512px" style="shape-rendering:geometricPrecision; text-rendering:geometricPrecision; image-rendering:optimizeQuality; fill-rule:evenodd; clip-rule:evenodd" xmlns:xlink="http://www.w3.org/1999/xlink">
<g><path style="opacity:0.021" fill="#43443f" d="M -0.5,-0.5 C 0.166667,-0.5 0.833333,-0.5 1.5,-0.5C 1.16667,0.5 0.5,1.16667 -0.5,1.5C -0.5,0.833333 -0.5,0.166667 -0.5,-0.5 Z"/></g>
<g><path style="opacity:0.022" fill="#43443f" d="M 16.5,-0.5 C 18.1667,-0.5 19.8333,-0.5 21.5,-0.5C 14.5,7.16667 7.16667,14.5 -0.5,21.5C -0.5,19.8333 -0.5,18.1667 -0.5,16.5C 5.5,11.1667 11.1667,5.5 16.5,-0.5 Z"/></g>
<g><path style="opacity:0.022" fill="#43443f" d="M 36.5,-0.5 C 38.1667,-0.5 39.8333,-0.5 41.5,-0.5C 27.8333,13.8333 13.8333,27.8333 -0.5,41.5C -0.5,39.8333 -0.5,38.1667 -0.5,36.5C 12.1667,24.5 24.5,12.1667 36.5,-0.5 Z"/></g>
<g><path style="opacity:0.022" fill="#43443f" d="M 56.5,-0.5 C 58.1667,-0.5 59.8333,-0.5 61.5,-0.5C 41.1667,20.5 20.5,41.1667 -0.5,61.5C -0.5,59.8333 -0.5,58.1667 -0.5,56.5C 18.8333,37.8333 37.8333,18.8333 56.5,-0.5 Z"/></g>
<g><path style="opacity:0.022" fill="#43443f" d="M 76.5,-0.5 C 78.1667,-0.5 79.8333,-0.5 81.5,-0.5C 54.5,27.1667 27.1667,54.5 -0.5,81.5C -0.5,79.8333 -0.5,78.1667 -0.5,76.5C 25.5,51.1667 51.1667,25.5 76.5,-0.5 Z"/></g>
<g><path style="opacity:0.022" fill="#43443f" d="M 96.5,-0.5 C 98.1667,-0.5 99.8333,-0.5 101.5,-0.5C 67.8333,33.8333 33.8333,67.8333 -0.5,101.5C -0.5,99.8333 -0.5,98.1667 -0.5,96.5C 32.1667,64.5 64.5,32.1667 96.5,-0.5 Z"/></g>
<g><path style="opacity:0.022" fill="#43443f" d="M 116.5,-0.5 C 118.167,-0.5 119.833,-0.5 121.5,-0.5C 81.1667,40.5 40.5,81.1667 -0.5,121.5C -0.5,119.833 -0.5,118.167 -0.5,116.5C 38.8333,77.8333 77.8333,38.8333 116.5,-0.5 Z"/></g>
<g><path style="opacity:0.022" fill="#43443f" d="M 136.5,-0.5 C 138.167,-0.5 139.833,-0.5 141.5,-0.5C 94.5,47.1667 47.1667,94.5 -0.5,141.5C -0.5,139.833 -0.5,138.167 -0.5,136.5C 45.5,91.1667 91.1667,45.5 136.5,-0.5 Z"/></g>
<g><path style="opacity:0.022" fill="#43443f" d="M 156.5,-0.5 C 158.167,-0.5 159.833,-0.5 161.5,-0.5C 144.5,16.8333 127.5,34.1667 110.5,51.5C 109.833,51.5 109.5,51.8333 109.5,52.5C 106.833,54.5 104.5,56.8333 102.5,59.5C 101.833,59.5 101.5,59.8333 101.5,60.5C 100.833,60.5 100.5,60.8333 100.5,61.5C 66.8333,94.8333 33.1667,128.167 -0.5,161.5C -0.5,159.833 -0.5,158.167 -0.5,156.5C 52.1667,104.5 104.5,52.1667 156.5,-0.5 Z"/></g>
<g><path style="opacity:0.022" fill="#43443f" d="M 176.5,-0.5 C 178.167,-0.5 179.833,-0.5 181.5,-0.5C 165.5,15.8333 149.5,32.1667 133.5,48.5C 131.833,48.5 130.167,48.5 128.5,48.5C 144.5,32.1667 160.5,15.8333 176.5,-0.5 Z"/></g>
<g><path style="opacity:0.022" fill="#43443f" d="M 196.5,-0.5 C 198.167,-0.5 199.833,-0.5 201.5,-0.5C 185.5,15.8333 169.5,32.1667 153.5,48.5C 151.833,48.5 150.167,48.5 148.5,48.5C 164.5,32.1667 180.5,15.8333 196.5,-0.5 Z"/></g>
<g><path style="opacity:0.022" fill="#43443f" d="M 216.5,-0.5 C 218.167,-0.5 219.833,-0.5 221.5,-0.5C 205.5,15.8333 189.5,32.1667 173.5,48.5C 171.833,48.5 170.167,48.5 168.5,48.5C 184.5,32.1667 200.5,15.8333 216.5,-0.5 Z"/></g>
<g><path style="opacity:0.022" fill="#43443f" d="M 236.5,-0.5 C 238.167,-0.5 239.833,-0.5 241.5,-0.5C 225.5,15.8333 209.5,32.1667 193.5,48.5C 191.833,48.5 190.167,48.5 188.5,48.5C 204.5,32.1667 220.5,15.8333 236.5,-0.5 Z"/></g>
<g><path style="opacity:0.022" fill="#43443f" d="M 256.5,-0.5 C 258.167,-0.5 259.833,-0.5 261.5,-0.5C 245.5,15.8333 229.5,32.1667 213.5,48.5C 211.833,48.5 210.167,48.5 208.5,48.5C 224.5,32.1667 240.5,15.8333 256.5,-0.5 Z"/></g>
<g><path style="opacity:0.022" fill="#43443f" d="M 276.5,-0.5 C 278.167,-0.5 279.833,-0.5 281.5,-0.5C 265.5,15.8333 249.5,32.1667 233.5,48.5C 231.833,48.5 230.167,48.5 228.5,48.5C 244.5,32.1667 260.5,15.8333 276.5,-0.5 Z"/></g>
<g><path style="opacity:0.022" fill="#43443f" d="M 296.5,-0.5 C 298.167,-0.5 299.833,-0.5 301.5,-0.5C 285.5,15.8333 269.5,32.1667 253.5,48.5C 251.833,48.5 250.167,48.5 248.5,48.5C 264.5,32.1667 280.5,15.8333 296.5,-0.5 Z"/></g>
<g><path style="opacity:0.022" fill="#43443f" d="M 316.5,-0.5 C 318.167,-0.5 319.833,-0.5 321.5,-0.5C 305.5,15.8333 289.5,32.1667 273.5,48.5C 271.833,48.5 270.167,48.5 268.5,48.5C 284.5,32.1667 300.5,15.8333 316.5,-0.5 Z"/></g>
<g><path style="opacity:0.022" fill="#43443f" d="M 336.5,-0.5 C 338.167,-0.5 339.833,-0.5 341.5,-0.5C 325.5,15.8333 309.5,32.1667 293.5,48.5C 291.833,48.5 290.167,48.5 288.5,48.5C 304.5,32.1667 320.5,15.8333 336.5,-0.5 Z"/></g>
<g><path style="opacity:0.022" fill="#43443f" d="M 356.5,-0.5 C 358.167,-0.5 359.833,-0.5 361.5,-0.5C 345.5,15.8333 329.5,32.1667 313.5,48.5C 311.833,48.5 310.167,48.5 308.5,48.5C 324.5,32.1667 340.5,15.8333 356.5,-0.5 Z"/></g>
<g><path style="opacity:0.022" fill="#43443f" d="M 376.5,-0.5 C 378.167,-0.5 379.833,-0.5 381.5,-0.5C 365.5,15.8333 349.5,32.1667 333.5,48.5C 331.833,48.5 330.167,48.5 328.5,48.5C 344.5,32.1667 360.5,15.8333 376.5,-0.5 Z"/></g>
<g><path style="opacity:0.022" fill="#43443f" d="M 396.5,-0.5 C 398.167,-0.5 399.833,-0.5 401.5,-0.5C 385.5,15.8333 369.5,32.1667 353.5,48.5C 351.833,48.5 350.167,48.5 348.5,48.5C 364.5,32.1667 380.5,15.8333 396.5,-0.5 Z"/></g>
<g><path style="opacity:0.022" fill="#43443f" d="M 416.5,-0.5 C 418.167,-0.5 419.833,-0.5 421.5,-0.5C 405.5,15.8333 389.5,32.1667 373.5,48.5C 371.833,48.5 370.167,48.5 368.5,48.5C 384.5,32.1667 400.5,15.8333 416.5,-0.5 Z"/></g>
<g><path style="opacity:0.022" fill="#43443f" d="M 436.5,-0.5 C 438.167,-0.5 439.833,-0.5 441.5,-0.5C 425.5,16.1667 409.167,32.5 392.5,48.5C 391.167,48.5 389.833,48.5 388.5,48.5C 404.5,32.1667 420.5,15.8333 436.5,-0.5 Z"/></g>
<g><path style="opacity:0.022" fill="#43443f" d="M 456.5,-0.5 C 458.167,-0.5 459.833,-0.5 461.5,-0.5C 443.167,18.5 424.5,37.1667 405.5,55.5C 404.5,55.1667 403.833,54.5 403.5,53.5C 421.167,35.5 438.833,17.5 456.5,-0.5 Z"/></g>
<g><path style="opacity:0.022" fill="#43443f" d="M 476.5,-0.5 C 478.167,-0.5 479.833,-0.5 481.5,-0.5C 459.167,22.5 436.5,45.1667 413.5,67.5C 412.833,66.5 412.167,65.5 411.5,64.5C 433.5,43.1667 455.167,21.5 476.5,-0.5 Z"/></g>
<g><path style="opacity:0.022" fill="#43443f" d="M 496.5,-0.5 C 498.167,-0.5 499.833,-0.5 501.5,-0.5C 475.167,26.5 448.5,53.1667 421.5,79.5C 420.094,79.0269 419.427,78.0269 419.5,76.5C 445.5,51.1667 471.167,25.5 496.5,-0.5 Z"/></g>
<g><path style="opacity:0.022" fill="#43443f" d="M 511.5,5.5 C 511.5,7.16667 511.5,8.83333 511.5,10.5C 483.833,37.5 456.5,64.8333 429.5,92.5C 428.094,92.0269 427.427,91.0269 427.5,89.5C 455.167,61.1667 483.167,33.1667 511.5,5.5 Z"/></g>
<g><path style="opacity:0.022" fill="#43443f" d="M 511.5,25.5 C 511.5,27.1667 511.5,28.8333 511.5,30.5C 486.5,55.1667 461.5,79.8333 436.5,104.5C 435.599,103.71 434.932,102.71 434.5,101.5C 460.167,76.1667 485.833,50.8333 511.5,25.5 Z"/></g>
<g><path style="opacity:0.022" fill="#43443f" d="M 511.5,45.5 C 511.5,47.1667 511.5,48.8333 511.5,50.5C 488.833,72.5 466.5,94.8333 444.5,117.5C 443.599,116.71 442.932,115.71 442.5,114.5C 465.167,91.1667 488.167,68.1667 511.5,45.5 Z"/></g>
<g><path style="opacity:1" fill="#009cc6" d="M 128.5,48.5 C 130.167,48.5 131.833,48.5 133.5,48.5C 138.5,48.5 143.5,48.5 148.5,48.5C 150.167,48.5 151.833,48.5 153.5,48.5C 158.5,48.5 163.5,48.5 168.5,48.5C 170.167,48.5 171.833,48.5 173.5,48.5C 178.5,48.5 183.5,48.5 188.5,48.5C 190.167,48.5 191.833,48.5 193.5,48.5C 198.5,48.5 203.5,48.5 208.5,48.5C 210.167,48.5 211.833,48.5 213.5,48.5C 218.5,48.5 223.5,48.5 228.5,48.5C 230.167,48.5 231.833,48.5 233.5,48.5C 238.5,48.5 243.5,48.5 248.5,48.5C 250.167,48.5 251.833,48.5 253.5,48.5C 258.5,48.5 263.5,48.5 268.5,48.5C 270.167,48.5 271.833,48.5 273.5,48.5C 278.5,48.5 283.5,48.5 288.5,48.5C 290.167,48.5 291.833,48.5 293.5,48.5C 298.5,48.5 303.5,48.5 308.5,48.5C 310.167,48.5 311.833,48.5 313.5,48.5C 318.5,48.5 323.5,48.5 328.5,48.5C 330.167,48.5 331.833,48.5 333.5,48.5C 338.5,48.5 343.5,48.5 348.5,48.5C 350.167,48.5 351.833,48.5 353.5,48.5C 358.5,48.5 363.5,48.5 368.5,48.5C 370.167,48.5 371.833,48.5 373.5,48.5C 378.5,48.5 383.5,48.5 388.5,48.5C 389.833,48.5 391.167,48.5 392.5,48.5C 396.211,49.8519 399.878,51.5185 403.5,53.5C 403.833,54.5 404.5,55.1667 405.5,55.5C 407.748,58.328 409.748,61.328 411.5,64.5C 412.167,65.5 412.833,66.5 413.5,67.5C 415.265,70.7089 417.265,73.7089 419.5,76.5C 419.427,78.0269 420.094,79.0269 421.5,79.5C 423,83.173 425,86.5063 427.5,89.5C 427.427,91.0269 428.094,92.0269 429.5,92.5C 430.774,95.7598 432.44,98.7598 434.5,101.5C 434.932,102.71 435.599,103.71 436.5,104.5C 438.137,108.118 440.137,111.451 442.5,114.5C 442.932,115.71 443.599,116.71 444.5,117.5C 445.913,120.661 447.58,123.661 449.5,126.5C 450.167,127.5 450.833,128.5 451.5,129.5C 453.265,132.709 455.265,135.709 457.5,138.5C 457.427,140.027 458.094,141.027 459.5,141.5C 461,145.173 463,148.506 465.5,151.5C 465.427,153.027 466.094,154.027 467.5,154.5C 468.738,157.738 470.404,160.738 472.5,163.5C 472.932,164.71 473.599,165.71 474.5,166.5C 476.137,170.118 478.137,173.451 480.5,176.5C 480.932,177.71 481.599,178.71 482.5,179.5C 483.913,182.661 485.58,185.661 487.5,188.5C 488.167,189.5 488.833,190.5 489.5,191.5C 491.265,194.709 493.265,197.709 495.5,200.5C 495.427,202.027 496.094,203.027 497.5,203.5C 499.666,206.838 500.999,210.505 501.5,214.5C 501.5,216.167 501.5,217.833 501.5,219.5C 493.167,231.167 483.167,241.167 471.5,249.5C 467.7,251.234 464.034,253.234 460.5,255.5C 459.833,255.5 459.5,255.833 459.5,256.5C 450.196,260.827 440.863,265.16 431.5,269.5C 429.167,270.167 426.833,270.833 424.5,271.5C 423.833,271.5 423.5,271.833 423.5,272.5C 416.018,274.439 408.684,276.772 401.5,279.5C 399.435,279.517 397.435,279.85 395.5,280.5C 388.812,282.172 382.146,283.839 375.5,285.5C 373.5,285.833 371.5,286.167 369.5,286.5C 363.546,287.715 357.546,288.715 351.5,289.5C 350.504,289.414 349.671,289.748 349,290.5C 348.536,289.906 348.369,289.239 348.5,288.5C 348.907,282.801 349.573,277.134 350.5,271.5C 351.341,269.621 351.675,267.621 351.5,265.5C 351.425,262.794 351.092,260.127 350.5,257.5C 353.86,257.384 357.193,257.051 360.5,256.5C 362.435,255.85 364.435,255.517 366.5,255.5C 367.167,255.5 367.5,255.167 367.5,254.5C 373.935,253.641 380.269,252.308 386.5,250.5C 388.894,249.985 391.228,249.319 393.5,248.5C 401.105,246.965 408.438,244.631 415.5,241.5C 417.921,241.122 420.254,240.455 422.5,239.5C 423.167,239.5 423.5,239.167 423.5,238.5C 434.341,235.079 444.341,230.079 453.5,223.5C 461.528,219.465 468.528,213.965 474.5,207C 473.934,206.005 473.267,205.172 472.5,204.5C 471,200.827 469,197.494 466.5,194.5C 466.443,193.391 466.11,192.391 465.5,191.5C 463.735,188.291 461.735,185.291 459.5,182.5C 459.573,180.973 458.906,179.973 457.5,179.5C 456.358,175.883 454.692,172.55 452.5,169.5C 451.833,168.5 451.167,167.5 450.5,166.5C 448.863,162.882 446.863,159.549 444.5,156.5C 444.068,155.29 443.401,154.29 442.5,153.5C 441.083,150.331 439.417,147.331 437.5,144.5C 437.068,143.29 436.401,142.29 435.5,141.5C 434,137.827 432,134.494 429.5,131.5C 429.443,130.391 429.11,129.391 428.5,128.5C 426.735,125.291 424.735,122.291 422.5,119.5C 422.34,117.847 421.674,116.514 420.5,115.5C 419.087,112.339 417.42,109.339 415.5,106.5C 414.833,105.5 414.167,104.5 413.5,103.5C 411.863,99.8822 409.863,96.5488 407.5,93.5C 407.068,92.2905 406.401,91.2905 405.5,90.5C 404.226,87.2402 402.56,84.2402 400.5,81.5C 400.068,80.2905 399.401,79.2905 398.5,78.5C 397,74.827 395,71.4937 392.5,68.5C 392.027,67.0937 391.027,66.427 389.5,66.5C 384.93,65.559 380.263,65.2256 375.5,65.5C 373.833,65.5 372.167,65.5 370.5,65.5C 365.5,65.5 360.5,65.5 355.5,65.5C 353.833,65.5 352.167,65.5 350.5,65.5C 345.5,65.5 340.5,65.5 335.5,65.5C 333.833,65.5 332.167,65.5 330.5,65.5C 325.5,65.5 320.5,65.5 315.5,65.5C 313.833,65.5 312.167,65.5 310.5,65.5C 305.5,65.5 300.5,65.5 295.5,65.5C 293.833,65.5 292.167,65.5 290.5,65.5C 285.5,65.5 280.5,65.5 275.5,65.5C 273.833,65.5 272.167,65.5 270.5,65.5C 265.5,65.5 260.5,65.5 255.5,65.5C 253.833,65.5 252.167,65.5 250.5,65.5C 245.5,65.5 240.5,65.5 235.5,65.5C 233.833,65.5 232.167,65.5 230.5,65.5C 225.5,65.5 220.5,65.5 215.5,65.5C 213.833,65.5 212.167,65.5 210.5,65.5C 205.5,65.5 200.5,65.5 195.5,65.5C 193.833,65.5 192.167,65.5 190.5,65.5C 185.5,65.5 180.5,65.5 175.5,65.5C 173.833,65.5 172.167,65.5 170.5,65.5C 165.5,65.5 160.5,65.5 155.5,65.5C 153.833,65.5 152.167,65.5 150.5,65.5C 145.5,65.5 140.5,65.5 135.5,65.5C 133.833,65.5 132.167,65.5 130.5,65.5C 126.727,65.2633 123.06,65.7633 119.5,67C 114.181,74.4755 109.514,82.3088 105.5,90.5C 104.833,90.5 104.5,90.8333 104.5,91.5C 102.234,95.0337 100.234,98.7004 98.5,102.5C 90.9837,114.199 83.9837,126.199 77.5,138.5C 76.8333,138.5 76.5,138.833 76.5,139.5C 75.8333,139.5 75.5,139.833 75.5,140.5C 73.8039,143.85 72.1373,147.183 70.5,150.5C 62.6745,161.998 55.6745,173.998 49.5,186.5C 48.8333,186.5 48.5,186.833 48.5,187.5C 47.8333,187.5 47.5,187.833 47.5,188.5C 45.3084,191.55 43.6417,194.883 42.5,198.5C 40.3867,201.216 38.3867,204.05 36.5,207C 38.4437,209.629 40.777,211.796 43.5,213.5C 43.8333,214.5 44.5,215.167 45.5,215.5C 48.1897,218.185 51.1897,220.518 54.5,222.5C 55.5,223.167 56.5,223.833 57.5,224.5C 60.5498,226.692 63.8832,228.358 67.5,229.5C 68.2905,230.401 69.2905,231.068 70.5,231.5C 73.6142,233.391 76.9475,234.724 80.5,235.5C 81.5137,236.674 82.847,237.34 84.5,237.5C 87.9503,239.208 91.617,240.541 95.5,241.5C 96.209,242.404 97.209,242.737 98.5,242.5C 102.216,244.405 106.216,245.739 110.5,246.5C 111.708,247.234 113.041,247.567 114.5,247.5C 118.239,249.102 122.239,250.102 126.5,250.5C 127.568,251.434 128.901,251.768 130.5,251.5C 134.264,252.992 138.264,253.992 142.5,254.5C 143.833,254.833 145.167,255.167 146.5,255.5C 150.772,256.49 155.106,257.156 159.5,257.5C 160.708,258.234 162.041,258.567 163.5,258.5C 167.833,259.167 172.167,259.833 176.5,260.5C 178.167,260.5 179.833,260.5 181.5,260.5C 185.657,261.449 189.99,262.116 194.5,262.5C 196.167,262.5 197.833,262.5 199.5,262.5C 204.07,263.441 208.737,263.774 213.5,263.5C 214.568,264.434 215.901,264.768 217.5,264.5C 222.5,264.5 227.5,264.5 232.5,264.5C 233.568,265.434 234.901,265.768 236.5,265.5C 241.167,265.5 245.833,265.5 250.5,265.5C 250.167,267.5 249.833,269.5 249.5,271.5C 244.373,277.882 242.04,285.215 242.5,293.5C 242.414,294.496 242.748,295.329 243.5,296C 242.207,296.49 240.873,296.657 239.5,296.5C 234.5,296.5 229.5,296.5 224.5,296.5C 223.041,296.567 221.708,296.234 220.5,295.5C 215.5,295.5 210.5,295.5 205.5,295.5C 204.432,294.566 203.099,294.232 201.5,294.5C 196.833,294.167 192.167,293.833 187.5,293.5C 186.041,293.567 184.708,293.234 183.5,292.5C 178.833,292.167 174.167,291.833 169.5,291.5C 168.292,290.766 166.959,290.433 165.5,290.5C 161.147,289.941 156.814,289.275 152.5,288.5C 151.041,288.567 149.708,288.234 148.5,287.5C 144.167,286.833 139.833,286.167 135.5,285.5C 134.292,284.766 132.959,284.433 131.5,284.5C 127.5,283.5 123.5,282.5 119.5,281.5C 118.167,281.167 116.833,280.833 115.5,280.5C 111.499,279.5 107.499,278.5 103.5,277.5C 102.292,276.766 100.959,276.433 99.5,276.5C 96.0615,274.796 92.3948,273.462 88.5,272.5C 87.2921,271.766 85.9587,271.433 84.5,271.5C 81.46,269.654 78.1267,268.321 74.5,267.5C 73.3285,266.655 71.9952,265.989 70.5,265.5C 67.3858,263.609 64.0525,262.276 60.5,261.5C 59.4863,260.326 58.153,259.66 56.5,259.5C 53.9922,257.076 50.9922,255.41 47.5,254.5C 47.0269,253.094 46.0269,252.427 44.5,252.5C 41.7089,250.265 38.7089,248.265 35.5,246.5C 35.0269,245.094 34.0269,244.427 32.5,244.5C 29.8739,242.177 27.2072,239.843 24.5,237.5C 23.8333,236.167 22.8333,235.167 21.5,234.5C 19.5,231.833 17.1667,229.5 14.5,227.5C 14.0679,226.29 13.4013,225.29 12.5,224.5C 10.0305,220.905 9.03047,216.905 9.5,212.5C 10.8333,209.5 12.1667,206.5 13.5,203.5C 22.2634,190.974 30.2634,177.974 37.5,164.5C 38.1667,164.5 38.5,164.167 38.5,163.5C 39.1667,163.5 39.5,163.167 39.5,162.5C 41.7664,158.966 43.7664,155.3 45.5,151.5C 54.2634,138.974 62.2634,125.974 69.5,112.5C 70.1667,112.5 70.5,112.167 70.5,111.5C 73.3497,107.801 75.683,103.801 77.5,99.5C 85.6805,87.138 93.3472,74.4714 100.5,61.5C 101.167,61.5 101.5,61.1667 101.5,60.5C 102.167,60.5 102.5,60.1667 102.5,59.5C 104.5,56.8333 106.833,54.5 109.5,52.5C 110.167,52.5 110.5,52.1667 110.5,51.5C 116.226,49.0586 122.226,48.0586 128.5,48.5 Z M 130.5,65.5 C 122.5,74.1667 114.167,82.5 105.5,90.5C 109.514,82.3088 114.181,74.4755 119.5,67C 123.06,65.7633 126.727,65.2633 130.5,65.5 Z M 135.5,65.5 C 140.5,65.5 145.5,65.5 150.5,65.5C 126.5,90.1667 102.167,114.5 77.5,138.5C 83.9837,126.199 90.9837,114.199 98.5,102.5C 111.167,90.5 123.5,78.1667 135.5,65.5 Z M 155.5,65.5 C 160.5,65.5 165.5,65.5 170.5,65.5C 130.5,106.167 90.1667,146.5 49.5,186.5C 55.6745,173.998 62.6745,161.998 70.5,150.5C 99.1667,122.5 127.5,94.1667 155.5,65.5 Z M 175.5,65.5 C 180.5,65.5 185.5,65.5 190.5,65.5C 181.167,75.5 171.5,85.1667 161.5,94.5C 157.162,89.1851 152.995,89.5184 149,95.5C 137.667,109.5 126.333,123.5 115,137.5C 113.872,139.345 113.372,141.345 113.5,143.5C 89.8333,166.5 66.5,189.833 43.5,213.5C 40.777,211.796 38.4437,209.629 36.5,207C 38.3867,204.05 40.3867,201.216 42.5,198.5C 87.1667,154.5 131.5,110.167 175.5,65.5 Z M 195.5,65.5 C 200.5,65.5 205.5,65.5 210.5,65.5C 158.5,117.833 106.5,170.167 54.5,222.5C 51.1897,220.518 48.1897,218.185 45.5,215.5C 68.8333,192.833 91.8333,169.833 114.5,146.5C 117.136,147.824 119.802,147.824 122.5,146.5C 135.27,130.618 148.27,114.951 161.5,99.5C 173.167,88.5 184.5,77.1667 195.5,65.5 Z M 215.5,65.5 C 220.5,65.5 225.5,65.5 230.5,65.5C 218.167,78.5 205.5,91.1667 192.5,103.5C 192.703,101.61 192.037,100.11 190.5,99C 188.19,98.5034 185.857,98.3367 183.5,98.5C 194.167,87.5 204.833,76.5 215.5,65.5 Z M 235.5,65.5 C 240.5,65.5 245.5,65.5 250.5,65.5C 194.167,122.5 137.5,179.167 80.5,235.5C 76.9475,234.724 73.6142,233.391 70.5,231.5C 86.5,214.833 102.833,198.5 119.5,182.5C 120.512,184.876 122.345,185.876 125,185.5C 127.034,185.646 128.701,184.98 130,183.5C 148.623,159.711 167.79,136.378 187.5,113.5C 203.833,97.8333 219.833,81.8333 235.5,65.5 Z M 255.5,65.5 C 260.5,65.5 265.5,65.5 270.5,65.5C 212.167,124.167 153.833,182.833 95.5,241.5C 91.617,240.541 87.9503,239.208 84.5,237.5C 141.5,180.167 198.5,122.833 255.5,65.5 Z M 275.5,65.5 C 280.5,65.5 285.5,65.5 290.5,65.5C 230.5,125.833 170.5,186.167 110.5,246.5C 106.216,245.739 102.216,244.405 98.5,242.5C 157.833,183.833 216.833,124.833 275.5,65.5 Z M 295.5,65.5 C 300.5,65.5 305.5,65.5 310.5,65.5C 273.167,103.167 235.833,140.833 198.5,178.5C 194.519,179.021 190.519,179.354 186.5,179.5C 186.5,183.167 186.5,186.833 186.5,190.5C 166.167,210.167 146.167,230.167 126.5,250.5C 122.239,250.102 118.239,249.102 114.5,247.5C 174.833,186.833 235.167,126.167 295.5,65.5 Z M 315.5,65.5 C 320.5,65.5 325.5,65.5 330.5,65.5C 293.167,103.167 255.833,140.833 218.5,178.5C 213.5,178.5 208.5,178.5 203.5,178.5C 240.833,140.833 278.167,103.167 315.5,65.5 Z M 335.5,65.5 C 340.5,65.5 345.5,65.5 350.5,65.5C 313.167,103.167 275.833,140.833 238.5,178.5C 233.5,178.5 228.5,178.5 223.5,178.5C 260.833,140.833 298.167,103.167 335.5,65.5 Z M 355.5,65.5 C 360.5,65.5 365.5,65.5 370.5,65.5C 333.5,102.833 296.5,140.167 259.5,177.5C 254.213,178.342 248.88,178.676 243.5,178.5C 280.833,140.833 318.167,103.167 355.5,65.5 Z M 375.5,65.5 C 380.263,65.2256 384.93,65.559 389.5,66.5C 352.833,103.5 316.167,140.5 279.5,177.5C 274.5,177.5 269.5,177.5 264.5,177.5C 301.5,140.167 338.5,102.833 375.5,65.5 Z M 392.5,68.5 C 395,71.4937 397,74.827 398.5,78.5C 365.167,111.167 332.167,144.167 299.5,177.5C 294.5,177.5 289.5,177.5 284.5,177.5C 320.5,141.167 356.5,104.833 392.5,68.5 Z M 400.5,81.5 C 402.56,84.2402 404.226,87.2402 405.5,90.5C 377.167,119.167 348.833,147.833 320.5,176.5C 315.26,177.449 309.927,177.782 304.5,177.5C 336.167,145.167 368.167,113.167 400.5,81.5 Z M 407.5,93.5 C 409.863,96.5488 411.863,99.8822 413.5,103.5C 388.833,127.5 364.5,151.833 340.5,176.5C 335.5,176.5 330.5,176.5 325.5,176.5C 352.833,148.833 380.167,121.167 407.5,93.5 Z M 181.5,100.5 C 161.562,126.685 140.895,152.351 119.5,177.5C 101.833,194.5 84.5,211.833 67.5,229.5C 63.8832,228.358 60.5498,226.692 57.5,224.5C 98.5,182.833 139.833,141.5 181.5,100.5 Z M 415.5,106.5 C 417.42,109.339 419.087,112.339 420.5,115.5C 400.5,135.833 380.5,156.167 360.5,176.5C 355.5,176.5 350.5,176.5 345.5,176.5C 368.5,152.833 391.833,129.5 415.5,106.5 Z M 422.5,119.5 C 424.735,122.291 426.735,125.291 428.5,128.5C 412.5,143.833 396.833,159.5 381.5,175.5C 376.228,176.4 370.895,176.733 365.5,176.5C 384.167,157.167 403.167,138.167 422.5,119.5 Z M 429.5,131.5 C 432,134.494 434,137.827 435.5,141.5C 423.833,152.5 412.5,163.833 401.5,175.5C 396.5,175.5 391.5,175.5 386.5,175.5C 400.833,160.833 415.167,146.167 429.5,131.5 Z M 437.5,144.5 C 439.417,147.331 441.083,150.331 442.5,153.5C 432.833,163.833 422.833,173.833 412.5,183.5C 412.5,180.833 412.5,178.167 412.5,175.5C 410.5,175.5 408.5,175.5 406.5,175.5C 416.5,164.833 426.833,154.5 437.5,144.5 Z M 444.5,156.5 C 446.863,159.549 448.863,162.882 450.5,166.5C 438.167,178.5 425.833,190.5 413.5,202.5C 412.771,197.87 412.437,193.203 412.5,188.5C 423.5,178.167 434.167,167.5 444.5,156.5 Z M 452.5,169.5 C 454.692,172.55 456.358,175.883 457.5,179.5C 433.5,202.833 409.833,226.5 386.5,250.5C 380.269,252.308 373.935,253.641 367.5,254.5C 380.833,240.833 394.167,227.167 407.5,213.5C 409.5,213.5 411.5,213.5 413.5,213.5C 413.5,211.5 413.5,209.5 413.5,207.5C 426.5,194.833 439.5,182.167 452.5,169.5 Z M 459.5,182.5 C 461.735,185.291 463.735,188.291 465.5,191.5C 448.5,207.833 431.833,224.5 415.5,241.5C 408.438,244.631 401.105,246.965 393.5,248.5C 415.167,226.167 437.167,204.167 459.5,182.5 Z M 466.5,194.5 C 469,197.494 471,200.827 472.5,204.5C 465.833,210.5 459.5,216.833 453.5,223.5C 444.341,230.079 434.341,235.079 423.5,238.5C 437.833,223.833 452.167,209.167 466.5,194.5 Z M 186.5,195.5 C 186.5,200.5 186.5,205.5 186.5,210.5C 171.5,224.833 156.833,239.5 142.5,254.5C 138.264,253.992 134.264,252.992 130.5,251.5C 148.833,232.5 167.5,213.833 186.5,195.5 Z M 362.5,213.5 C 341.167,235.5 319.5,257.167 297.5,278.5C 295.891,274.946 294.558,271.279 293.5,267.5C 297.167,264.167 300.833,260.833 304.5,257.5C 304.81,258.738 305.31,258.738 306,257.5C 307.273,254.403 309.107,251.736 311.5,249.5C 312.833,248.833 313.833,247.833 314.5,246.5C 325.5,236.167 336.167,225.5 346.5,214.5C 351.88,214.676 357.213,214.342 362.5,213.5 Z M 367.5,213.5 C 372.5,213.5 377.5,213.5 382.5,213.5C 367.167,229.167 351.833,244.833 336.5,260.5C 333.805,256.989 330.138,255.656 325.5,256.5C 339.5,242.167 353.5,227.833 367.5,213.5 Z M 387.5,213.5 C 392.5,213.5 397.5,213.5 402.5,213.5C 388.5,227.833 374.5,242.167 360.5,256.5C 357.193,257.051 353.86,257.384 350.5,257.5C 351.092,260.127 351.425,262.794 351.5,265.5C 345.833,270.833 340.167,276.167 334.5,281.5C 335.593,275.849 336.593,270.182 337.5,264.5C 354.167,247.5 370.833,230.5 387.5,213.5 Z M 321.5,214.5 C 319.5,217.167 317.167,219.5 314.5,221.5C 314.674,219.139 315.007,216.806 315.5,214.5C 317.5,214.5 319.5,214.5 321.5,214.5 Z M 326.5,214.5 C 331.5,214.5 336.5,214.5 341.5,214.5C 332.833,223.833 323.833,232.833 314.5,241.5C 314.5,236.5 314.5,231.5 314.5,226.5C 318.833,222.833 322.833,218.833 326.5,214.5 Z M 186.5,215.5 C 190.634,216.485 194.968,216.818 199.5,216.5C 186.167,230.167 172.833,243.833 159.5,257.5C 155.106,257.156 150.772,256.49 146.5,255.5C 159.5,241.833 172.833,228.5 186.5,215.5 Z M 240.5,215.5 C 225.167,231.167 209.833,246.833 194.5,262.5C 189.99,262.116 185.657,261.449 181.5,260.5C 195.833,245.833 210.167,231.167 224.5,216.5C 229.833,216.167 235.167,215.833 240.5,215.5 Z M 245.5,215.5 C 250.5,215.5 255.5,215.5 260.5,215.5C 244.833,231.5 229.167,247.5 213.5,263.5C 208.737,263.774 204.07,263.441 199.5,262.5C 214.833,246.833 230.167,231.167 245.5,215.5 Z M 265.5,215.5 C 270.5,215.5 275.5,215.5 280.5,215.5C 264.5,231.833 248.5,248.167 232.5,264.5C 227.5,264.5 222.5,264.5 217.5,264.5C 233.5,248.167 249.5,231.833 265.5,215.5 Z M 285.5,215.5 C 287.436,219.715 288.103,224.381 287.5,229.5C 275.167,241.5 262.833,253.5 250.5,265.5C 245.833,265.5 241.167,265.5 236.5,265.5C 252.833,248.833 269.167,232.167 285.5,215.5 Z M 204.5,216.5 C 209.5,216.5 214.5,216.5 219.5,216.5C 205.167,231.167 190.833,245.833 176.5,260.5C 172.167,259.833 167.833,259.167 163.5,258.5C 177.167,244.5 190.833,230.5 204.5,216.5 Z M 298.5,243.5 C 300.346,246.54 301.679,249.873 302.5,253.5C 299.167,257.167 295.833,260.833 292.5,264.5C 290.594,261.017 288.928,257.35 287.5,253.5C 291.167,250.167 294.833,246.833 298.5,243.5 Z"/></g>
<g><path style="opacity:0.022" fill="#43443f" d="M 130.5,65.5 C 132.167,65.5 133.833,65.5 135.5,65.5C 123.5,78.1667 111.167,90.5 98.5,102.5C 100.234,98.7004 102.234,95.0337 104.5,91.5C 105.167,91.5 105.5,91.1667 105.5,90.5C 114.167,82.5 122.5,74.1667 130.5,65.5 Z"/></g>
<g><path style="opacity:0.022" fill="#43443f" d="M 150.5,65.5 C 152.167,65.5 153.833,65.5 155.5,65.5C 127.5,94.1667 99.1667,122.5 70.5,150.5C 72.1373,147.183 73.8039,143.85 75.5,140.5C 76.1667,140.5 76.5,140.167 76.5,139.5C 77.1667,139.5 77.5,139.167 77.5,138.5C 102.167,114.5 126.5,90.1667 150.5,65.5 Z"/></g>
<g><path style="opacity:0.022" fill="#43443f" d="M 170.5,65.5 C 172.167,65.5 173.833,65.5 175.5,65.5C 131.5,110.167 87.1667,154.5 42.5,198.5C 43.6417,194.883 45.3084,191.55 47.5,188.5C 48.1667,188.5 48.5,188.167 48.5,187.5C 49.1667,187.5 49.5,187.167 49.5,186.5C 90.1667,146.5 130.5,106.167 170.5,65.5 Z"/></g>
<g><path style="opacity:0.022" fill="#43443f" d="M 190.5,65.5 C 192.167,65.5 193.833,65.5 195.5,65.5C 184.5,77.1667 173.167,88.5 161.5,99.5C 161.5,97.8333 161.5,96.1667 161.5,94.5C 171.5,85.1667 181.167,75.5 190.5,65.5 Z"/></g>
<g><path style="opacity:0.022" fill="#43443f" d="M 210.5,65.5 C 212.167,65.5 213.833,65.5 215.5,65.5C 204.833,76.5 194.167,87.5 183.5,98.5C 182.833,98.5 182.5,98.8333 182.5,99.5C 181.833,99.5 181.5,99.8333 181.5,100.5C 139.833,141.5 98.5,182.833 57.5,224.5C 56.5,223.833 55.5,223.167 54.5,222.5C 106.5,170.167 158.5,117.833 210.5,65.5 Z"/></g>
<g><path style="opacity:0.022" fill="#43443f" d="M 230.5,65.5 C 232.167,65.5 233.833,65.5 235.5,65.5C 219.833,81.8333 203.833,97.8333 187.5,113.5C 190.022,110.631 191.689,107.297 192.5,103.5C 205.5,91.1667 218.167,78.5 230.5,65.5 Z"/></g>
<g><path style="opacity:0.022" fill="#43443f" d="M 250.5,65.5 C 252.167,65.5 253.833,65.5 255.5,65.5C 198.5,122.833 141.5,180.167 84.5,237.5C 82.847,237.34 81.5137,236.674 80.5,235.5C 137.5,179.167 194.167,122.5 250.5,65.5 Z"/></g>
<g><path style="opacity:0.022" fill="#43443f" d="M 270.5,65.5 C 272.167,65.5 273.833,65.5 275.5,65.5C 216.833,124.833 157.833,183.833 98.5,242.5C 97.209,242.737 96.209,242.404 95.5,241.5C 153.833,182.833 212.167,124.167 270.5,65.5 Z"/></g>
<g><path style="opacity:0.022" fill="#43443f" d="M 290.5,65.5 C 292.167,65.5 293.833,65.5 295.5,65.5C 235.167,126.167 174.833,186.833 114.5,247.5C 113.041,247.567 111.708,247.234 110.5,246.5C 170.5,186.167 230.5,125.833 290.5,65.5 Z"/></g>
<g><path style="opacity:0.022" fill="#43443f" d="M 310.5,65.5 C 312.167,65.5 313.833,65.5 315.5,65.5C 278.167,103.167 240.833,140.833 203.5,178.5C 201.833,178.5 200.167,178.5 198.5,178.5C 235.833,140.833 273.167,103.167 310.5,65.5 Z"/></g>
<g><path style="opacity:0.022" fill="#43443f" d="M 330.5,65.5 C 332.167,65.5 333.833,65.5 335.5,65.5C 298.167,103.167 260.833,140.833 223.5,178.5C 221.833,178.5 220.167,178.5 218.5,178.5C 255.833,140.833 293.167,103.167 330.5,65.5 Z"/></g>
<g><path style="opacity:0.022" fill="#43443f" d="M 350.5,65.5 C 352.167,65.5 353.833,65.5 355.5,65.5C 318.167,103.167 280.833,140.833 243.5,178.5C 241.833,178.5 240.167,178.5 238.5,178.5C 275.833,140.833 313.167,103.167 350.5,65.5 Z"/></g>
<g><path style="opacity:0.022" fill="#43443f" d="M 370.5,65.5 C 372.167,65.5 373.833,65.5 375.5,65.5C 338.5,102.833 301.5,140.167 264.5,177.5C 262.833,177.5 261.167,177.5 259.5,177.5C 296.5,140.167 333.5,102.833 370.5,65.5 Z"/></g>
<g><path style="opacity:0.022" fill="#43443f" d="M 511.5,65.5 C 511.5,67.1667 511.5,68.8333 511.5,70.5C 491.5,90.1667 471.5,109.833 451.5,129.5C 450.833,128.5 450.167,127.5 449.5,126.5C 470.167,106.167 490.833,85.8333 511.5,65.5 Z"/></g>
<g><path style="opacity:0.022" fill="#43443f" d="M 389.5,66.5 C 391.027,66.427 392.027,67.0937 392.5,68.5C 356.5,104.833 320.5,141.167 284.5,177.5C 282.833,177.5 281.167,177.5 279.5,177.5C 316.167,140.5 352.833,103.5 389.5,66.5 Z"/></g>
<g><path style="opacity:0.022" fill="#43443f" d="M 398.5,78.5 C 399.401,79.2905 400.068,80.2905 400.5,81.5C 368.167,113.167 336.167,145.167 304.5,177.5C 302.833,177.5 301.167,177.5 299.5,177.5C 332.167,144.167 365.167,111.167 398.5,78.5 Z"/></g>
<g><path style="opacity:0.022" fill="#43443f" d="M 511.5,85.5 C 511.5,87.1667 511.5,88.8333 511.5,90.5C 494.167,107.5 476.833,124.5 459.5,141.5C 458.094,141.027 457.427,140.027 457.5,138.5C 475.5,120.833 493.5,103.167 511.5,85.5 Z"/></g>
<g><path style="opacity:1" fill="#029cc6" d="M 161.5,94.5 C 161.5,96.1667 161.5,97.8333 161.5,99.5C 148.27,114.951 135.27,130.618 122.5,146.5C 119.802,147.824 117.136,147.824 114.5,146.5C 113.89,145.609 113.557,144.609 113.5,143.5C 113.372,141.345 113.872,139.345 115,137.5C 126.333,123.5 137.667,109.5 149,95.5C 152.995,89.5184 157.162,89.1851 161.5,94.5 Z"/></g>
<g><path style="opacity:0.022" fill="#43443f" d="M 405.5,90.5 C 406.401,91.2905 407.068,92.2905 407.5,93.5C 380.167,121.167 352.833,148.833 325.5,176.5C 323.833,176.5 322.167,176.5 320.5,176.5C 348.833,147.833 377.167,119.167 405.5,90.5 Z"/></g>
<g><path style="opacity:1" fill="#029cc6" d="M 183.5,98.5 C 185.857,98.3367 188.19,98.5034 190.5,99C 192.037,100.11 192.703,101.61 192.5,103.5C 191.689,107.297 190.022,110.631 187.5,113.5C 167.79,136.378 148.623,159.711 130,183.5C 128.701,184.98 127.034,185.646 125,185.5C 122.345,185.876 120.512,184.876 119.5,182.5C 119.5,180.833 119.5,179.167 119.5,177.5C 140.895,152.351 161.562,126.685 181.5,100.5C 182.167,100.5 182.5,100.167 182.5,99.5C 183.167,99.5 183.5,99.1667 183.5,98.5 Z"/></g>
<g><path style="opacity:0.022" fill="#43443f" d="M 77.5,99.5 C 75.683,103.801 73.3497,107.801 70.5,111.5C 69.8333,111.5 69.5,111.833 69.5,112.5C 46.1667,135.5 22.8333,158.5 -0.5,181.5C -0.5,179.833 -0.5,178.167 -0.5,176.5C 25.5,150.833 51.5,125.167 77.5,99.5 Z"/></g>
<g><path style="opacity:0.022" fill="#43443f" d="M 413.5,103.5 C 414.167,104.5 414.833,105.5 415.5,106.5C 391.833,129.5 368.5,152.833 345.5,176.5C 343.833,176.5 342.167,176.5 340.5,176.5C 364.5,151.833 388.833,127.5 413.5,103.5 Z"/></g>
<g><path style="opacity:0.022" fill="#43443f" d="M 511.5,105.5 C 511.5,107.167 511.5,108.833 511.5,110.5C 496.5,124.833 481.833,139.5 467.5,154.5C 466.094,154.027 465.427,153.027 465.5,151.5C 480.5,135.833 495.833,120.5 511.5,105.5 Z"/></g>
<g><path style="opacity:0.022" fill="#43443f" d="M 420.5,115.5 C 421.674,116.514 422.34,117.847 422.5,119.5C 403.167,138.167 384.167,157.167 365.5,176.5C 363.833,176.5 362.167,176.5 360.5,176.5C 380.5,156.167 400.5,135.833 420.5,115.5 Z"/></g>
<g><path style="opacity:0.022" fill="#43443f" d="M 511.5,125.5 C 511.5,127.167 511.5,128.833 511.5,130.5C 499.167,142.5 486.833,154.5 474.5,166.5C 473.599,165.71 472.932,164.71 472.5,163.5C 485.5,150.833 498.5,138.167 511.5,125.5 Z"/></g>
<g><path style="opacity:0.022" fill="#43443f" d="M 428.5,128.5 C 429.11,129.391 429.443,130.391 429.5,131.5C 415.167,146.167 400.833,160.833 386.5,175.5C 384.833,175.5 383.167,175.5 381.5,175.5C 396.833,159.5 412.5,143.833 428.5,128.5 Z"/></g>
<g><path style="opacity:0.022" fill="#43443f" d="M 435.5,141.5 C 436.401,142.29 437.068,143.29 437.5,144.5C 426.833,154.5 416.5,164.833 406.5,175.5C 404.833,175.5 403.167,175.5 401.5,175.5C 412.5,163.833 423.833,152.5 435.5,141.5 Z"/></g>
<g><path style="opacity:0.022" fill="#43443f" d="M 113.5,143.5 C 113.557,144.609 113.89,145.609 114.5,146.5C 91.8333,169.833 68.8333,192.833 45.5,215.5C 44.5,215.167 43.8333,214.5 43.5,213.5C 66.5,189.833 89.8333,166.5 113.5,143.5 Z"/></g>
<g><path style="opacity:0.022" fill="#43443f" d="M 511.5,145.5 C 511.5,147.167 511.5,148.833 511.5,150.5C 501.5,159.833 491.833,169.5 482.5,179.5C 481.599,178.71 480.932,177.71 480.5,176.5C 490.5,165.833 500.833,155.5 511.5,145.5 Z"/></g>
<g><path style="opacity:0.022" fill="#43443f" d="M 45.5,151.5 C 43.7664,155.3 41.7664,158.966 39.5,162.5C 38.8333,162.5 38.5,162.833 38.5,163.5C 37.8333,163.5 37.5,163.833 37.5,164.5C 24.8333,176.833 12.1667,189.167 -0.5,201.5C -0.5,199.833 -0.5,198.167 -0.5,196.5C 14.8333,181.5 30.1667,166.5 45.5,151.5 Z"/></g>
<g><path style="opacity:0.022" fill="#43443f" d="M 442.5,153.5 C 443.401,154.29 444.068,155.29 444.5,156.5C 434.167,167.5 423.5,178.167 412.5,188.5C 412.5,186.833 412.5,185.167 412.5,183.5C 422.833,173.833 432.833,163.833 442.5,153.5 Z"/></g>
<g><path style="opacity:0.022" fill="#43443f" d="M 511.5,165.5 C 511.5,167.167 511.5,168.833 511.5,170.5C 504.167,177.5 496.833,184.5 489.5,191.5C 488.833,190.5 488.167,189.5 487.5,188.5C 495.5,180.833 503.5,173.167 511.5,165.5 Z"/></g>
<g><path style="opacity:0.022" fill="#43443f" d="M 450.5,166.5 C 451.167,167.5 451.833,168.5 452.5,169.5C 439.5,182.167 426.5,194.833 413.5,207.5C 413.5,205.833 413.5,204.167 413.5,202.5C 425.833,190.5 438.167,178.5 450.5,166.5 Z"/></g>
<g><path style="opacity:1" fill="#009cc6" d="M 381.5,175.5 C 383.167,175.5 384.833,175.5 386.5,175.5C 391.5,175.5 396.5,175.5 401.5,175.5C 403.167,175.5 404.833,175.5 406.5,175.5C 408.5,175.5 410.5,175.5 412.5,175.5C 412.5,178.167 412.5,180.833 412.5,183.5C 412.5,185.167 412.5,186.833 412.5,188.5C 412.437,193.203 412.771,197.87 413.5,202.5C 413.5,204.167 413.5,205.833 413.5,207.5C 413.5,209.5 413.5,211.5 413.5,213.5C 411.5,213.5 409.5,213.5 407.5,213.5C 405.833,213.5 404.167,213.5 402.5,213.5C 397.5,213.5 392.5,213.5 387.5,213.5C 385.833,213.5 384.167,213.5 382.5,213.5C 377.5,213.5 372.5,213.5 367.5,213.5C 365.833,213.5 364.167,213.5 362.5,213.5C 357.213,214.342 351.88,214.676 346.5,214.5C 344.833,214.5 343.167,214.5 341.5,214.5C 336.5,214.5 331.5,214.5 326.5,214.5C 324.833,214.5 323.167,214.5 321.5,214.5C 319.5,214.5 317.5,214.5 315.5,214.5C 315.007,216.806 314.674,219.139 314.5,221.5C 314.5,223.167 314.5,224.833 314.5,226.5C 314.5,231.5 314.5,236.5 314.5,241.5C 314.5,243.167 314.5,244.833 314.5,246.5C 312.5,246.5 311.5,247.5 311.5,249.5C 309.107,251.736 307.273,254.403 306,257.5C 305.31,258.738 304.81,258.738 304.5,257.5C 304.011,256.005 303.345,254.671 302.5,253.5C 301.679,249.873 300.346,246.54 298.5,243.5C 298.19,241.856 297.19,240.856 295.5,240.5C 293.507,238.837 291.174,237.67 288.5,237C 287.748,236.329 287.414,235.496 287.5,234.5C 287.5,232.833 287.5,231.167 287.5,229.5C 288.103,224.381 287.436,219.715 285.5,215.5C 283.833,215.5 282.167,215.5 280.5,215.5C 275.5,215.5 270.5,215.5 265.5,215.5C 263.833,215.5 262.167,215.5 260.5,215.5C 255.5,215.5 250.5,215.5 245.5,215.5C 243.833,215.5 242.167,215.5 240.5,215.5C 235.167,215.833 229.833,216.167 224.5,216.5C 222.833,216.5 221.167,216.5 219.5,216.5C 214.5,216.5 209.5,216.5 204.5,216.5C 202.833,216.5 201.167,216.5 199.5,216.5C 194.968,216.818 190.634,216.485 186.5,215.5C 186.5,213.833 186.5,212.167 186.5,210.5C 186.5,205.5 186.5,200.5 186.5,195.5C 186.5,193.833 186.5,192.167 186.5,190.5C 186.5,186.833 186.5,183.167 186.5,179.5C 190.519,179.354 194.519,179.021 198.5,178.5C 200.167,178.5 201.833,178.5 203.5,178.5C 208.5,178.5 213.5,178.5 218.5,178.5C 220.167,178.5 221.833,178.5 223.5,178.5C 228.5,178.5 233.5,178.5 238.5,178.5C 240.167,178.5 241.833,178.5 243.5,178.5C 248.88,178.676 254.213,178.342 259.5,177.5C 261.167,177.5 262.833,177.5 264.5,177.5C 269.5,177.5 274.5,177.5 279.5,177.5C 281.167,177.5 282.833,177.5 284.5,177.5C 289.5,177.5 294.5,177.5 299.5,177.5C 301.167,177.5 302.833,177.5 304.5,177.5C 309.927,177.782 315.26,177.449 320.5,176.5C 322.167,176.5 323.833,176.5 325.5,176.5C 330.5,176.5 335.5,176.5 340.5,176.5C 342.167,176.5 343.833,176.5 345.5,176.5C 350.5,176.5 355.5,176.5 360.5,176.5C 362.167,176.5 363.833,176.5 365.5,176.5C 370.895,176.733 376.228,176.4 381.5,175.5 Z"/></g>
<g><path style="opacity:0.022" fill="#43443f" d="M 119.5,177.5 C 119.5,179.167 119.5,180.833 119.5,182.5C 102.833,198.5 86.5,214.833 70.5,231.5C 69.2905,231.068 68.2905,230.401 67.5,229.5C 84.5,211.833 101.833,194.5 119.5,177.5 Z"/></g>
<g><path style="opacity:0.022" fill="#43443f" d="M 457.5,179.5 C 458.906,179.973 459.573,180.973 459.5,182.5C 437.167,204.167 415.167,226.167 393.5,248.5C 391.228,249.319 388.894,249.985 386.5,250.5C 409.833,226.5 433.5,202.833 457.5,179.5 Z"/></g>
<g><path style="opacity:0.022" fill="#43443f" d="M 511.5,185.5 C 511.5,187.167 511.5,188.833 511.5,190.5C 506.833,194.833 502.167,199.167 497.5,203.5C 496.094,203.027 495.427,202.027 495.5,200.5C 500.833,195.5 506.167,190.5 511.5,185.5 Z"/></g>
<g><path style="opacity:0.022" fill="#43443f" d="M 186.5,190.5 C 186.5,192.167 186.5,193.833 186.5,195.5C 167.5,213.833 148.833,232.5 130.5,251.5C 128.901,251.768 127.568,251.434 126.5,250.5C 146.167,230.167 166.167,210.167 186.5,190.5 Z"/></g>
<g><path style="opacity:0.022" fill="#43443f" d="M 465.5,191.5 C 466.11,192.391 466.443,193.391 466.5,194.5C 452.167,209.167 437.833,223.833 423.5,238.5C 422.833,238.5 422.5,238.833 422.5,239.5C 420.254,240.455 417.921,241.122 415.5,241.5C 431.833,224.5 448.5,207.833 465.5,191.5 Z"/></g>
<g><path style="opacity:0.022" fill="#43443f" d="M 13.5,203.5 C 12.1667,206.5 10.8333,209.5 9.5,212.5C 6.16667,215.5 2.83333,218.5 -0.5,221.5C -0.5,219.833 -0.5,218.167 -0.5,216.5C 4.16667,212.167 8.83333,207.833 13.5,203.5 Z"/></g>
<g><path style="opacity:0.022" fill="#43443f" d="M 472.5,204.5 C 473.267,205.172 473.934,206.005 474.5,207C 468.528,213.965 461.528,219.465 453.5,223.5C 459.5,216.833 465.833,210.5 472.5,204.5 Z"/></g>
<g><path style="opacity:0.022" fill="#43443f" d="M 511.5,205.5 C 511.5,207.167 511.5,208.833 511.5,210.5C 508.167,213.5 504.833,216.5 501.5,219.5C 501.5,217.833 501.5,216.167 501.5,214.5C 504.833,211.5 508.167,208.5 511.5,205.5 Z"/></g>
<g><path style="opacity:0.022" fill="#43443f" d="M 186.5,210.5 C 186.5,212.167 186.5,213.833 186.5,215.5C 172.833,228.5 159.5,241.833 146.5,255.5C 145.167,255.167 143.833,254.833 142.5,254.5C 156.833,239.5 171.5,224.833 186.5,210.5 Z"/></g>
<g><path style="opacity:0.022" fill="#43443f" d="M 362.5,213.5 C 364.167,213.5 365.833,213.5 367.5,213.5C 353.5,227.833 339.5,242.167 325.5,256.5C 322.189,257.811 319.855,260.145 318.5,263.5C 311.833,269.5 305.5,275.833 299.5,282.5C 298.326,281.486 297.66,280.153 297.5,278.5C 319.5,257.167 341.167,235.5 362.5,213.5 Z"/></g>
<g><path style="opacity:0.022" fill="#43443f" d="M 382.5,213.5 C 384.167,213.5 385.833,213.5 387.5,213.5C 370.833,230.5 354.167,247.5 337.5,264.5C 336.566,263.432 336.232,262.099 336.5,260.5C 351.833,244.833 367.167,229.167 382.5,213.5 Z"/></g>
<g><path style="opacity:0.022" fill="#43443f" d="M 402.5,213.5 C 404.167,213.5 405.833,213.5 407.5,213.5C 394.167,227.167 380.833,240.833 367.5,254.5C 366.833,254.5 366.5,254.833 366.5,255.5C 364.435,255.517 362.435,255.85 360.5,256.5C 374.5,242.167 388.5,227.833 402.5,213.5 Z"/></g>
<g><path style="opacity:0.022" fill="#43443f" d="M 321.5,214.5 C 323.167,214.5 324.833,214.5 326.5,214.5C 322.833,218.833 318.833,222.833 314.5,226.5C 314.5,224.833 314.5,223.167 314.5,221.5C 317.167,219.5 319.5,217.167 321.5,214.5 Z"/></g>
<g><path style="opacity:0.022" fill="#43443f" d="M 341.5,214.5 C 343.167,214.5 344.833,214.5 346.5,214.5C 336.167,225.5 325.5,236.167 314.5,246.5C 314.5,244.833 314.5,243.167 314.5,241.5C 323.833,232.833 332.833,223.833 341.5,214.5 Z"/></g>
<g><path style="opacity:0.022" fill="#43443f" d="M 240.5,215.5 C 242.167,215.5 243.833,215.5 245.5,215.5C 230.167,231.167 214.833,246.833 199.5,262.5C 197.833,262.5 196.167,262.5 194.5,262.5C 209.833,246.833 225.167,231.167 240.5,215.5 Z"/></g>
<g><path style="opacity:0.022" fill="#43443f" d="M 260.5,215.5 C 262.167,215.5 263.833,215.5 265.5,215.5C 249.5,231.833 233.5,248.167 217.5,264.5C 215.901,264.768 214.568,264.434 213.5,263.5C 229.167,247.5 244.833,231.5 260.5,215.5 Z"/></g>
<g><path style="opacity:0.022" fill="#43443f" d="M 280.5,215.5 C 282.167,215.5 283.833,215.5 285.5,215.5C 269.167,232.167 252.833,248.833 236.5,265.5C 234.901,265.768 233.568,265.434 232.5,264.5C 248.5,248.167 264.5,231.833 280.5,215.5 Z"/></g>
<g><path style="opacity:0.022" fill="#43443f" d="M 199.5,216.5 C 201.167,216.5 202.833,216.5 204.5,216.5C 190.833,230.5 177.167,244.5 163.5,258.5C 162.041,258.567 160.708,258.234 159.5,257.5C 172.833,243.833 186.167,230.167 199.5,216.5 Z"/></g>
<g><path style="opacity:0.022" fill="#43443f" d="M 219.5,216.5 C 221.167,216.5 222.833,216.5 224.5,216.5C 210.167,231.167 195.833,245.833 181.5,260.5C 179.833,260.5 178.167,260.5 176.5,260.5C 190.833,245.833 205.167,231.167 219.5,216.5 Z"/></g>
<g><path style="opacity:0.022" fill="#43443f" d="M 12.5,224.5 C 13.4013,225.29 14.0679,226.29 14.5,227.5C 9.5,232.167 4.5,236.833 -0.5,241.5C -0.5,239.833 -0.5,238.167 -0.5,236.5C 3.83333,232.5 8.16667,228.5 12.5,224.5 Z"/></g>
<g><path style="opacity:0.022" fill="#43443f" d="M 511.5,225.5 C 511.5,227.167 511.5,228.833 511.5,230.5C 451.167,290.5 390.833,350.5 330.5,410.5C 330.517,408.435 330.85,406.435 331.5,404.5C 391.5,344.833 451.5,285.167 511.5,225.5 Z"/></g>
<g><path style="opacity:0.022" fill="#43443f" d="M 287.5,229.5 C 287.5,231.167 287.5,232.833 287.5,234.5C 274.833,246.833 262.167,259.167 249.5,271.5C 249.833,269.5 250.167,267.5 250.5,265.5C 262.833,253.5 275.167,241.5 287.5,229.5 Z"/></g>
<g><path style="opacity:0.022" fill="#43443f" d="M 21.5,234.5 C 22.8333,235.167 23.8333,236.167 24.5,237.5C 16.1667,245.5 7.83333,253.5 -0.5,261.5C -0.5,259.833 -0.5,258.167 -0.5,256.5C 7.16667,249.5 14.5,242.167 21.5,234.5 Z"/></g>
<g><path style="opacity:0.022" fill="#43443f" d="M 295.5,240.5 C 297.19,240.856 298.19,241.856 298.5,243.5C 294.833,246.833 291.167,250.167 287.5,253.5C 287.5,252.167 286.833,251.5 285.5,251.5C 288.833,247.833 292.167,244.167 295.5,240.5 Z"/></g>
<g><path style="opacity:0.022" fill="#43443f" d="M 32.5,244.5 C 34.0269,244.427 35.0269,245.094 35.5,246.5C 23.5,258.167 11.5,269.833 -0.5,281.5C -0.5,279.833 -0.5,278.167 -0.5,276.5C 10.5,265.833 21.5,255.167 32.5,244.5 Z"/></g>
<g><path style="opacity:0.022" fill="#43443f" d="M 511.5,245.5 C 511.5,247.167 511.5,248.833 511.5,250.5C 449.5,312.167 387.5,373.833 325.5,435.5C 325.325,433.379 325.659,431.379 326.5,429.5C 388.167,368.167 449.833,306.833 511.5,245.5 Z"/></g>
<g><path style="opacity:0.021" fill="#43443f" d="M 314.5,246.5 C 313.833,247.833 312.833,248.833 311.5,249.5C 311.5,247.5 312.5,246.5 314.5,246.5 Z"/></g>
<g><path style="opacity:0.022" fill="#43443f" d="M 471.5,249.5 C 425.833,295.833 379.833,341.833 333.5,387.5C 333.5,385.833 333.5,384.167 333.5,382.5C 375.833,340.833 417.833,298.833 459.5,256.5C 460.167,256.5 460.5,256.167 460.5,255.5C 464.034,253.234 467.7,251.234 471.5,249.5 Z"/></g>
<g><path style="opacity:1" fill="#009cc6" d="M 285.5,251.5 C 286.833,251.5 287.5,252.167 287.5,253.5C 288.928,257.35 290.594,261.017 292.5,264.5C 292.263,265.791 292.596,266.791 293.5,267.5C 294.558,271.279 295.891,274.946 297.5,278.5C 297.66,280.153 298.326,281.486 299.5,282.5C 300.065,286.537 301.399,290.203 303.5,293.5C 303.263,294.791 303.596,295.791 304.5,296.5C 305.393,299.68 306.393,302.846 307.5,306C 307.85,307.257 308.517,307.591 309.5,307C 310.826,301.243 311.826,295.409 312.5,289.5C 312.517,287.435 312.85,285.435 313.5,283.5C 314.54,276.671 316.207,270.005 318.5,263.5C 319.855,260.145 322.189,257.811 325.5,256.5C 330.138,255.656 333.805,256.989 336.5,260.5C 336.232,262.099 336.566,263.432 337.5,264.5C 336.593,270.182 335.593,275.849 334.5,281.5C 333.85,283.435 333.517,285.435 333.5,287.5C 334.383,292.103 334.717,296.77 334.5,301.5C 334.5,303.167 334.5,304.833 334.5,306.5C 334.669,311.181 335.002,315.848 335.5,320.5C 335.5,322.167 335.5,323.833 335.5,325.5C 334.715,331.546 333.715,337.546 332.5,343.5C 331.833,345.833 331.167,348.167 330.5,350.5C 326.24,355.577 326.573,360.243 331.5,364.5C 331.833,365.833 332.167,367.167 332.5,368.5C 333.229,373.13 333.563,377.797 333.5,382.5C 333.5,384.167 333.5,385.833 333.5,387.5C 332.779,393.15 332.112,398.817 331.5,404.5C 330.85,406.435 330.517,408.435 330.5,410.5C 328.916,416.752 327.583,423.086 326.5,429.5C 325.659,431.379 325.325,433.379 325.5,435.5C 324.428,441.861 323.094,448.194 321.5,454.5C 321.019,459.527 318.352,462.193 313.5,462.5C 309.877,461.344 306.211,460.344 302.5,459.5C 301.486,458.326 300.153,457.66 298.5,457.5C 294.593,456.508 290.593,455.508 286.5,454.5C 285.041,454.567 283.708,454.234 282.5,453.5C 278.5,452.5 274.5,451.5 270.5,450.5C 269.791,449.596 268.791,449.263 267.5,449.5C 264.021,447.597 260.354,445.93 256.5,444.5C 256.027,443.094 255.027,442.427 253.5,442.5C 250.859,440.196 248.192,437.862 245.5,435.5C 244.89,434.609 244.557,433.609 244.5,432.5C 246.38,424.075 249.38,416.075 253.5,408.5C 254.167,408.5 254.5,408.167 254.5,407.5C 256.606,405.281 257.606,402.615 257.5,399.5C 258.167,393.833 258.833,388.167 259.5,382.5C 260.15,380.565 260.483,378.565 260.5,376.5C 261.372,371.774 260.372,367.44 257.5,363.5C 257.737,362.209 257.404,361.209 256.5,360.5C 255.49,356.386 254.49,352.386 253.5,348.5C 253.5,346.833 253.5,345.167 253.5,343.5C 253.569,338.146 253.902,332.813 254.5,327.5C 255.15,325.565 255.483,323.565 255.5,321.5C 257.162,314.854 258.828,308.187 260.5,301.5C 260.34,299.847 259.674,298.514 258.5,297.5C 256.305,293.324 255.972,288.991 257.5,284.5C 258.167,284.5 258.5,284.167 258.5,283.5C 260.114,280.607 261.447,277.607 262.5,274.5C 264.229,270.155 266.062,265.822 268,261.5C 271.566,258.301 275.4,255.467 279.5,253C 281.345,251.872 283.345,251.372 285.5,251.5 Z M 318.5,263.5 C 316.207,270.005 314.54,276.671 313.5,283.5C 309.833,286.5 306.5,289.833 303.5,293.5C 301.399,290.203 300.065,286.537 299.5,282.5C 305.5,275.833 311.833,269.5 318.5,263.5 Z M 312.5,289.5 C 311.826,295.409 310.826,301.243 309.5,307C 308.517,307.591 307.85,307.257 307.5,306C 306.393,302.846 305.393,299.68 304.5,296.5C 307.167,294.167 309.833,291.833 312.5,289.5 Z"/></g>
<g><path style="opacity:0.022" fill="#43443f" d="M 44.5,252.5 C 46.0269,252.427 47.0269,253.094 47.5,254.5C 31.5,270.167 15.5,285.833 -0.5,301.5C -0.5,299.833 -0.5,298.167 -0.5,296.5C 14.5,281.833 29.5,267.167 44.5,252.5 Z"/></g>
<g><path style="opacity:0.022" fill="#43443f" d="M 302.5,253.5 C 303.345,254.671 304.011,256.005 304.5,257.5C 300.833,260.833 297.167,264.167 293.5,267.5C 292.596,266.791 292.263,265.791 292.5,264.5C 295.833,260.833 299.167,257.167 302.5,253.5 Z"/></g>
<g><path style="opacity:0.022" fill="#43443f" d="M 56.5,259.5 C 58.153,259.66 59.4863,260.326 60.5,261.5C 40.1667,281.5 19.8333,301.5 -0.5,321.5C -0.5,319.833 -0.5,318.167 -0.5,316.5C 18.8333,297.833 37.8333,278.833 56.5,259.5 Z"/></g>
<g><path style="opacity:0.022" fill="#43443f" d="M 70.5,265.5 C 71.9952,265.989 73.3285,266.655 74.5,267.5C 49.5,292.167 24.5,316.833 -0.5,341.5C -0.5,339.833 -0.5,338.167 -0.5,336.5C 23.5,313.167 47.1667,289.5 70.5,265.5 Z"/></g>
<g><path style="opacity:0.022" fill="#43443f" d="M 351.5,265.5 C 351.675,267.621 351.341,269.621 350.5,271.5C 344.833,276.833 339.167,282.167 333.5,287.5C 333.517,285.435 333.85,283.435 334.5,281.5C 340.167,276.167 345.833,270.833 351.5,265.5 Z"/></g>
<g><path style="opacity:0.022" fill="#43443f" d="M 511.5,265.5 C 511.5,267.167 511.5,268.833 511.5,270.5C 430.833,350.5 350.5,430.833 270.5,511.5C 268.833,511.5 267.167,511.5 265.5,511.5C 281.5,495.167 297.5,478.833 313.5,462.5C 318.352,462.193 321.019,459.527 321.5,454.5C 384.833,391.5 448.167,328.5 511.5,265.5 Z"/></g>
<g><path style="opacity:0.022" fill="#43443f" d="M 431.5,269.5 C 398.833,302.833 365.833,335.833 332.5,368.5C 332.167,367.167 331.833,365.833 331.5,364.5C 362.5,334.167 393.167,303.5 423.5,272.5C 424.167,272.5 424.5,272.167 424.5,271.5C 426.833,270.833 429.167,270.167 431.5,269.5 Z"/></g>
<g><path style="opacity:0.022" fill="#43443f" d="M 84.5,271.5 C 85.9587,271.433 87.2921,271.766 88.5,272.5C 59.1667,302.5 29.5,332.167 -0.5,361.5C -0.5,359.833 -0.5,358.167 -0.5,356.5C 28.1667,328.5 56.5,300.167 84.5,271.5 Z"/></g>
<g><path style="opacity:0.022" fill="#43443f" d="M 262.5,274.5 C 261.447,277.607 260.114,280.607 258.5,283.5C 257.833,283.5 257.5,283.833 257.5,284.5C 181.5,359.833 105.833,435.5 30.5,511.5C 28.8333,511.5 27.1667,511.5 25.5,511.5C 96.8333,439.833 168.167,368.167 239.5,296.5C 240.873,296.657 242.207,296.49 243.5,296C 242.748,295.329 242.414,294.496 242.5,293.5C 249.167,287.167 255.833,280.833 262.5,274.5 Z"/></g>
<g><path style="opacity:0.022" fill="#43443f" d="M 99.5,276.5 C 100.959,276.433 102.292,276.766 103.5,277.5C 69.1667,312.5 34.5,347.167 -0.5,381.5C -0.5,379.833 -0.5,378.167 -0.5,376.5C 33.1667,343.5 66.5,310.167 99.5,276.5 Z"/></g>
<g><path style="opacity:0.022" fill="#43443f" d="M 401.5,279.5 C 378.167,303.5 354.5,327.167 330.5,350.5C 331.167,348.167 331.833,345.833 332.5,343.5C 353.833,322.833 374.833,301.833 395.5,280.5C 397.435,279.85 399.435,279.517 401.5,279.5 Z"/></g>
<g><path style="opacity:0.022" fill="#43443f" d="M 115.5,280.5 C 116.833,280.833 118.167,281.167 119.5,281.5C 79.8333,321.833 39.8333,361.833 -0.5,401.5C -0.5,399.833 -0.5,398.167 -0.5,396.5C 38.5,358.167 77.1667,319.5 115.5,280.5 Z"/></g>
<g><path style="opacity:0.022" fill="#43443f" d="M 313.5,283.5 C 312.85,285.435 312.517,287.435 312.5,289.5C 309.833,291.833 307.167,294.167 304.5,296.5C 303.596,295.791 303.263,294.791 303.5,293.5C 306.5,289.833 309.833,286.5 313.5,283.5 Z"/></g>
<g><path style="opacity:0.022" fill="#43443f" d="M 131.5,284.5 C 132.959,284.433 134.292,284.766 135.5,285.5C 90.5,331.167 45.1667,376.5 -0.5,421.5C -0.5,419.833 -0.5,418.167 -0.5,416.5C 43.8333,372.833 87.8333,328.833 131.5,284.5 Z"/></g>
<g><path style="opacity:0.022" fill="#43443f" d="M 375.5,285.5 C 362.5,299.167 349.167,312.5 335.5,325.5C 335.5,323.833 335.5,322.167 335.5,320.5C 347.167,309.5 358.5,298.167 369.5,286.5C 371.5,286.167 373.5,285.833 375.5,285.5 Z"/></g>
<g><path style="opacity:0.022" fill="#43443f" d="M 511.5,285.5 C 511.5,287.167 511.5,288.833 511.5,290.5C 437.5,363.833 363.833,437.5 290.5,511.5C 288.833,511.5 287.167,511.5 285.5,511.5C 360.5,435.833 435.833,360.5 511.5,285.5 Z"/></g>
<g><path style="opacity:0.022" fill="#43443f" d="M 148.5,287.5 C 149.708,288.234 151.041,288.567 152.5,288.5C 101.833,339.833 50.8333,390.833 -0.5,441.5C -0.5,439.833 -0.5,438.167 -0.5,436.5C 49.5,387.167 99.1667,337.5 148.5,287.5 Z"/></g>
<g><path style="opacity:0.022" fill="#43443f" d="M 348.5,288.5 C 348.369,289.239 348.536,289.906 349,290.5C 349.671,289.748 350.504,289.414 351.5,289.5C 346.167,295.5 340.5,301.167 334.5,306.5C 334.5,304.833 334.5,303.167 334.5,301.5C 339.167,297.167 343.833,292.833 348.5,288.5 Z"/></g>
<g><path style="opacity:0.022" fill="#43443f" d="M 165.5,290.5 C 166.959,290.433 168.292,290.766 169.5,291.5C 113.167,348.5 56.5,405.167 -0.5,461.5C -0.5,459.833 -0.5,458.167 -0.5,456.5C 55.1667,401.5 110.5,346.167 165.5,290.5 Z"/></g>
<g><path style="opacity:0.022" fill="#43443f" d="M 183.5,292.5 C 184.708,293.234 186.041,293.567 187.5,293.5C 125.167,356.5 62.5,419.167 -0.5,481.5C -0.5,479.833 -0.5,478.167 -0.5,476.5C 61.1667,415.5 122.5,354.167 183.5,292.5 Z"/></g>
<g><path style="opacity:0.022" fill="#43443f" d="M 201.5,294.5 C 203.099,294.232 204.432,294.566 205.5,295.5C 137.167,364.5 68.5,433.167 -0.5,501.5C -0.5,499.833 -0.5,498.167 -0.5,496.5C 67.1667,429.5 134.5,362.167 201.5,294.5 Z"/></g>
<g><path style="opacity:0.022" fill="#43443f" d="M 220.5,295.5 C 221.708,296.234 223.041,296.567 224.5,296.5C 153.167,368.167 81.8333,439.833 10.5,511.5C 8.83333,511.5 7.16667,511.5 5.5,511.5C 77.1667,439.5 148.833,367.5 220.5,295.5 Z"/></g>
<g><path style="opacity:0.022" fill="#43443f" d="M 258.5,297.5 C 259.674,298.514 260.34,299.847 260.5,301.5C 190.167,371.167 120.167,441.167 50.5,511.5C 48.8333,511.5 47.1667,511.5 45.5,511.5C 116.5,440.167 187.5,368.833 258.5,297.5 Z"/></g>
<g><path style="opacity:0.022" fill="#43443f" d="M 511.5,305.5 C 511.5,307.167 511.5,308.833 511.5,310.5C 444.167,377.167 377.167,444.167 310.5,511.5C 308.833,511.5 307.167,511.5 305.5,511.5C 373.833,442.5 442.5,373.833 511.5,305.5 Z"/></g>
<g><path style="opacity:0.022" fill="#43443f" d="M 255.5,321.5 C 255.483,323.565 255.15,325.565 254.5,327.5C 192.833,388.5 131.5,449.833 70.5,511.5C 68.8333,511.5 67.1667,511.5 65.5,511.5C 128.5,447.833 191.833,384.5 255.5,321.5 Z"/></g>
<g><path style="opacity:0.022" fill="#43443f" d="M 511.5,325.5 C 511.5,327.167 511.5,328.833 511.5,330.5C 450.833,390.5 390.5,450.833 330.5,511.5C 328.833,511.5 327.167,511.5 325.5,511.5C 387.167,449.167 449.167,387.167 511.5,325.5 Z"/></g>
<g><path style="opacity:0.022" fill="#43443f" d="M 253.5,343.5 C 253.5,345.167 253.5,346.833 253.5,348.5C 198.833,402.5 144.5,456.833 90.5,511.5C 88.8333,511.5 87.1667,511.5 85.5,511.5C 141.167,455.167 197.167,399.167 253.5,343.5 Z"/></g>
<g><path style="opacity:0.022" fill="#43443f" d="M 511.5,345.5 C 511.5,347.167 511.5,348.833 511.5,350.5C 457.5,403.833 403.833,457.5 350.5,511.5C 348.833,511.5 347.167,511.5 345.5,511.5C 400.5,455.833 455.833,400.5 511.5,345.5 Z"/></g>
<g><path style="opacity:0.022" fill="#43443f" d="M 256.5,360.5 C 257.404,361.209 257.737,362.209 257.5,363.5C 208.5,412.833 159.5,462.167 110.5,511.5C 108.833,511.5 107.167,511.5 105.5,511.5C 155.5,460.833 205.833,410.5 256.5,360.5 Z"/></g>
<g><path style="opacity:0.022" fill="#43443f" d="M 511.5,365.5 C 511.5,367.167 511.5,368.833 511.5,370.5C 464.167,417.167 417.167,464.167 370.5,511.5C 368.833,511.5 367.167,511.5 365.5,511.5C 413.833,462.5 462.5,413.833 511.5,365.5 Z"/></g>
<g><path style="opacity:0.022" fill="#43443f" d="M 260.5,376.5 C 260.483,378.565 260.15,380.565 259.5,382.5C 216.167,425.167 173.167,468.167 130.5,511.5C 128.833,511.5 127.167,511.5 125.5,511.5C 170.167,466.167 215.167,421.167 260.5,376.5 Z"/></g>
<g><path style="opacity:0.022" fill="#43443f" d="M 511.5,385.5 C 511.5,387.167 511.5,388.833 511.5,390.5C 470.833,430.5 430.5,470.833 390.5,511.5C 388.833,511.5 387.167,511.5 385.5,511.5C 427.167,469.167 469.167,427.167 511.5,385.5 Z"/></g>
<g><path style="opacity:0.022" fill="#43443f" d="M 257.5,399.5 C 257.606,402.615 256.606,405.281 254.5,407.5C 253.833,407.5 253.5,407.833 253.5,408.5C 218.833,442.5 184.5,476.833 150.5,511.5C 148.833,511.5 147.167,511.5 145.5,511.5C 182.5,473.833 219.833,436.5 257.5,399.5 Z"/></g>
<g><path style="opacity:0.022" fill="#43443f" d="M 511.5,405.5 C 511.5,407.167 511.5,408.833 511.5,410.5C 477.5,443.833 443.833,477.5 410.5,511.5C 408.833,511.5 407.167,511.5 405.5,511.5C 440.5,475.833 475.833,440.5 511.5,405.5 Z"/></g>
<g><path style="opacity:0.022" fill="#43443f" d="M 511.5,425.5 C 511.5,427.167 511.5,428.833 511.5,430.5C 484.167,457.167 457.167,484.167 430.5,511.5C 428.833,511.5 427.167,511.5 425.5,511.5C 453.833,482.5 482.5,453.833 511.5,425.5 Z"/></g>
<g><path style="opacity:0.022" fill="#43443f" d="M 244.5,432.5 C 244.557,433.609 244.89,434.609 245.5,435.5C 220.5,460.833 195.5,486.167 170.5,511.5C 168.833,511.5 167.167,511.5 165.5,511.5C 191.5,484.833 217.833,458.5 244.5,432.5 Z"/></g>
<g><path style="opacity:0.022" fill="#43443f" d="M 253.5,442.5 C 255.027,442.427 256.027,443.094 256.5,444.5C 234.5,466.833 212.5,489.167 190.5,511.5C 188.833,511.5 187.167,511.5 185.5,511.5C 208.167,488.5 230.833,465.5 253.5,442.5 Z"/></g>
<g><path style="opacity:0.022" fill="#43443f" d="M 511.5,445.5 C 511.5,447.167 511.5,448.833 511.5,450.5C 490.833,470.5 470.5,490.833 450.5,511.5C 448.833,511.5 447.167,511.5 445.5,511.5C 467.167,489.167 489.167,467.167 511.5,445.5 Z"/></g>
<g><path style="opacity:0.022" fill="#43443f" d="M 267.5,449.5 C 268.791,449.263 269.791,449.596 270.5,450.5C 250.5,470.833 230.5,491.167 210.5,511.5C 208.833,511.5 207.167,511.5 205.5,511.5C 225.833,490.5 246.5,469.833 267.5,449.5 Z"/></g>
<g><path style="opacity:0.022" fill="#43443f" d="M 282.5,453.5 C 283.708,454.234 285.041,454.567 286.5,454.5C 267.833,473.5 249.167,492.5 230.5,511.5C 228.833,511.5 227.167,511.5 225.5,511.5C 244.5,492.167 263.5,472.833 282.5,453.5 Z"/></g>
<g><path style="opacity:0.022" fill="#43443f" d="M 298.5,457.5 C 300.153,457.66 301.486,458.326 302.5,459.5C 284.833,476.5 267.5,493.833 250.5,511.5C 248.833,511.5 247.167,511.5 245.5,511.5C 263.167,493.5 280.833,475.5 298.5,457.5 Z"/></g>
<g><path style="opacity:0.022" fill="#43443f" d="M 511.5,465.5 C 511.5,467.167 511.5,468.833 511.5,470.5C 497.5,483.833 483.833,497.5 470.5,511.5C 468.833,511.5 467.167,511.5 465.5,511.5C 480.5,495.833 495.833,480.5 511.5,465.5 Z"/></g>
<g><path style="opacity:0.022" fill="#43443f" d="M 511.5,485.5 C 511.5,487.167 511.5,488.833 511.5,490.5C 504.167,497.167 497.167,504.167 490.5,511.5C 488.833,511.5 487.167,511.5 485.5,511.5C 493.833,502.5 502.5,493.833 511.5,485.5 Z"/></g>
<g><path style="opacity:0.022" fill="#43443f" d="M 511.5,505.5 C 511.5,507.167 511.5,508.833 511.5,510.5C 510.833,510.5 510.5,510.833 510.5,511.5C 508.833,511.5 507.167,511.5 505.5,511.5C 507.167,509.167 509.167,507.167 511.5,505.5 Z"/></g>
</svg>
