<svg xmlns="http://www.w3.org/2000/svg" viewBox="0 0 512 512" id="PressConference"><path d="M477.625 279.499a8 8 0 0 0 8-8v-36.75a8 8 0 0 0-8-8h-36.594v-15.53a8 8 0 0 0-2.343-5.657l-29.148-29.148a23.04 23.04 0 0 0 2.146-9.727c0-12.786-10.402-23.188-23.188-23.188s-23.188 10.402-23.188 23.188 10.402 23.188 23.188 23.188c3.473 0 6.767-.773 9.727-2.147l26.805 26.804v12.216H264v-9.629h69.484c8.848 0 16.707-3.851 22.128-10.843 5.422-6.992 7.194-15.562 4.99-24.131-9.367-36.426-36.667-64.444-71.004-75.667 15.08-10.605 24.962-28.125 24.962-47.919C314.561 26.27 288.29 0 256 0s-58.56 26.27-58.56 58.56c0 19.795 9.882 37.315 24.961 47.919-34.336 11.223-61.636 39.241-71.004 75.667-2.204 8.569-.432 17.14 4.99 24.131 5.421 6.992 13.28 10.843 22.128 10.843H248v9.629H86.969v-12.216l26.805-26.804a23.04 23.04 0 0 0 9.727 2.146c12.785 0 23.188-10.402 23.188-23.188S136.285 143.5 123.5 143.5s-23.188 10.402-23.188 23.188c0 3.473.773 6.767 2.147 9.727l-29.148 29.148a8 8 0 0 0-2.343 5.657v15.53H34.375a8 8 0 0 0-8 8v36.75a8 8 0 0 0 8 8h62.5v179.75h-62.5a8 8 0 0 0-8 8V504a8 8 0 0 0 8 8h443.25a8 8 0 0 0 8-8v-36.75a8 8 0 0 0-8-8h-62.5V279.499h62.5zm-89.126-105.624c-3.963 0-7.188-3.224-7.188-7.188s3.225-7.188 7.188-7.188 7.188 3.224 7.188 7.188-3.225 7.188-7.188 7.188zM213.44 58.56C213.44 35.092 232.532 16 256 16s42.561 19.092 42.561 42.56c0 23.464-19.087 42.554-42.55 42.56h-.02c-23.464-.006-42.551-19.096-42.551-42.56zm-34.924 142.56c-3.902 0-7.093-1.563-9.483-4.647-2.392-3.083-3.11-6.563-2.139-10.341 10.448-40.63 47.086-69.007 89.096-69.011h.02c42.011.005 78.649 28.382 89.096 69.011.972 3.779.253 7.258-2.139 10.342-2.391 3.083-5.581 4.647-9.483 4.647H264v-12.668c8.855-3.266 15.188-11.789 15.188-21.764 0-12.786-10.402-23.188-23.188-23.188s-23.188 10.402-23.188 23.188c0 9.975 6.332 18.499 15.188 21.764v12.668h-69.484zm70.297-34.432c0-3.963 3.225-7.188 7.188-7.188s7.188 3.224 7.188 7.188-3.225 7.188-7.188 7.188-7.188-3.225-7.188-7.188zM123.5 159.5c3.963 0 7.188 3.224 7.188 7.188s-3.225 7.188-7.188 7.188-7.188-3.224-7.188-7.188 3.225-7.188 7.188-7.188zm-81.125 83.249h427.25v20.75H42.375v-20.75zM469.625 496H42.375v-20.75h427.25V496zm-70.5-36.75h-286.25V279.499h286.25V459.25zM164.5 412.248h183a8 8 0 0 0 8-8v-73.5a8 8 0 0 0-8-8h-183a8 8 0 0 0-8 8v73.5a8 8 0 0 0 8 8zm8-73.5h167v57.5h-167v-57.5z" fill="#e09f1f" class="color000000 svgShape"></path></svg>