<svg xmlns="http://www.w3.org/2000/svg" enable-background="new 0 0 500 500" viewBox="0 0 500 500" id="secure-folder"><path d="M111.2,392.8h277.7c13.5,0,24.4-11,24.4-24.4V215.2c0-13.5-10.9-24.4-24.4-24.4h-7.3v-59.5c0-13.3-10.8-24.1-24.1-24.1
		H135.7c-13.3,0-24.1,10.8-24.1,24.1v16.5h-0.5c-13.5,0-24.4,10.9-24.4,24.4v196.2C86.8,381.9,97.7,392.8,111.2,392.8z M128.2,131.3
		c0-4.2,3.4-7.6,7.6-7.6h221.7c4.2,0,7.6,3.4,7.6,7.6v59.5h-98c-2.6,0-5-1.3-6.5-3.4l-20.3-29.1c-4.6-6.5-12.1-10.5-20-10.5h-92.2
		V131.3z M103.3,172.2c0-4.4,3.5-7.9,7.9-7.9h0.5h108.7c2.6,0,5,1.3,6.5,3.4l20.3,29.1c4.6,6.6,12.1,10.5,20,10.5h114.5h7.3
		c4.4,0,7.9,3.5,7.9,7.9v153.2c0,4.4-3.5,7.9-7.9,7.9H111.2c-4.4,0-7.9-3.6-7.9-7.9V172.2z"></path><path d="M230.9,290.2l-2.5,34.1c-0.3,3.8,1.1,7.6,3.7,10.4c2.6,2.8,6.3,4.4,10.1,4.4h17.4c3.8,0,7.5-1.6,10.1-4.4
		c2.6-2.8,3.9-6.6,3.7-10.4l-2.5-34.1c7.6-6.1,12-15.2,12-25c0-9.1-3.9-17.8-10.7-23.9c-6.8-6.1-15.9-8.9-25-7.9
		c-14.1,1.6-25.6,12.5-27.9,26.4C217.4,271.4,221.8,283,230.9,290.2z M235.6,262.5c1.1-6.6,6.7-12,13.4-12.7
		c4.5-0.5,8.8,0.9,12.2,3.8c3.3,2.9,5.2,7.2,5.2,11.6c0,4.9-2.2,9.4-6.1,12.3c-4.1,3.1-6.3,7.9-5.9,12.9l2.4,32.1H245l2.4-32.4
		c0.4-4.9-1.8-9.6-5.9-12.6C236.8,274.1,234.6,268.4,235.6,262.5z"></path></svg>