<?xml version="1.0" standalone="no"?>
<!DOCTYPE svg PUBLIC "-//W3C//DTD SVG 20010904//EN"
 "http://www.w3.org/TR/2001/REC-SVG-20010904/DTD/svg10.dtd">
<svg version="1.0" xmlns="http://www.w3.org/2000/svg"
 width="512.000000pt" height="512.000000pt" viewBox="0 0 512.000000 512.000000"
 preserveAspectRatio="xMidYMid meet">

<g transform="translate(0.000000,512.000000) scale(0.100000,-0.100000)"
fill="#000000" stroke="none">
<path d="M752 5090 c-12 -12 -23 -22 -24 -23 -2 -1 -5 -428 -8 -950 l-5 -948
-345 -164 c-190 -91 -351 -173 -357 -182 -10 -13 -13 -301 -13 -1357 0 -1257
1 -1343 18 -1376 9 -19 32 -45 51 -57 l34 -23 742 0 742 0 21 23 c34 36 28 87
-12 110 -16 9 -187 13 -680 17 l-658 5 747 795 c411 437 769 817 795 844 l49
50 329 -157 c300 -143 334 -157 383 -157 49 0 84 15 378 155 178 85 328 155
331 155 4 0 132 -133 285 -295 258 -275 279 -295 311 -295 44 0 74 29 74 73 0
28 -30 64 -261 310 -144 153 -260 279 -258 281 2 2 351 168 774 369 l770 366
3 -594 c1 -327 1 -864 0 -1192 l-3 -597 -413 440 c-226 241 -425 447 -440 457
-54 33 -123 -17 -108 -77 4 -15 184 -215 432 -479 l426 -452 -1515 -5 -1516
-5 -22 -22 c-27 -27 -29 -75 -4 -103 18 -20 27 -20 1615 -20 l1597 0 34 23
c19 12 42 38 51 57 17 33 18 119 18 1376 0 1056 -3 1344 -12 1357 -7 9 -168
91 -358 182 l-345 164 -5 948 c-3 522 -6 949 -8 950 -1 1 -12 11 -24 23 -22
20 -24 20 -1808 20 -1784 0 -1786 0 -1808 -20z m3498 -1364 c0 -977 -3 -1236
-12 -1243 -50 -31 -1562 -744 -1648 -777 l-45 -17 -825 393 c-454 216 -831
397 -837 401 -10 7 -13 266 -13 1243 l0 1234 1690 0 1690 0 0 -1234z m-3530
-946 l0 -220 -29 12 c-87 38 -431 204 -431 209 0 5 438 216 453 218 4 1 7 -98
7 -219z m3919 111 c121 -58 221 -107 221 -110 0 -5 -343 -171 -431 -209 l-29
-12 0 221 c0 124 4 219 9 217 5 -1 108 -50 230 -107z m-3706 -601 c422 -201
766 -368 764 -371 -3 -9 -1538 -1639 -1543 -1639 -2 0 -4 536 -4 1191 0 655 4
1189 9 1187 4 -1 353 -167 774 -368z"/>
<path d="M1427 4642 c-10 -11 -17 -35 -17 -60 0 -33 -5 -44 -22 -53 -109 -56
-140 -205 -59 -286 15 -16 67 -46 114 -67 95 -42 119 -72 101 -124 -21 -60
-94 -65 -169 -11 l-45 33 -28 -21 c-58 -43 -34 -109 54 -150 51 -23 54 -27 54
-61 0 -43 7 -55 37 -71 47 -24 93 19 93 90 0 19 5 29 15 29 8 0 34 19 59 43
34 33 46 53 55 95 26 124 -29 211 -167 265 -89 35 -115 73 -76 111 19 20 63
20 131 2 49 -13 54 -13 78 6 49 38 23 96 -54 119 -36 11 -41 16 -41 41 0 31
-16 68 -34 80 -20 14 -63 8 -79 -10z"/>
<path d="M1930 4463 c-40 -8 -60 -32 -60 -73 0 -25 7 -43 21 -56 20 -18 54
-19 1028 -22 553 -1 1021 0 1039 3 69 12 94 81 46 126 l-26 24 -1011 1 c-557
1 -1023 -1 -1037 -3z"/>
<path d="M1812 4037 c-27 -29 -28 -67 -3 -98 l19 -24 1082 0 1082 0 19 24 c25
30 24 62 -2 95 l-20 26 -1078 0 -1078 0 -21 -23z"/>
<path d="M1115 3635 c-14 -13 -25 -36 -25 -50 0 -14 11 -37 25 -50 l24 -25
1421 0 1421 0 24 25 c32 31 32 69 0 100 l-24 25 -1421 0 -1421 0 -24 -25z"/>
<path d="M3610 3422 c-15 -12 -24 -33 -27 -65 -5 -42 -10 -50 -44 -69 -69 -38
-99 -141 -65 -222 18 -44 66 -81 151 -117 81 -34 95 -49 95 -100 0 -73 -83
-93 -158 -39 -57 41 -86 39 -111 -7 -21 -40 8 -88 73 -120 50 -24 56 -30 56
-59 0 -39 34 -84 64 -84 41 0 66 27 67 73 0 39 4 44 47 72 63 40 92 93 92 168
0 32 -6 72 -14 90 -13 32 -90 107 -109 107 -5 0 -38 14 -74 31 -63 30 -64 31
-61 67 4 52 34 61 129 37 l73 -17 23 26 c13 15 23 34 23 42 0 25 -45 62 -89
74 -39 10 -41 12 -41 50 0 68 -52 101 -100 62z"/>
<path d="M1135 3248 c-48 -28 -57 -70 -24 -112 l20 -26 1079 0 1079 0 20 26
c34 43 24 86 -26 112 -31 17 -2119 16 -2148 0z"/>
<path d="M1112 2827 c-39 -41 -23 -96 32 -117 38 -14 2094 -14 2132 0 56 22
71 80 31 118 l-23 22 -1075 0 -1076 0 -21 -23z"/>
</g>
</svg>
