<svg version="1.1" id="Layer_1" xmlns="http://www.w3.org/2000/svg" xmlns:xlink="http://www.w3.org/1999/xlink" x="0px" y="0px"
	 width="100%" viewBox="0 0 500 500" enable-background="new 0 0 500 500" xml:space="preserve">
<path fill="#000000" opacity="1.000000" stroke="none" 
	d="
M501.000000,171.000000 
	C501.000000,281.333313 501.000000,391.166595 501.000000,500.999939 
	C334.333405,500.999939 167.666794,500.999939 1.000148,500.999969 
	C1.000099,334.333435 1.000099,167.666885 1.000049,1.000238 
	C167.666519,1.000159 334.333038,1.000159 500.999786,1.000079 
	C501.000000,57.500000 501.000000,114.000000 501.000000,171.000000 
M130.956848,158.959518 
	C130.956848,158.959518 130.949768,158.871567 130.430878,159.046204 
	C130.243591,159.348404 130.056305,159.650604 129.950516,159.958435 
	C129.950516,159.958435 129.940674,159.877319 129.423630,160.052200 
	C129.334183,160.364838 129.244751,160.677490 128.878006,161.644287 
	C127.281998,163.422043 125.635735,165.157700 124.102722,166.988220 
	C122.188599,169.273834 119.863892,171.402832 118.640282,174.029755 
	C117.261780,176.989197 116.756882,181.026779 120.445969,182.562057 
	C123.359009,183.774368 126.711372,183.829041 129.216705,179.850098 
	C132.152512,175.187485 136.375580,171.335403 140.690445,166.863220 
	C143.497147,162.929016 146.303848,158.994827 149.030228,155.026520 
	C149.030228,155.026520 149.063538,155.107178 149.687057,154.849213 
	C150.504135,153.579681 151.321198,152.310150 152.678711,150.876709 
	C153.132828,150.298309 153.586960,149.719925 154.658585,148.877625 
	C155.151367,147.932144 155.644150,146.986664 156.710556,145.848648 
	C157.487427,144.946823 158.264297,144.044998 159.667725,142.877838 
	C160.487671,141.599457 161.307602,140.321060 162.591721,138.937729 
	C162.893509,138.757675 163.043259,138.491943 163.562637,137.956223 
	C163.658234,137.639633 163.753830,137.323044 164.121170,136.367004 
	C169.592651,129.899155 175.061203,123.428810 180.537582,116.965103 
	C182.005768,115.232216 185.036591,113.082687 184.694656,111.878342 
	C183.605270,108.041428 186.711777,109.092407 188.750198,107.766487 
	C190.058548,104.373215 191.836243,100.337311 188.127945,98.055885 
	C186.261932,96.907890 182.667862,98.568733 179.396149,99.062912 
	C179.097824,99.242577 178.952301,99.506493 178.445023,100.048592 
	C178.347275,100.363335 178.249512,100.678078 177.906570,101.584038 
	C176.924240,102.674179 175.941910,103.764320 174.440933,105.046265 
	C174.343948,105.362915 174.246948,105.679565 173.905167,106.588821 
	C172.923187,107.682838 171.941193,108.776848 170.450745,110.053169 
	C170.354019,110.361526 170.257309,110.669876 169.889923,111.616913 
	C165.469742,116.703957 161.020309,121.766029 156.646988,126.893051 
	C155.310425,128.459946 154.183014,130.205246 152.319839,132.131821 
	C149.843140,135.401001 147.366440,138.670181 144.970093,141.973694 
	C144.970093,141.973694 144.936523,141.893036 144.313034,142.150818 
	C143.496933,143.420258 142.680832,144.689697 141.401596,146.063873 
	C141.100784,146.244904 140.953293,146.510941 140.341537,147.124405 
	C139.849548,148.069138 139.357559,149.013885 138.324524,150.122375 
	C137.869339,150.701035 137.414169,151.279678 136.331863,152.124878 
	C134.849625,154.062149 133.367371,155.999405 131.962646,157.957718 
	C131.962646,157.957718 131.949081,157.878555 131.429794,158.047546 
	C131.242828,158.349167 131.055862,158.650803 130.956848,158.959518 
M89.426552,78.054062 
	C89.335243,78.366928 89.243942,78.679802 88.861443,79.647194 
	C82.560944,90.057465 76.260445,100.467735 69.448471,111.053780 
	C69.352921,111.362610 69.257378,111.671440 69.001717,112.414894 
	C69.001717,112.414894 68.958801,112.876076 68.315208,113.151001 
	C67.507477,114.747643 66.699745,116.344284 65.971870,117.975853 
	C65.971870,117.975853 65.937561,117.895721 65.324707,118.142670 
	C64.846558,119.075233 64.368408,120.007797 63.970428,120.974579 
	C63.970428,120.974579 63.936703,120.894196 63.295593,121.166245 
	C62.493004,122.757156 61.690418,124.348076 60.968578,125.973183 
	C60.968578,125.973183 60.935051,125.892151 60.293987,126.164482 
	C59.491219,127.755417 58.688454,129.346344 57.967205,130.972244 
	C57.967205,130.972244 57.933022,130.890396 57.292370,131.163498 
	C56.489323,132.753891 55.686279,134.344299 54.966022,135.971634 
	C54.966022,135.971634 54.929966,135.888458 54.318211,136.137848 
	C53.839790,137.070145 53.361370,138.002441 52.965508,138.971237 
	C52.965508,138.971237 52.930294,138.888123 52.336830,139.133957 
	C52.180511,139.744385 52.024189,140.354797 51.223076,141.226898 
	C46.617172,148.858490 42.023857,156.497711 37.400654,164.118805 
	C34.610970,168.717453 31.774839,173.287903 28.302561,178.148911 
	C24.830149,184.078445 21.357735,190.007965 17.962788,195.956177 
	C17.962788,195.956177 17.950886,195.877380 17.434803,196.052475 
	C17.248402,196.353333 17.062000,196.654190 16.954185,196.969025 
	C16.954185,196.969025 16.934399,196.891693 16.298080,197.175095 
	C15.829018,198.430939 15.359956,199.686783 14.970243,200.975800 
	C14.970243,200.975800 14.937854,200.896133 14.273674,201.185303 
	C8.437293,210.075821 8.352404,215.030945 13.954823,221.032364 
	C13.954823,221.032364 13.875507,221.046463 14.054462,221.568161 
	C14.357676,221.760269 14.660888,221.952377 15.069067,222.604904 
	C15.250990,222.902863 15.516461,223.047897 15.991709,223.737488 
	C20.981199,228.538452 25.970692,233.339432 31.206028,238.777481 
	C40.034378,244.275558 48.638962,250.186356 57.765511,255.134415 
	C64.449768,258.758392 71.819511,261.117981 79.214561,264.722961 
	C80.833542,265.340302 82.424103,266.049805 84.076324,266.559357 
	C92.041977,269.015930 100.024223,271.418671 108.704910,274.179016 
	C112.426987,275.132843 116.149071,276.086639 120.247017,277.758362 
	C124.828362,278.667908 129.400345,279.628204 133.993317,280.474670 
	C140.321167,281.640808 146.664886,282.720856 153.810303,284.004028 
	C154.377792,284.287170 154.923004,284.754883 155.516037,284.826477 
	C170.035065,286.579224 184.550064,288.373169 199.086716,289.968781 
	C205.269028,290.647339 211.493668,290.990875 217.708115,291.311798 
	C224.128571,291.643433 230.559387,291.817230 236.987534,291.886078 
	C237.595474,291.892609 238.216721,290.657257 238.985779,289.087830 
	C239.368256,284.406097 239.750748,279.724335 240.048294,275.034821 
	C240.048294,275.034821 240.054611,275.119843 240.569794,274.941742 
	C240.662949,274.628876 240.756088,274.315979 241.007919,273.589081 
	C241.007919,273.589081 241.039337,273.146790 241.554718,272.951660 
	C241.652756,272.636139 241.750793,272.320648 242.007767,271.591064 
	C242.007767,271.591064 242.039490,271.148651 242.556747,270.954041 
	C242.653625,270.637787 242.750519,270.321503 243.003632,269.585297 
	C243.003632,269.585297 243.038132,269.138550 243.623672,268.897064 
	C243.767197,268.299927 243.910706,267.702759 244.539886,266.960724 
	C244.705215,266.681641 244.870560,266.402557 245.653046,265.868530 
	C245.725159,264.434265 245.797287,263.000000 245.743317,261.256683 
	C245.743317,261.256683 245.434341,261.130463 244.971893,260.483368 
	C239.316132,260.379669 233.660385,260.276001 227.537628,260.004822 
	C227.537628,260.004822 227.055679,259.887054 226.613754,259.130280 
	C217.419128,259.140564 208.224503,259.150848 198.593872,258.999268 
	C198.593872,258.999268 198.130615,258.958130 197.876801,258.355194 
	C197.257751,258.288940 196.638687,258.222717 195.221176,258.001617 
	C194.142075,258.054932 193.062973,258.108246 191.504318,258.028320 
	C191.504318,258.028320 191.024780,258.161621 190.176620,258.001160 
	C186.341843,257.435333 182.498642,256.920685 178.674149,256.292236 
	C172.180969,255.225281 165.699966,254.084167 159.213074,252.978775 
	C152.049103,251.758011 144.754959,251.040924 137.745926,249.223541 
	C121.795235,245.087646 105.984306,240.412689 89.774330,235.266495 
	C88.853783,235.009491 87.873802,234.878387 87.021782,234.476212 
	C77.668808,230.061279 68.335762,225.604111 58.354744,220.869644 
	C52.713055,216.269165 47.261513,211.402008 41.346703,207.184570 
	C38.533600,205.178741 37.941536,203.712585 39.647449,200.789169 
	C45.195915,191.280746 50.588825,181.681549 56.693897,171.813766 
	C57.546558,170.295303 58.412212,168.783966 59.249519,167.257095 
	C62.208569,161.861069 65.157921,156.459747 68.030228,151.025665 
	C68.030228,151.025665 68.064766,151.106476 68.607719,150.908691 
	C68.894470,150.221527 69.181221,149.534378 69.762497,148.708389 
	C69.762497,148.708389 69.873154,148.402161 70.348969,148.084000 
	C70.602249,147.408676 70.855530,146.733353 71.031395,146.032791 
	C71.031395,146.032791 71.053505,146.111160 71.566597,145.939041 
	C71.659027,145.628662 71.751457,145.318268 72.003685,144.587097 
	C72.003685,144.587097 72.040215,144.138474 72.655235,143.877777 
	C73.138138,142.936890 73.621048,141.995987 74.027817,141.027863 
	C74.027817,141.027863 74.050781,141.105392 74.565796,140.937912 
	C74.658150,140.627304 74.750504,140.316696 75.003372,139.588303 
	C75.003372,139.588303 75.041824,139.142395 75.658920,138.885712 
	C76.144920,137.945236 76.630920,137.004776 77.038071,136.038712 
	C77.038071,136.038712 77.058640,136.119019 77.577103,135.945816 
	C77.668427,135.632019 77.759758,135.318222 78.004440,134.585938 
	C78.004440,134.585938 78.041809,134.141800 78.561440,133.958359 
	C78.751213,133.654648 78.940979,133.350922 79.050346,133.041656 
	C79.050346,133.041656 79.060387,133.121613 79.577332,132.946320 
	C79.667770,132.633209 79.758217,132.320099 80.143127,131.345016 
	C87.774895,118.270432 95.406662,105.195854 103.691193,91.820641 
	C104.497635,89.900261 105.304070,87.979881 106.030418,86.026176 
	C106.030418,86.026176 106.063248,86.106476 106.704201,85.833862 
	C107.506973,84.242752 108.309746,82.651649 109.031998,81.027328 
	C109.031998,81.027328 109.064568,81.108116 109.715530,80.826172 
	C110.849052,78.571930 111.982567,76.317696 113.037422,74.039764 
	C113.037422,74.039764 113.057068,74.119537 113.570839,73.941483 
	C113.663788,73.629318 113.756744,73.317154 114.008286,72.586983 
	C114.008286,72.586983 114.042435,72.141205 114.660789,71.879654 
	C115.155258,70.934044 115.649719,69.988434 116.683235,68.875854 
	C117.136284,68.297348 117.589333,67.718842 118.895439,67.012169 
	C121.790100,66.674957 124.684570,66.045059 127.579453,66.043159 
	C208.482849,65.990097 289.386292,65.982185 370.289673,66.049232 
	C374.846161,66.053009 379.402100,66.759529 384.122742,67.678993 
	C384.700439,68.133636 385.278168,68.588280 385.985504,69.695992 
	C386.634552,70.500755 387.283600,71.305519 387.958313,72.030853 
	C387.958313,72.030853 387.878387,72.055038 387.987000,72.690109 
	C388.309570,73.166748 388.632141,73.643387 388.993439,74.738495 
	C389.305725,75.195450 389.618011,75.652412 389.969360,76.025795 
	C389.969360,76.025795 389.886169,76.065681 389.989319,76.718681 
	C390.639160,77.513229 391.288971,78.307777 391.972595,79.021950 
	C391.972595,79.021950 391.893646,79.058983 392.000854,79.779266 
	C393.312347,81.888458 394.623840,83.997643 395.970917,86.025543 
	C395.970917,86.025543 395.889893,86.061775 395.995880,86.796181 
	C398.316895,90.571579 400.637909,94.346977 403.002991,98.579514 
	C403.002991,98.579514 403.161621,99.010506 403.071960,99.549568 
	C403.369019,99.741714 403.666077,99.933853 403.994263,100.851448 
	C405.064636,102.784409 406.086212,104.746361 407.213928,106.645264 
	C411.844177,114.441772 416.506775,122.219070 421.052734,130.541504 
	C421.349060,130.735550 421.645355,130.929581 421.951721,131.044388 
	C421.951721,131.044388 421.872040,131.050064 422.049225,131.572998 
	C422.353516,131.763153 422.657806,131.953308 422.997314,132.583939 
	C422.997314,132.583939 423.150116,132.998566 423.057556,133.548141 
	C423.358856,133.747147 423.660156,133.946136 423.996063,134.584152 
	C423.996063,134.584152 424.149170,134.997101 424.051453,135.538620 
	C424.348938,135.732605 424.646393,135.926590 424.962646,136.040726 
	C424.962646,136.040726 424.884094,136.064468 424.990936,136.723679 
	C425.647064,137.527832 426.303192,138.331970 427.001923,139.581573 
	C427.001923,139.581573 427.160217,140.000153 427.063141,140.537369 
	C427.359314,140.727951 427.655487,140.918549 427.971680,141.031769 
	C427.971680,141.031769 427.895538,141.056030 427.998047,141.716675 
	C428.651398,142.526382 429.304749,143.336105 429.992615,144.581192 
	C429.992615,144.581192 430.150665,144.988342 430.137268,145.647415 
	C430.744232,146.479141 431.351196,147.310867 432.127411,148.685455 
	C432.469391,149.124008 432.811401,149.562561 433.061798,150.538513 
	C433.356689,150.731323 433.651550,150.924133 433.966644,151.037994 
	C433.966644,151.037994 433.888641,151.061615 433.997009,151.792847 
	C437.984192,158.234665 441.971375,164.676483 445.996552,171.847427 
	C451.314270,181.149017 456.741486,190.391388 461.836548,199.813354 
	C462.640259,201.299561 462.724518,204.227707 461.783752,205.396362 
	C459.460052,208.283173 456.480164,210.705368 453.522278,213.003189 
	C449.110352,216.430542 444.490601,219.590469 439.219879,222.989456 
	C430.109436,227.311646 420.999023,231.633850 411.117920,235.999283 
	C409.777374,236.475067 408.453369,237.005432 407.093719,237.418289 
	C390.724060,242.388809 374.712372,248.691788 357.400238,250.087006 
	C353.206390,250.424988 349.104614,251.904739 344.146637,253.002350 
	C344.096436,254.956772 344.161957,256.922394 343.974182,258.863495 
	C343.420654,264.584839 342.766785,270.296448 341.996826,276.643311 
	C341.959229,277.074493 341.921600,277.505646 341.167694,278.327148 
	C341.167694,280.696869 341.167694,283.066589 341.167694,286.013794 
	C344.047943,285.217682 346.054413,284.663116 348.536316,283.997406 
	C348.536316,283.997406 348.997955,283.838501 349.840790,283.994019 
	C351.906555,283.664551 353.996185,283.441925 356.033966,282.987030 
	C364.739655,281.043671 373.429993,279.031677 382.946899,277.020538 
	C387.645233,275.725922 392.343536,274.431305 397.853149,273.011108 
	C404.604004,270.688873 411.354828,268.366638 418.882141,266.008423 
	C431.752289,260.012054 444.755157,254.278763 457.425934,247.887177 
	C462.349762,245.403381 466.523956,241.433517 471.681946,237.862503 
	C477.159637,232.263199 482.637360,226.663879 488.036530,221.039810 
	C488.036530,221.039810 488.056152,221.119751 488.570526,220.942764 
	C488.663025,220.630707 488.755524,220.318649 489.005524,219.587311 
	C489.005524,219.587311 489.040863,219.140808 489.737183,218.812714 
	C492.854553,214.112976 492.971771,209.118500 490.004059,205.416672 
	C490.004059,205.416672 489.846649,204.999054 489.940582,204.460342 
	C489.644867,204.266449 489.349121,204.072556 489.036957,203.957779 
	C489.036957,203.957779 489.115051,203.936966 489.010315,203.239777 
	C488.028015,201.790970 487.045715,200.342163 486.030945,198.975464 
	C486.030945,198.975464 486.110626,198.937485 486.007996,198.284500 
	C485.360443,197.486984 484.712860,196.689484 484.030365,195.973419 
	C484.030365,195.973419 484.111511,195.937836 484.005676,195.203491 
	C480.017090,188.759842 476.028503,182.316177 472.008759,175.150116 
	C465.678864,165.095184 459.337097,155.047699 453.023499,144.982544 
	C449.270172,138.998978 445.561249,132.987595 441.931122,126.457840 
	C441.638214,126.268097 441.345337,126.078346 441.028381,125.967087 
	C441.028381,125.967087 441.105957,125.940201 441.005005,125.242859 
	C440.024902,123.793175 439.044830,122.343491 438.028320,120.975174 
	C438.028320,120.975174 438.109406,120.938133 438.006287,120.241295 
	C437.024567,118.793564 436.042877,117.345825 435.025177,115.978287 
	C435.025177,115.978287 435.104645,115.940674 435.001617,115.222786 
	C433.348145,112.774673 431.694702,110.326569 430.005707,107.151230 
	C427.612274,103.200340 425.256165,99.226250 422.817383,95.303528 
	C418.185944,87.853851 413.507172,80.433586 408.943176,72.461166 
	C408.646729,72.267250 408.350311,72.073334 408.037231,71.958481 
	C408.037231,71.958481 408.115356,71.937843 408.007538,71.284485 
	C407.360321,70.485992 406.713074,69.687492 406.034882,68.970253 
	C406.034882,68.970253 406.115662,68.938126 406.008209,68.372330 
	C405.626953,67.775841 405.245728,67.179359 404.747589,66.281082 
	C404.747589,66.281082 404.452026,66.149193 404.121826,65.668236 
	C403.760834,65.065300 403.399872,64.462364 403.005402,63.415260 
	C403.005402,63.415260 402.845459,62.999538 402.931274,62.453636 
	C402.632874,62.254501 402.334503,62.055367 401.869354,61.312450 
	C401.527496,60.873562 401.185669,60.434673 400.928894,59.452049 
	C400.631287,59.254379 400.333679,59.056709 399.933044,58.396919 
	C399.751373,58.097420 399.485413,57.951771 399.008728,57.261356 
	C397.019196,55.458172 395.029694,53.654984 392.716187,51.175892 
	C389.846130,50.436489 386.976105,49.697086 383.671844,48.186882 
	C382.844604,48.125355 382.017395,48.010033 381.190155,48.009941 
	C294.423859,48.000416 207.657547,47.995197 120.891258,48.038376 
	C119.546318,48.039051 118.201668,48.642799 116.088814,48.973919 
	C113.379730,50.270996 110.670654,51.568069 107.263428,52.992172 
	C105.807152,54.642288 104.350876,56.292408 102.973740,57.976379 
	C102.973740,57.976379 102.939827,57.897259 102.325058,58.148834 
	C101.837883,59.085953 101.350708,60.023071 100.401207,61.063499 
	C100.100601,61.243866 99.953751,61.509296 99.446518,62.050282 
	C99.348801,62.364025 99.251083,62.677773 98.993408,63.409912 
	C98.993408,63.409912 98.959862,63.856586 98.345764,64.119827 
	C97.859001,65.059616 97.372238,65.999413 96.963707,66.961281 
	C96.963707,66.961281 96.944626,66.882263 96.432693,67.059311 
	C96.339600,67.369987 96.246506,67.680664 95.993668,68.409081 
	C95.993668,68.409081 95.959816,68.855042 95.344406,69.116333 
	C94.857574,70.057037 94.370743,70.997742 93.962173,71.960838 
	C93.962173,71.960838 93.943954,71.881516 93.427971,72.056419 
	C93.335793,72.369003 93.243614,72.681580 92.995033,73.412590 
	C92.995033,73.412590 92.960152,73.857925 92.441162,74.044830 
	C92.250763,74.348785 92.060364,74.652733 91.953209,74.961678 
	C91.953209,74.961678 91.943718,74.878838 91.427696,75.055412 
	C91.335854,75.368164 91.244011,75.680908 90.996582,76.413788 
	C90.996582,76.413788 90.960091,76.860321 90.439751,77.043884 
	C90.249550,77.348030 90.059357,77.652168 89.952797,77.961311 
	C89.952797,77.961311 89.943199,77.878075 89.426552,78.054062 
M263.955780,255.965363 
	C263.955780,255.965363 263.930969,255.886642 263.264832,256.188873 
	C262.132904,259.114197 261.000946,262.039520 259.193115,265.294189 
	C258.221313,267.632477 257.306763,269.996521 256.266998,272.304199 
	C253.101868,279.329071 248.543396,286.166748 254.405746,294.047760 
	C255.159332,295.060822 255.191208,296.972412 254.910828,298.334656 
	C252.982330,307.704468 250.211380,316.774048 249.427597,326.533112 
	C248.667709,335.994934 249.109528,344.763550 252.049515,353.675110 
	C253.725403,358.754974 255.548355,364.078339 255.625687,369.316864 
	C255.714935,375.362213 253.919632,381.429596 253.013138,387.497925 
	C252.580719,390.392548 252.978455,393.608765 251.840591,396.162689 
	C248.660034,403.301361 244.959412,410.215485 241.295898,417.129150 
	C239.149948,421.178925 238.841965,424.910797 242.592194,428.054169 
	C245.557037,430.539185 248.775635,432.721497 252.193649,435.706879 
	C259.463379,438.418396 266.733063,441.129913 274.712433,444.188141 
	C278.762878,445.138947 282.813354,446.089752 287.246124,447.761902 
	C290.501373,448.455566 293.756592,449.149231 297.422394,450.004730 
	C297.422394,450.004730 297.862244,450.040802 298.211151,450.730469 
	C302.503296,451.511230 306.795471,452.291992 311.003784,453.025360 
	C311.003784,453.025360 311.057129,453.105530 311.803955,453.005249 
	C312.549896,452.265167 313.768738,451.633911 313.967987,450.768005 
	C315.781769,442.886566 317.417877,434.964172 319.026672,427.007965 
	C319.026672,427.007965 319.068909,427.089142 319.797607,426.696716 
	C321.665039,416.521851 323.847504,406.391907 325.306366,396.158783 
	C326.619202,386.950012 327.613800,377.636505 327.777832,368.352051 
	C327.845062,364.546265 325.363068,360.695496 323.875977,356.319672 
	C323.533234,355.879852 323.190460,355.440033 322.932922,354.452667 
	C322.634125,354.251862 322.335327,354.051056 322.007690,353.417938 
	C322.007690,353.417938 321.849152,353.014679 321.989471,352.317902 
	C321.942169,350.875153 321.894867,349.432404 322.005615,347.579895 
	C322.005615,347.579895 322.039703,347.142059 322.555725,346.951904 
	C322.652832,346.637238 322.749969,346.322571 323.004883,345.583740 
	C323.004883,345.583740 323.040619,345.132629 323.662567,344.865631 
	C324.053833,343.909027 324.445099,342.952454 325.138885,341.340393 
	C325.462891,340.245087 325.786926,339.149811 326.757294,337.767334 
	C326.787048,336.842041 326.816803,335.916779 327.000580,334.358032 
	C327.039520,333.925934 327.078461,333.493866 327.837708,332.667969 
	C328.159882,330.951508 328.693634,329.243744 328.764557,327.516968 
	C328.977478,322.331970 329.009796,317.139526 329.018066,311.294891 
	C328.959747,310.859894 328.901459,310.424866 328.991547,309.063721 
	C328.995880,305.953613 329.110992,302.838806 328.978485,299.734528 
	C328.781860,295.130341 328.409790,290.533661 328.020020,285.291016 
	C327.962433,284.864319 327.904846,284.437622 327.995544,283.160553 
	C327.943085,281.439728 327.890656,279.718903 327.998718,277.391693 
	C328.013000,276.973785 328.027313,276.555878 328.766357,275.759247 
	C329.456543,271.175446 330.146729,266.591644 330.997589,261.198486 
	C330.181274,253.707397 328.710175,251.730225 321.281830,251.175140 
	C317.156738,250.866898 314.411865,253.985809 312.271332,258.217834 
	C310.478455,265.460480 308.685547,272.703094 306.971039,279.978790 
	C306.971039,279.978790 306.938904,279.900024 306.197144,280.309814 
	C305.794586,284.658752 305.651062,289.053467 304.892975,293.339539 
	C304.433136,295.939453 303.022736,298.371277 302.006653,300.087799 
	C300.671234,296.544495 299.384979,292.981781 297.991516,289.461456 
	C293.179871,277.305450 288.377563,265.145386 283.478729,253.024445 
	C280.524628,245.715210 278.259399,245.202972 271.450134,250.074554 
	C271.254272,250.371140 271.058411,250.667725 270.422363,250.995087 
	C270.422363,250.995087 270.008575,251.148376 269.454712,251.055481 
	C269.252747,251.358353 269.050751,251.661240 268.254028,252.182159 
	C267.172516,253.170700 266.091003,254.159241 264.464844,255.051025 
	C264.268402,255.349503 264.071930,255.647964 263.955780,255.965363 
M150.960983,90.964386 
	C150.960983,90.964386 150.936356,90.886360 150.224625,90.993637 
	C148.438065,93.315567 146.651489,95.637505 144.323410,98.123566 
	C143.868973,98.703323 143.414551,99.283073 142.447556,100.050873 
	C142.350357,100.363052 142.253143,100.675224 141.911728,101.580650 
	C140.927689,102.673698 139.943634,103.766754 138.445709,105.049454 
	C138.348389,105.362801 138.251068,105.676147 137.899734,106.595978 
	C136.585938,108.016647 135.272141,109.437309 133.338242,111.116776 
	C132.850708,112.063538 132.363174,113.010300 131.332581,114.120888 
	C130.874802,114.701180 130.417007,115.281471 129.436783,116.042999 
	C129.342300,116.359161 129.247833,116.675331 128.885941,117.630707 
	C126.556297,120.085754 124.109070,122.441208 121.925171,125.019707 
	C118.816612,128.689926 115.606773,132.333160 113.004234,136.353088 
	C111.180351,139.170288 110.607498,143.016617 113.865013,145.149628 
	C116.871613,147.118332 120.130104,146.676315 122.559563,143.079636 
	C124.558418,140.120453 127.279335,137.657379 129.586761,134.896317 
	C133.113586,130.676132 136.559906,126.388687 140.680435,121.867363 
	C143.156738,118.598358 145.633026,115.329346 148.029083,112.025604 
	C148.029083,112.025604 148.063141,112.106148 148.686859,111.848656 
	C149.503342,110.579430 150.319824,109.310204 151.599274,107.935997 
	C151.899902,107.754814 152.047195,107.488739 152.645111,106.885918 
	C153.711212,105.587379 154.777313,104.288841 155.996719,102.569977 
	C155.996719,102.569977 156.037323,102.124420 156.703949,101.837402 
	C160.959671,97.544952 161.237671,95.467529 157.937393,91.396637 
	C157.758530,91.099030 157.495514,90.953377 156.802338,90.274986 
	C155.544434,90.237915 154.286514,90.200836 152.513824,90.022125 
	C152.341568,90.066917 152.169327,90.111702 151.458191,90.054054 
	C151.265900,90.351257 151.073624,90.648468 150.960983,90.964386 
M402.667084,172.173325 
	C394.570740,172.116699 386.474091,172.001007 378.378357,172.048508 
	C376.550110,172.059235 374.725220,172.638077 372.427521,173.008667 
	C372.427521,173.008667 371.979828,173.165161 371.056335,173.010437 
	C353.499573,173.008499 335.942688,172.983185 318.386169,173.046249 
	C316.883850,173.051636 315.383606,173.644348 313.427582,173.999191 
	C313.427582,173.999191 312.999786,174.157547 312.071198,174.009979 
	C293.515228,174.008682 274.959198,173.985794 256.403412,174.046478 
	C254.897018,174.051407 253.392471,174.628220 251.968185,174.959610 
	C251.968185,174.959610 251.937805,174.881714 251.012848,174.984756 
	C233.053482,174.989334 215.093781,174.935654 197.135040,175.044312 
	C193.226898,175.067947 189.280548,175.448792 185.444504,176.163101 
	C184.449753,176.348328 183.128204,178.402573 183.106400,179.618927 
	C182.921707,189.925598 182.960999,200.237579 183.090500,210.545990 
	C183.100189,211.315842 184.327530,212.070419 185.916153,212.987122 
	C217.858643,212.987122 249.801132,212.987122 281.995026,212.987122 
	C281.995026,218.349243 281.810944,224.154144 282.126740,229.931732 
	C282.204010,231.344879 283.622253,233.328751 284.932434,233.916183 
	C289.928558,236.156296 294.152954,238.563599 295.144684,244.796005 
	C295.649902,247.970886 297.759308,250.890503 299.437653,254.570267 
	C301.519653,251.445251 303.284454,248.796341 305.719635,245.821198 
	C309.235992,242.215408 309.013519,237.722717 309.073273,233.126740 
	C309.169037,225.761398 309.740601,218.402222 310.969147,211.002731 
	C319.650208,211.334122 328.330627,211.902237 337.012482,211.924286 
	C344.364441,211.942963 351.716766,211.300446 359.071106,211.003952 
	C368.098145,210.640030 377.125824,210.272659 386.156372,210.020111 
	C392.105225,209.853775 398.059662,209.887436 404.880737,209.968964 
	C405.250122,209.537018 405.950684,209.097183 405.940643,208.674286 
	C405.669464,197.278610 405.351959,185.883636 404.913696,174.493500 
	C404.892212,173.934311 403.707886,173.419861 403.028076,172.962219 
	C403.028076,172.962219 403.110840,172.938934 402.667084,172.173325 
z"/>
<path fill="#D7F6FF" opacity="1.000000" stroke="none" 
	d="
M75.041824,139.142395 
	C75.041824,139.142395 75.003372,139.588303 74.734428,139.934204 
	C74.251923,140.517334 74.113686,140.792435 74.050781,141.105392 
	C74.050781,141.105392 74.027817,141.027863 73.707863,141.088242 
	C72.938675,142.145233 72.489449,143.141861 72.040215,144.138474 
	C72.040215,144.138474 72.003685,144.587097 71.735138,144.935150 
	C71.253578,145.521622 71.115883,145.797607 71.053505,146.111160 
	C71.053505,146.111160 71.031395,146.032791 70.715714,146.098572 
	C70.224411,146.910278 70.048782,147.656219 69.873154,148.402161 
	C69.873154,148.402161 69.762497,148.708389 69.293678,148.712189 
	C68.571495,149.512833 68.318130,150.309647 68.064766,151.106476 
	C68.064766,151.106476 68.030228,151.025665 67.721512,151.076767 
	C64.965714,154.715302 62.243835,158.151184 60.156162,161.936813 
	C58.401325,165.118912 57.384926,168.708252 56.041611,172.117294 
	C50.588825,181.681549 45.195915,191.280746 39.647449,200.789169 
	C37.941536,203.712585 38.533600,205.178741 41.346703,207.184570 
	C47.261513,211.402008 52.713055,216.269165 58.724510,221.353455 
	C59.793331,222.731506 60.303883,224.015167 61.220928,224.459122 
	C69.403168,228.420120 77.626907,232.300552 85.924667,236.011856 
	C87.082214,236.529572 88.707710,236.001022 90.116577,235.956802 
	C105.984306,240.412689 121.795235,245.087646 137.745926,249.223541 
	C144.754959,251.040924 152.049103,251.758011 159.213074,252.978775 
	C165.699966,254.084167 172.180969,255.225281 178.674149,256.292236 
	C182.498642,256.920685 186.341843,257.435333 190.694397,258.215698 
	C191.212173,258.430206 191.649918,258.500244 191.649918,258.500244 
	C191.649918,258.500244 191.983871,258.161560 191.983871,258.161560 
	C193.062973,258.108246 194.142075,258.054932 195.823364,258.294312 
	C196.993912,258.710724 197.562256,258.834412 198.130615,258.958130 
	C198.130615,258.958130 198.593872,258.999268 199.130280,259.327515 
	C203.596970,260.094025 207.527603,260.887054 211.457428,260.882965 
	C216.657181,260.877502 221.856293,260.248230 227.055679,259.887054 
	C227.055679,259.887054 227.537628,260.004822 227.888870,260.464844 
	C233.971527,260.993378 239.702927,261.061920 245.434341,261.130463 
	C245.434341,261.130463 245.743317,261.256683 245.580475,261.824768 
	C245.290390,263.636414 245.163147,264.879944 245.035889,266.123474 
	C244.870560,266.402557 244.705215,266.681641 244.095032,266.888428 
	C243.446152,267.590271 243.242142,268.364410 243.038132,269.138550 
	C243.038132,269.138550 243.003632,269.585297 242.731689,269.938232 
	C242.245728,270.540741 242.105637,270.826569 242.039490,271.148651 
	C242.039490,271.148651 242.007767,271.591064 241.735016,271.941284 
	C241.248917,272.540802 241.107941,272.825897 241.039337,273.146790 
	C241.039337,273.146790 241.007919,273.589081 240.737762,273.934845 
	C240.255920,274.523926 240.118256,274.803680 240.054611,275.119843 
	C240.054611,275.119843 240.048294,275.034821 239.747009,275.190247 
	C236.217178,280.533203 235.956619,286.751801 238.831772,289.998474 
	C238.216721,290.657257 237.595474,291.892609 236.987534,291.886078 
	C230.559387,291.817230 224.128571,291.643433 217.708115,291.311798 
	C211.493668,290.990875 205.269028,290.647339 199.086716,289.968781 
	C184.550064,288.373169 170.035065,286.579224 155.516037,284.826477 
	C154.923004,284.754883 154.377792,284.287170 153.307159,283.563843 
	C145.163956,281.403168 137.548630,279.559357 129.872192,278.020355 
	C126.604362,277.365265 123.208710,277.347748 119.871147,277.040466 
	C116.149071,276.086639 112.426987,275.132843 108.283379,273.681915 
	C98.202477,270.136902 88.543098,267.089020 78.883728,264.041107 
	C71.819511,261.117981 64.449768,258.758392 57.765511,255.134415 
	C48.638962,250.186356 40.034378,244.275558 31.061480,238.105499 
	C25.899782,232.635681 20.882633,227.837845 15.865482,223.040009 
	C15.516461,223.047897 15.250990,222.902863 14.902263,222.132263 
	C14.448805,221.455231 14.162151,221.250854 13.875504,221.046478 
	C13.875507,221.046463 13.954823,221.032364 13.958081,220.668640 
	C11.793168,214.724899 10.741915,209.211960 14.495553,203.781342 
	C14.993052,203.061569 14.807223,201.869476 14.937855,200.896133 
	C14.937854,200.896133 14.970243,200.975800 15.300219,200.906509 
	C16.064930,199.522049 16.499668,198.206863 16.934402,196.891693 
	C16.934399,196.891693 16.954185,196.969025 17.154026,196.849014 
	C17.552874,196.445129 17.751877,196.161255 17.950884,195.877380 
	C17.950886,195.877380 17.962788,195.956177 18.271940,195.915497 
	C22.040586,189.873550 25.500080,183.872284 28.959576,177.871033 
	C31.774839,173.287903 34.610970,168.717453 37.400654,164.118805 
	C42.023857,156.497711 46.617172,148.858490 51.812515,140.931091 
	C52.578072,140.052902 52.754185,139.470505 52.930298,138.888123 
	C52.930294,138.888123 52.965508,138.971237 53.282257,138.914490 
	C54.042664,137.867981 54.486317,136.878220 54.929966,135.888458 
	C54.929966,135.888458 54.966022,135.971634 55.284729,135.916916 
	C56.379959,134.204926 57.156490,132.547668 57.933022,130.890396 
	C57.933022,130.890396 57.967205,130.972244 58.286346,130.917297 
	C59.382004,129.205627 60.158524,127.548889 60.935051,125.892151 
	C60.935051,125.892151 60.968578,125.973183 61.287525,125.916977 
	C62.383217,124.205254 63.159962,122.549721 63.936707,120.894196 
	C63.936703,120.894196 63.970428,120.974579 64.286789,120.915619 
	C65.047958,119.869682 65.492760,118.882706 65.937561,117.895721 
	C65.937561,117.895721 65.971870,117.975853 66.291489,117.916946 
	C67.393677,116.197388 68.176239,114.536736 68.958801,112.876076 
	C68.958801,112.876076 69.001717,112.414894 69.269699,112.058899 
	C69.748100,111.463615 69.888863,111.188652 69.959946,110.878014 
	C76.260445,100.467735 82.560944,90.057465 89.198196,79.182365 
	C89.747330,78.474823 89.883408,78.195007 89.943199,77.878075 
	C89.943199,77.878075 89.952797,77.961311 90.153961,77.843803 
	C90.556770,77.437637 90.758430,77.148979 90.960091,76.860321 
	C90.960091,76.860321 90.996582,76.413788 91.265472,76.065933 
	C91.746918,75.475456 91.883377,75.195709 91.943718,74.878838 
	C91.943718,74.878838 91.953209,74.961678 92.154465,74.843552 
	C92.557198,74.436256 92.758675,74.147087 92.960152,73.857925 
	C92.960152,73.857925 92.995033,73.412590 93.264221,73.065781 
	C93.746376,72.477150 93.883224,72.197990 93.943954,71.881516 
	C93.943954,71.881516 93.962173,71.960838 94.282791,71.906860 
	C95.055534,70.853607 95.507675,69.854324 95.959816,68.855042 
	C95.959816,68.855042 95.993668,68.409081 96.263123,68.062256 
	C96.744133,67.474419 96.881485,67.196693 96.944626,66.882263 
	C96.944626,66.882263 96.963707,66.961281 97.284607,66.908615 
	C98.056961,65.856155 98.508415,64.856369 98.959862,63.856586 
	C98.959862,63.856586 98.993408,63.409912 99.265236,63.058525 
	C99.749489,62.460300 99.890678,62.177853 99.960648,61.859791 
	C99.953751,61.509296 100.100601,61.243866 100.990784,60.966240 
	C102.033516,59.878407 102.486671,58.887833 102.939835,57.897263 
	C102.939827,57.897259 102.973740,57.976379 103.287720,57.940132 
	C105.054993,56.224308 106.508286,54.544727 107.961578,52.865150 
	C110.670654,51.568069 113.379730,50.270996 116.951065,48.981346 
	C206.577560,48.978405 295.341797,48.968044 384.106049,48.957687 
	C386.976105,49.697086 389.846130,50.436489 392.898590,51.869743 
	C395.099060,54.362385 397.117126,56.161182 399.135193,57.959976 
	C399.485413,57.951771 399.751373,58.097420 400.066162,58.852760 
	C400.337036,59.609947 400.551910,59.839008 400.843842,59.995781 
	C401.185669,60.434673 401.527496,60.873562 402.033844,61.810493 
	C402.336395,62.611599 402.552094,62.841930 402.845459,62.999538 
	C402.845459,62.999538 403.005402,63.415260 403.016541,63.986057 
	C403.502472,65.087631 403.977264,65.618408 404.452026,66.149185 
	C404.452026,66.149193 404.747589,66.281082 404.628815,66.742798 
	C405.045258,67.782387 405.580475,68.360252 406.115662,68.938118 
	C406.115662,68.938126 406.034882,68.970253 406.036469,69.295609 
	C406.730499,70.393250 407.422943,71.165543 408.115356,71.937836 
	C408.115356,71.937843 408.037231,71.958481 408.120972,72.143295 
	C408.340393,72.627724 408.554840,72.852058 408.848053,73.001114 
	C413.507172,80.433586 418.185944,87.853851 422.817383,95.303528 
	C425.256165,99.226250 427.612274,103.200340 430.017792,107.898392 
	C431.721466,111.077263 433.413055,113.508965 435.104645,115.940674 
	C435.104645,115.940674 435.025177,115.978287 435.031891,116.314682 
	C436.062195,118.080093 437.085785,119.509117 438.109406,120.938141 
	C438.109406,120.938133 438.028320,120.975174 438.033569,121.311096 
	C439.061188,123.078079 440.083557,124.509140 441.105957,125.940201 
	C441.105957,125.940201 441.028381,125.967087 441.115173,126.147324 
	C441.338928,126.617706 441.549042,126.838089 441.832367,126.988708 
	C445.561249,132.987595 449.270172,138.998978 453.023499,144.982544 
	C459.337097,155.047699 465.678864,165.095184 472.012695,175.909546 
	C474.337555,181.256241 476.470825,185.953247 479.061035,190.383041 
	C480.296783,192.496445 482.400818,194.102158 484.111511,195.937836 
	C484.111511,195.937836 484.030365,195.973419 484.035095,196.298477 
	C484.730072,197.394852 485.420349,198.166168 486.110626,198.937485 
	C486.110626,198.937485 486.030945,198.975464 486.031921,199.311432 
	C487.060242,201.077255 488.087646,202.507111 489.115051,203.936981 
	C489.115051,203.936966 489.036957,203.957779 489.121063,204.142044 
	C489.340820,204.625092 489.554657,204.849335 489.846649,204.999054 
	C489.846649,204.999054 490.004059,205.416672 490.009521,206.102005 
	C489.690277,210.905167 489.365570,215.022980 489.040833,219.140808 
	C489.040863,219.140808 489.005524,219.587311 488.736115,219.934860 
	C488.253998,220.524307 488.117126,220.803421 488.056152,221.119751 
	C488.056152,221.119751 488.036530,221.039810 487.723938,221.065643 
	C484.149139,224.021790 480.727631,226.796936 477.675049,229.931396 
	C475.230713,232.441315 473.234650,235.387817 471.039612,238.140564 
	C466.523956,241.433517 462.349762,245.403381 457.425934,247.887177 
	C444.755157,254.278763 431.752289,260.012054 418.166321,265.890198 
	C410.711487,267.904999 403.970673,270.032623 397.244476,272.205353 
	C397.092529,272.254425 397.105713,272.814789 397.041870,273.136658 
	C392.343536,274.431305 387.645233,275.725922 382.187134,276.885956 
	C380.802734,276.553345 380.123596,276.084473 379.561462,276.197510 
	C369.715637,278.177277 359.880524,280.211365 350.061340,282.318817 
	C349.618561,282.413879 349.348480,283.313568 348.997955,283.838501 
	C348.997955,283.838501 348.536316,283.997406 348.043945,283.769257 
	C343.497253,283.862610 343.195648,280.388977 341.884003,277.936829 
	C341.921600,277.505646 341.959229,277.074493 342.432495,276.227417 
	C345.872894,268.371155 347.005951,260.760162 344.960480,252.859467 
	C349.104614,251.904739 353.206390,250.424988 357.400238,250.087006 
	C374.712372,248.691788 390.724060,242.388809 407.093719,237.418289 
	C408.453369,237.005432 409.777374,236.475067 411.825592,236.111038 
	C413.164917,236.368240 413.933746,236.823135 414.407806,236.613037 
	C422.276123,233.125809 430.137299,229.617996 437.908569,225.922302 
	C438.861420,225.469162 439.288513,223.910507 439.959259,222.864166 
	C444.490601,219.590469 449.110352,216.430542 453.522278,213.003189 
	C456.480164,210.705368 459.460052,208.283173 461.783752,205.396362 
	C462.724518,204.227707 462.640259,201.299561 461.836548,199.813354 
	C456.741486,190.391388 451.314270,181.149017 445.981750,171.099762 
	C442.936920,164.683990 439.972961,158.978577 436.815735,153.382202 
	C436.249115,152.377884 434.884705,151.823654 433.888641,151.061615 
	C433.888641,151.061615 433.966644,151.037994 433.880676,150.854507 
	C433.656921,150.374985 433.443146,150.151672 433.153412,150.001099 
	C432.811401,149.562561 432.469391,149.124008 432.052460,148.061371 
	C431.368561,146.620987 430.759613,145.804672 430.150665,144.988342 
	C430.150665,144.988342 429.992615,144.581192 429.982849,143.994812 
	C429.280548,142.624298 428.588043,141.840164 427.895538,141.056030 
	C427.895538,141.056030 427.971680,141.031769 427.885071,140.849091 
	C427.660583,140.372635 427.447815,140.150543 427.160217,140.000153 
	C427.160217,140.000153 427.001923,139.581573 426.987366,138.990723 
	C426.276550,137.621399 425.580322,136.842941 424.884094,136.064468 
	C424.884094,136.064468 424.962646,136.040726 424.879456,135.855240 
	C424.659058,135.370026 424.443359,135.145813 424.149170,134.997101 
	C424.149170,134.997101 423.996063,134.584152 423.900330,134.136322 
	C423.665405,133.383575 423.447266,133.153595 423.150116,132.998566 
	C423.150116,132.998566 422.997314,132.583939 422.866394,132.120758 
	C422.447662,131.455078 422.159851,131.252563 421.872040,131.050064 
	C421.872040,131.050064 421.951721,131.044388 421.874115,130.859711 
	C421.661896,130.376587 421.448883,130.152710 421.157501,130.003433 
	C416.506775,122.219070 411.844177,114.441772 407.213928,106.645264 
	C406.086212,104.746361 405.064636,102.784409 403.897949,100.267487 
	C403.662140,99.388992 403.448792,99.164658 403.161621,99.010506 
	C403.161621,99.010506 403.002991,98.579514 402.986450,97.967346 
	C400.609924,93.590698 398.249908,89.826233 395.889893,86.061768 
	C395.889893,86.061775 395.970917,86.025543 395.966156,85.684143 
	C394.605469,83.248161 393.249542,81.153572 391.893646,79.058990 
	C391.893646,79.058983 391.972595,79.021950 391.966736,78.696625 
	C391.269318,77.602768 390.577759,76.834221 389.886169,76.065674 
	C389.886169,76.065681 389.969360,76.025795 389.969208,75.721115 
	C389.647552,74.606987 389.326019,73.797546 388.872498,72.773193 
	C388.453094,72.390541 388.165741,72.222794 387.878387,72.055038 
	C387.878387,72.055038 387.958313,72.030853 387.958252,71.702278 
	C387.257385,70.596771 386.556641,69.819847 385.855865,69.042923 
	C385.278168,68.588280 384.700439,68.133636 383.984863,67.028557 
	C381.121002,65.585915 378.396027,64.105499 375.668854,64.101471 
	C292.631683,63.978920 209.594284,64.000671 126.556923,64.008278 
	C125.062859,64.008408 123.429474,63.749222 122.111519,64.258766 
	C120.608459,64.839874 119.386513,66.148109 118.042389,67.140343 
	C117.589333,67.718842 117.136284,68.297348 116.051819,69.004555 
	C114.961075,70.135902 114.501755,71.138550 114.042435,72.141205 
	C114.042435,72.141205 114.008286,72.586983 113.738365,72.934402 
	C113.254387,73.523277 113.117256,73.802513 113.057068,74.119537 
	C113.057068,74.119537 113.037422,74.039764 112.720428,74.085968 
	C111.290474,76.457489 110.177521,78.782806 109.064575,81.108116 
	C109.064568,81.108116 109.031998,81.027328 108.712769,81.082657 
	C107.616768,82.794151 106.840004,84.450310 106.063248,86.106476 
	C106.063248,86.106476 106.030418,86.026176 105.703049,86.086578 
	C104.596596,88.138412 103.817513,90.129845 103.038429,92.121277 
	C95.406662,105.195854 87.774895,118.270432 79.804840,131.813614 
	C79.252060,132.523727 79.116669,132.803528 79.060387,133.121613 
	C79.060387,133.121613 79.050346,133.041656 78.847198,133.158310 
	C78.443298,133.563904 78.242554,133.852859 78.041809,134.141800 
	C78.041809,134.141800 78.004440,134.585938 77.736008,134.932632 
	C77.251701,135.520462 77.115395,135.800369 77.058640,136.119019 
	C77.058640,136.119019 77.038071,136.038712 76.718155,136.094070 
	C75.946098,137.147079 75.493958,138.144745 75.041824,139.142395 
z"/>
<path fill="#D6F6FF" opacity="1.000000" stroke="none" 
	d="
M322.039703,347.142059 
	C322.039703,347.142059 322.005615,347.579895 321.586456,347.871094 
	C319.388031,350.061707 319.109619,351.750244 321.849152,353.014679 
	C321.849152,353.014679 322.007690,353.417938 322.102722,353.861816 
	C322.335358,354.611176 322.552002,354.842682 322.847717,355.000214 
	C323.190460,355.440033 323.533234,355.879852 323.956055,357.009399 
	C327.522949,369.998413 326.003113,382.381775 324.151978,394.643005 
	C322.746521,403.952087 320.263306,413.095154 318.445190,422.348541 
	C318.153992,423.830688 318.836548,425.504120 319.068909,427.089142 
	C319.068909,427.089142 319.026672,427.007965 318.675781,427.101318 
	C317.965973,427.512634 317.379120,427.772736 317.281647,428.157013 
	C315.173920,436.464813 313.120789,444.786530 311.057129,453.105530 
	C311.057129,453.105530 311.003784,453.025360 310.696167,452.887756 
	C306.213135,451.847015 302.037689,450.943909 297.862244,450.040833 
	C297.862244,450.040802 297.422394,450.004730 297.140137,449.584717 
	C294.005585,446.202789 290.778992,445.001709 286.863800,447.040527 
	C282.813354,446.089752 278.762878,445.138947 274.281860,443.674500 
	C266.528015,440.453308 259.204773,437.745789 251.881531,435.038269 
	C248.775635,432.721497 245.557037,430.539185 242.592194,428.054169 
	C238.841965,424.910797 239.149948,421.178925 241.295898,417.129150 
	C244.959412,410.215485 248.660034,403.301361 251.840591,396.162689 
	C252.978455,393.608765 252.580719,390.392548 253.013138,387.497925 
	C253.919632,381.429596 255.714935,375.362213 255.625687,369.316864 
	C255.548355,364.078339 253.725403,358.754974 252.049515,353.675110 
	C249.109528,344.763550 248.667709,335.994934 249.427597,326.533112 
	C250.211380,316.774048 252.982330,307.704468 254.910828,298.334656 
	C255.191208,296.972412 255.159332,295.060822 254.405746,294.047760 
	C248.543396,286.166748 253.101868,279.329071 256.266998,272.304199 
	C257.306763,269.996521 258.221313,267.632477 259.859741,264.987122 
	C261.661224,261.748932 262.796082,258.817780 263.930969,255.886642 
	C263.930969,255.886642 263.955780,255.965363 264.142822,255.881317 
	C264.633514,255.661499 264.860046,255.444992 265.009460,255.147766 
	C266.091003,254.159241 267.172516,253.170700 268.781921,251.993942 
	C269.619873,251.668564 269.852783,251.449448 270.008575,251.148376 
	C270.008575,251.148376 270.422363,250.995087 270.865265,250.897186 
	C271.607574,250.662491 271.835236,250.449097 271.991089,250.159149 
	C278.259399,245.202972 280.524628,245.715210 283.478729,253.024445 
	C288.377563,265.145386 293.179871,277.305450 297.991516,289.461456 
	C299.384979,292.981781 300.671234,296.544495 302.059204,300.813965 
	C303.272583,301.211334 305.407013,300.975494 305.448608,300.539764 
	C306.104218,293.675018 306.490662,286.784576 306.938904,279.900024 
	C306.938904,279.900024 306.971039,279.978790 307.313751,279.898804 
	C309.619629,272.964661 311.596985,266.114441 313.507233,259.245544 
	C313.611328,258.871368 313.155060,258.341309 312.959595,257.883820 
	C314.411865,253.985809 317.156738,250.866898 321.281830,251.175140 
	C328.710175,251.730225 330.181274,253.707397 330.551636,261.709290 
	C329.417664,266.859375 328.729645,271.498688 328.041626,276.137970 
	C328.027313,276.555878 328.013000,276.973785 327.572174,277.789307 
	C325.646851,280.336975 324.793060,282.409363 327.847260,284.010925 
	C327.904846,284.437622 327.962433,284.864319 327.763763,285.909424 
	C327.339966,291.895691 326.962372,297.268829 327.098572,302.628937 
	C327.161255,305.095764 328.230377,307.537018 328.843140,309.989868 
	C328.901459,310.424866 328.959747,310.859894 328.764496,311.911011 
	C327.698792,318.668610 326.847656,324.805542 326.131592,330.958221 
	C326.055450,331.612274 326.769745,332.358368 327.117371,333.061768 
	C327.078461,333.493866 327.039520,333.925934 326.609985,334.739502 
	C326.183258,336.098816 326.147095,337.076660 326.110962,338.054504 
	C325.786926,339.149811 325.462891,340.245087 324.653656,341.746826 
	C323.792480,343.146393 323.416565,344.139496 323.040619,345.132629 
	C323.040619,345.132629 323.004883,345.583740 322.733337,345.937805 
	C322.249176,346.539520 322.108459,346.822937 322.039703,347.142059 
z"/>
<path fill="#D6F6FF" opacity="1.000000" stroke="none" 
	d="
M371.979828,173.165161 
	C371.979828,173.165161 372.427521,173.008667 373.137665,172.995270 
	C383.602142,172.967545 393.356506,172.953232 403.110840,172.938934 
	C403.110840,172.938934 403.028076,172.962219 403.026947,173.399292 
	C403.354401,185.834747 403.682983,197.833145 404.011597,209.831543 
	C398.059662,209.887436 392.105225,209.853775 386.156372,210.020111 
	C377.125824,210.272659 368.098145,210.640030 359.071106,211.003952 
	C351.716766,211.300446 344.364441,211.942963 337.012482,211.924286 
	C328.330627,211.902237 319.650208,211.334122 310.162476,211.081329 
	C308.578186,212.881088 307.262817,214.556534 307.112091,216.330933 
	C306.268921,226.256546 305.707153,236.206070 305.049255,246.147415 
	C303.284454,248.796341 301.519653,251.445251 299.437653,254.570267 
	C297.759308,250.890503 295.649902,247.970886 295.144684,244.796005 
	C294.152954,238.563599 289.928558,236.156296 284.932434,233.916183 
	C283.622253,233.328751 282.204010,231.344879 282.126740,229.931732 
	C281.810944,224.154144 281.995026,218.349243 281.995026,212.987122 
	C249.801132,212.987122 217.858643,212.987122 185.454803,212.451599 
	C184.994415,203.273010 184.995529,194.629913 184.996277,185.986832 
	C184.996994,177.499176 185.252151,177.235367 193.824600,176.999451 
	C194.987213,176.967453 196.151459,176.992905 197.314941,176.992935 
	C213.936264,176.993332 230.558121,177.051224 247.178101,176.902359 
	C248.770584,176.888092 250.351517,175.585983 251.937805,174.881714 
	C251.937805,174.881714 251.968185,174.959610 252.403580,174.970703 
	C271.303436,174.992325 289.767975,175.023880 308.232300,174.976166 
	C309.822174,174.972061 311.410645,174.442841 312.999786,174.157547 
	C312.999786,174.157547 313.427582,173.999191 314.131226,173.990784 
	C332.294342,173.992371 349.753906,174.024338 367.213257,173.975433 
	C368.802856,173.970978 370.390991,173.447571 371.979828,173.165161 
z"/>
<path fill="#D7F7FF" opacity="1.000000" stroke="none" 
	d="
M152.959824,131.868835 
	C154.183014,130.205246 155.310425,128.459946 156.646988,126.893051 
	C161.020309,121.766029 165.469742,116.703957 170.213440,111.158142 
	C170.745651,110.457840 170.886398,110.181671 170.959213,109.870865 
	C171.941193,108.776848 172.923187,107.682838 174.221649,106.149933 
	C174.753265,105.462250 174.893738,105.176720 174.959564,104.854462 
	C175.941910,103.764320 176.924240,102.674179 178.221939,101.145630 
	C178.751038,100.459183 178.891800,100.174995 178.959579,99.854660 
	C178.952301,99.506493 179.097824,99.242577 180.072952,99.024765 
	C187.964874,99.032738 187.964249,99.032738 188.004776,106.183472 
	C188.008438,106.829819 188.026505,107.476089 188.037872,108.122391 
	C186.711777,109.092407 183.605270,108.041428 184.694656,111.878342 
	C185.036591,113.082687 182.005768,115.232216 180.537582,116.965103 
	C175.061203,123.428810 169.592651,129.899155 163.791382,136.827698 
	C163.246521,137.535492 163.106308,137.819534 163.040970,138.140549 
	C163.043259,138.491943 162.893509,138.757675 161.989487,139.020767 
	C160.605225,140.450256 159.823181,141.796722 159.041153,143.143173 
	C158.264297,144.044998 157.487427,144.946823 156.062286,145.991425 
	C154.956360,147.136642 154.498734,148.139084 154.041092,149.141541 
	C153.586960,149.719925 153.132828,150.298309 152.038910,150.986908 
	C150.620575,152.433792 149.842056,153.770477 149.063538,155.107178 
	C149.063538,155.107178 149.030228,155.026520 148.716614,155.061539 
	C144.861847,158.584671 139.969421,161.133820 140.040283,167.131744 
	C136.375580,171.335403 132.152512,175.187485 129.216705,179.850098 
	C126.711372,183.829041 123.359009,183.774368 120.445969,182.562057 
	C116.756882,181.026779 117.261780,176.989197 118.640282,174.029755 
	C119.863892,171.402832 122.188599,169.273834 124.102722,166.988220 
	C125.635735,165.157700 127.281998,163.422043 129.207199,161.179932 
	C129.748672,160.473557 129.883438,160.194138 129.940674,159.877319 
	C129.940674,159.877319 129.950516,159.958435 130.151367,159.844086 
	C130.551392,159.443695 130.750580,159.157623 130.949768,158.871567 
	C130.949768,158.871567 130.956848,158.959518 131.154175,158.845673 
	C131.550690,158.447388 131.749878,158.162979 131.949081,157.878555 
	C131.949081,157.878555 131.962646,157.957718 132.284195,157.926910 
	C134.056824,155.883514 135.507904,153.870926 136.958984,151.858337 
	C137.414169,151.279678 137.869339,150.701035 138.955780,149.993561 
	C140.044388,148.863831 140.501755,147.862885 140.959122,146.861954 
	C140.953293,146.510941 141.100784,146.244904 142.002563,145.982651 
	C143.381195,144.565292 144.158859,143.229156 144.936523,141.893036 
	C144.936523,141.893036 144.970093,141.973694 145.283234,141.939285 
	C149.608353,139.702255 152.389282,136.596420 152.959824,131.868835 
z"/>
<path fill="#D8F7FF" opacity="1.000000" stroke="none" 
	d="
M129.959213,115.861755 
	C130.417007,115.281471 130.874802,114.701180 131.963440,113.990189 
	C133.048965,112.858986 133.503647,111.858475 133.958328,110.857971 
	C135.272141,109.437309 136.585938,108.016647 138.218414,106.150909 
	C138.750610,105.460129 138.891434,105.178123 138.959595,104.859802 
	C139.943634,103.766754 140.927689,102.673698 142.224518,101.142563 
	C142.749527,100.459747 142.890457,100.179192 142.960114,99.862831 
	C143.414551,99.283073 143.868973,98.703323 144.948975,98.017128 
	C147.361801,95.569244 149.149078,93.227798 150.936356,90.886360 
	C150.936356,90.886360 150.960983,90.964386 151.144684,90.881004 
	C151.626007,90.661835 151.848907,90.448128 151.997086,90.156487 
	C152.169327,90.111702 152.341568,90.066917 153.042450,90.327820 
	C154.763489,90.742241 155.955917,90.850967 157.148346,90.959686 
	C157.495514,90.953377 157.758530,91.099030 157.975433,92.065392 
	C157.354752,95.864235 156.696030,98.994331 156.037323,102.124420 
	C156.037323,102.124420 155.996719,102.569977 155.549011,102.790298 
	C154.081238,104.386345 153.061188,105.762062 152.041122,107.137779 
	C152.047195,107.488739 151.899902,107.754814 150.998322,108.017166 
	C149.619293,109.434265 148.841217,110.770210 148.063141,112.106148 
	C148.063141,112.106148 148.029083,112.025604 147.716003,112.060638 
	C143.392227,114.298302 140.612274,117.403969 140.040421,122.129807 
	C136.559906,126.388687 133.113586,130.676132 129.586761,134.896317 
	C127.279335,137.657379 124.558418,140.120453 122.559563,143.079636 
	C120.130104,146.676315 116.871613,147.118332 113.865013,145.149628 
	C110.607498,143.016617 111.180351,139.170288 113.004234,136.353088 
	C115.606773,132.333160 118.816612,128.689926 121.925171,125.019707 
	C124.109070,122.441208 126.556297,120.085754 129.212891,117.170670 
	C129.754578,116.464714 129.894379,116.181755 129.959213,115.861755 
z"/>
<path fill="#E8FCFF" opacity="1.000000" stroke="none" 
	d="
M118.468918,67.076256 
	C119.386513,66.148109 120.608459,64.839874 122.111519,64.258766 
	C123.429474,63.749222 125.062859,64.008408 126.556923,64.008278 
	C209.594284,64.000671 292.631683,63.978920 375.668854,64.101471 
	C378.396027,64.105499 381.121002,65.585915 383.902649,66.758545 
	C379.402100,66.759529 374.846161,66.053009 370.289673,66.049232 
	C289.386292,65.982185 208.482849,65.990097 127.579453,66.043159 
	C124.684570,66.045059 121.790100,66.674957 118.468918,67.076256 
z"/>
<path fill="#F8FCFE" opacity="1.000000" stroke="none" 
	d="
M383.888947,48.572281 
	C295.341797,48.968044 206.577560,48.978405 117.335106,48.976936 
	C118.201668,48.642799 119.546318,48.039051 120.891258,48.038376 
	C207.657547,47.995197 294.423859,48.000416 381.190155,48.009941 
	C382.017395,48.010033 382.844604,48.125355 383.888947,48.572281 
z"/>
<path fill="#ECFDFE" opacity="1.000000" stroke="none" 
	d="
M251.475327,174.933228 
	C250.351517,175.585983 248.770584,176.888092 247.178101,176.902359 
	C230.558121,177.051224 213.936264,176.993332 197.314941,176.992935 
	C196.151459,176.992905 194.987213,176.967453 193.824600,176.999451 
	C185.252151,177.235367 184.996994,177.499176 184.996277,185.986832 
	C184.995529,194.629913 184.994415,203.273010 184.991150,212.374084 
	C184.327530,212.070419 183.100189,211.315842 183.090500,210.545990 
	C182.960999,200.237579 182.921707,189.925598 183.106400,179.618927 
	C183.128204,178.402573 184.449753,176.348328 185.444504,176.163101 
	C189.280548,175.448792 193.226898,175.067947 197.135040,175.044312 
	C215.093781,174.935654 233.053482,174.989334 251.475327,174.933228 
z"/>
<path fill="#ECFDFE" opacity="1.000000" stroke="none" 
	d="
M319.433258,426.892944 
	C318.836548,425.504120 318.153992,423.830688 318.445190,422.348541 
	C320.263306,413.095154 322.746521,403.952087 324.151978,394.643005 
	C326.003113,382.381775 327.522949,369.998413 324.038452,357.282135 
	C325.363068,360.695496 327.845062,364.546265 327.777832,368.352051 
	C327.613800,377.636505 326.619202,386.950012 325.306366,396.158783 
	C323.847504,406.391907 321.665039,416.521851 319.433258,426.892944 
z"/>
<path fill="#EBFDFF" opacity="1.000000" stroke="none" 
	d="
M404.446167,209.900253 
	C403.682983,197.833145 403.354401,185.834747 403.045410,173.360474 
	C403.707886,173.419861 404.892212,173.934311 404.913696,174.493500 
	C405.351959,185.883636 405.669464,197.278610 405.940643,208.674286 
	C405.950684,209.097183 405.250122,209.537018 404.446167,209.900253 
z"/>
<path fill="#E3FBFF" opacity="1.000000" stroke="none" 
	d="
M305.384460,245.984314 
	C305.707153,236.206070 306.268921,226.256546 307.112091,216.330933 
	C307.262817,214.556534 308.578186,212.881088 309.733459,211.100189 
	C309.740601,218.402222 309.169037,225.761398 309.073273,233.126740 
	C309.013519,237.722717 309.235992,242.215408 305.384460,245.984314 
z"/>
<path fill="#E7FCFF" opacity="1.000000" stroke="none" 
	d="
M89.945450,235.611649 
	C88.707710,236.001022 87.082214,236.529572 85.924667,236.011856 
	C77.626907,232.300552 69.403168,228.420120 61.220928,224.459122 
	C60.303883,224.015167 59.793331,222.731506 59.045792,221.497833 
	C68.335762,225.604111 77.668808,230.061279 87.021782,234.476212 
	C87.873802,234.878387 88.853783,235.009491 89.945450,235.611649 
z"/>
<path fill="#EBFDFF" opacity="1.000000" stroke="none" 
	d="
M120.059082,277.399414 
	C123.208710,277.347748 126.604362,277.365265 129.872192,278.020355 
	C137.548630,279.559357 145.163956,281.403168 152.902908,283.480713 
	C146.664886,282.720856 140.321167,281.640808 133.993317,280.474670 
	C129.400345,279.628204 124.828362,278.667908 120.059082,277.399414 
z"/>
<path fill="#F8FCFE" opacity="1.000000" stroke="none" 
	d="
M312.535492,174.083771 
	C311.410645,174.442841 309.822174,174.972061 308.232300,174.976166 
	C289.767975,175.023880 271.303436,174.992325 252.363022,174.960541 
	C253.392471,174.628220 254.897018,174.051407 256.403412,174.046478 
	C274.959198,173.985794 293.515228,174.008682 312.535492,174.083771 
z"/>
<path fill="#E8FCFF" opacity="1.000000" stroke="none" 
	d="
M439.589569,222.926819 
	C439.288513,223.910507 438.861420,225.469162 437.908569,225.922302 
	C430.137299,229.617996 422.276123,233.125809 414.407806,236.613037 
	C413.933746,236.823135 413.164917,236.368240 412.210938,236.089417 
	C420.999023,231.633850 430.109436,227.311646 439.589569,222.926819 
z"/>
<path fill="#EBFDFF" opacity="1.000000" stroke="none" 
	d="
M349.419373,283.916260 
	C349.348480,283.313568 349.618561,282.413879 350.061340,282.318817 
	C359.880524,280.211365 369.715637,278.177277 379.561462,276.197510 
	C380.123596,276.084473 380.802734,276.553345 381.776672,276.898071 
	C373.429993,279.031677 364.739655,281.043671 356.033966,282.987030 
	C353.996185,283.441925 351.906555,283.664551 349.419373,283.916260 
z"/>
<path fill="#E6FCFF" opacity="1.000000" stroke="none" 
	d="
M79.049149,264.382019 
	C88.543098,267.089020 98.202477,270.136902 107.931213,273.512665 
	C100.024223,271.418671 92.041977,269.015930 84.076324,266.559357 
	C82.424103,266.049805 80.833542,265.340302 79.049149,264.382019 
z"/>
<path fill="#F8FCFE" opacity="1.000000" stroke="none" 
	d="
M371.518066,173.087799 
	C370.390991,173.447571 368.802856,173.970978 367.213257,173.975433 
	C349.753906,174.024338 332.294342,173.992371 314.358643,173.973297 
	C315.383606,173.644348 316.883850,173.051636 318.386169,173.046249 
	C335.942688,172.983185 353.499573,173.008499 371.518066,173.087799 
z"/>
<path fill="#EAFCFE" opacity="1.000000" stroke="none" 
	d="
M311.430542,453.055389 
	C313.120789,444.786530 315.173920,436.464813 317.281647,428.157013 
	C317.379120,427.772736 317.965973,427.512634 318.715393,427.124237 
	C317.417877,434.964172 315.781769,442.886566 313.967987,450.768005 
	C313.768738,451.633911 312.549896,452.265167 311.430542,453.055389 
z"/>
<path fill="#EBFDFF" opacity="1.000000" stroke="none" 
	d="
M471.360779,238.001526 
	C473.234650,235.387817 475.230713,232.441315 477.675049,229.931396 
	C480.727631,226.796936 484.149139,224.021790 487.763214,221.078033 
	C482.637360,226.663879 477.159637,232.263199 471.360779,238.001526 
z"/>
<path fill="#E9FEFF" opacity="1.000000" stroke="none" 
	d="
M226.834717,259.508667 
	C221.856293,260.248230 216.657181,260.877502 211.457428,260.882965 
	C207.527603,260.887054 203.596970,260.094025 199.348282,259.408447 
	C208.224503,259.150848 217.419128,259.140564 226.834717,259.508667 
z"/>
<path fill="#E8FCFF" opacity="1.000000" stroke="none" 
	d="
M484.058594,195.570663 
	C482.400818,194.102158 480.296783,192.496445 479.061035,190.383041 
	C476.470825,185.953247 474.337555,181.256241 472.028290,176.270737 
	C476.028503,182.316177 480.017090,188.759842 484.058594,195.570663 
z"/>
<path fill="#E9FEFF" opacity="1.000000" stroke="none" 
	d="
M328.917328,309.526794 
	C328.230377,307.537018 327.161255,305.095764 327.098572,302.628937 
	C326.962372,297.268829 327.339966,291.895691 327.809937,286.230835 
	C328.409790,290.533661 328.781860,295.130341 328.978485,299.734528 
	C329.110992,302.838806 328.995880,305.953613 328.917328,309.526794 
z"/>
<path fill="#E7FCFF" opacity="1.000000" stroke="none" 
	d="
M397.447510,273.073883 
	C397.105713,272.814789 397.092529,272.254425 397.244476,272.205353 
	C403.970673,270.032623 410.711487,267.904999 417.778107,265.908203 
	C411.354828,268.366638 404.604004,270.688873 397.447510,273.073883 
z"/>
<path fill="#E9FCFE" opacity="1.000000" stroke="none" 
	d="
M56.367756,171.965530 
	C57.384926,168.708252 58.401325,165.118912 60.156162,161.936813 
	C62.243835,158.151184 64.965714,154.715302 67.761871,151.094147 
	C65.157921,156.459747 62.208569,161.861069 59.249519,167.257095 
	C58.412212,168.783966 57.546558,170.295303 56.367756,171.965530 
z"/>
<path fill="#E9FCFE" opacity="1.000000" stroke="none" 
	d="
M433.942810,151.427231 
	C434.884705,151.823654 436.249115,152.377884 436.815735,153.382202 
	C439.972961,158.978577 442.936920,164.683990 445.962769,170.735214 
	C441.971375,164.676483 437.984192,158.234665 433.942810,151.427231 
z"/>
<path fill="#ECFDFE" opacity="1.000000" stroke="none" 
	d="
M306.568024,280.104919 
	C306.490662,286.784576 306.104218,293.675018 305.448608,300.539764 
	C305.407013,300.975494 303.272583,301.211334 302.075562,301.209381 
	C303.022736,298.371277 304.433136,295.939453 304.892975,293.339539 
	C305.651062,289.053467 305.794586,284.658752 306.568024,280.104919 
z"/>
<path fill="#EBFDFF" opacity="1.000000" stroke="none" 
	d="
M312.615479,258.050842 
	C313.155060,258.341309 313.611328,258.871368 313.507233,259.245544 
	C311.596985,266.114441 309.619629,272.964661 307.274536,279.882294 
	C308.685547,272.703094 310.478455,265.460480 312.615479,258.050842 
z"/>
<path fill="#EDFDFE" opacity="1.000000" stroke="none" 
	d="
M344.553558,252.930908 
	C347.005951,260.760162 345.872894,268.371155 342.510193,275.911682 
	C342.766785,270.296448 343.420654,264.584839 343.974182,258.863495 
	C344.161957,256.922394 344.096436,254.956772 344.553558,252.930908 
z"/>
<path fill="#E8FCFF" opacity="1.000000" stroke="none" 
	d="
M252.037598,435.372559 
	C259.204773,437.745789 266.528015,440.453308 273.927002,443.501099 
	C266.733063,441.129913 259.463379,438.418396 252.037598,435.372559 
z"/>
<path fill="#EAFCFE" opacity="1.000000" stroke="none" 
	d="
M15.928596,223.388748 
	C20.882633,227.837845 25.899782,232.635681 30.938557,237.786957 
	C25.970692,233.339432 20.981199,228.538452 15.928596,223.388748 
z"/>
<path fill="#E9FEFF" opacity="1.000000" stroke="none" 
	d="
M327.477539,332.864868 
	C326.769745,332.358368 326.055450,331.612274 326.131592,330.958221 
	C326.847656,324.805542 327.698792,318.668610 328.811768,312.238586 
	C329.009796,317.139526 328.977478,322.331970 328.764557,327.516968 
	C328.693634,329.243744 328.159882,330.951508 327.477539,332.864868 
z"/>
<path fill="#EAFCFE" opacity="1.000000" stroke="none" 
	d="
M14.605764,201.040710 
	C14.807223,201.869476 14.993052,203.061569 14.495553,203.781342 
	C10.741915,209.211960 11.793168,214.724899 13.946837,220.707321 
	C8.352404,215.030945 8.437293,210.075821 14.605764,201.040710 
z"/>
<path fill="#EAFCFE" opacity="1.000000" stroke="none" 
	d="
M28.631067,178.009979 
	C25.500080,183.872284 22.040586,189.873550 18.233208,195.906158 
	C21.357735,190.007965 24.830149,184.078445 28.631067,178.009979 
z"/>
<path fill="#EDFDFE" opacity="1.000000" stroke="none" 
	d="
M245.203125,260.806915 
	C239.702927,261.061920 233.971527,260.993378 228.122375,260.548584 
	C233.660385,260.276001 239.316132,260.379669 245.203125,260.806915 
z"/>
<path fill="#ECFDFE" opacity="1.000000" stroke="none" 
	d="
M188.394043,107.944443 
	C188.026505,107.476089 188.008438,106.829819 188.004776,106.183472 
	C187.964249,99.032738 187.964874,99.032738 180.302490,98.973007 
	C182.667862,98.568733 186.261932,96.907890 188.127945,98.055885 
	C191.836243,100.337311 190.058548,104.373215 188.394043,107.944443 
z"/>
<path fill="#F8FCFE" opacity="1.000000" stroke="none" 
	d="
M402.888977,172.556122 
	C393.356506,172.953232 383.602142,172.967545 373.373291,172.968628 
	C374.725220,172.638077 376.550110,172.059235 378.378357,172.048508 
	C386.474091,172.001007 394.570740,172.116699 402.888977,172.556122 
z"/>
<path fill="#EBFDFF" opacity="1.000000" stroke="none" 
	d="
M140.365356,166.997482 
	C139.969421,161.133820 144.861847,158.584671 148.756775,155.078583 
	C146.303848,158.994827 143.497147,162.929016 140.365356,166.997482 
z"/>
<path fill="#EDFDFE" opacity="1.000000" stroke="none" 
	d="
M238.908783,289.543152 
	C235.956619,286.751801 236.217178,280.533203 239.789474,275.194153 
	C239.750748,279.724335 239.368256,284.406097 238.908783,289.543152 
z"/>
<path fill="#EBFDFF" opacity="1.000000" stroke="none" 
	d="
M152.639832,132.000336 
	C152.389282,136.596420 149.608353,139.702255 145.243057,141.922119 
	C147.366440,138.670181 149.843140,135.401001 152.639832,132.000336 
z"/>
<path fill="#EBFDFF" opacity="1.000000" stroke="none" 
	d="
M140.360428,121.998581 
	C140.612274,117.403969 143.392227,114.298302 147.756119,112.078003 
	C145.633026,115.329346 143.156738,118.598358 140.360428,121.998581 
z"/>
<path fill="#EDFDFE" opacity="1.000000" stroke="none" 
	d="
M341.525848,278.131989 
	C343.195648,280.388977 343.497253,283.862610 347.806213,283.824829 
	C346.054413,284.663116 344.047943,285.217682 341.167694,286.013794 
	C341.167694,283.066589 341.167694,280.696869 341.525848,278.131989 
z"/>
<path fill="#E7FCFF" opacity="1.000000" stroke="none" 
	d="
M395.942902,86.428970 
	C398.249908,89.826233 400.609924,93.590698 402.964417,97.738770 
	C400.637909,94.346977 398.316895,90.571579 395.942902,86.428970 
z"/>
<path fill="#EBFDFF" opacity="1.000000" stroke="none" 
	d="
M489.389008,218.976761 
	C489.365570,215.022980 489.690277,210.905167 490.028076,206.324371 
	C492.971771,209.118500 492.854553,214.112976 489.389008,218.976761 
z"/>
<path fill="#E9FEFF" opacity="1.000000" stroke="none" 
	d="
M328.403992,275.948608 
	C328.729645,271.498688 329.417664,266.859375 330.471283,262.113953 
	C330.146729,266.591644 329.456543,271.175446 328.403992,275.948608 
z"/>
<path fill="#ECFDFE" opacity="1.000000" stroke="none" 
	d="
M298.036682,450.385651 
	C302.037689,450.943909 306.213135,451.847015 310.738098,452.911438 
	C306.795471,452.291992 302.503296,451.511230 298.036682,450.385651 
z"/>
<path fill="#ECFDFE" opacity="1.000000" stroke="none" 
	d="
M287.054962,447.401245 
	C290.778992,445.001709 294.005585,446.202789 296.934875,449.503784 
	C293.756592,449.149231 290.501373,448.455566 287.054962,447.401245 
z"/>
<path fill="#EDFDFE" opacity="1.000000" stroke="none" 
	d="
M156.370636,101.980911 
	C156.696030,98.994331 157.354752,95.864235 158.026642,92.294449 
	C161.237671,95.467529 160.959671,97.544952 156.370636,101.980911 
z"/>
<path fill="#EBFDFF" opacity="1.000000" stroke="none" 
	d="
M150.580490,90.940002 
	C149.149078,93.227798 147.361801,95.569244 145.219727,97.935059 
	C146.651489,95.637505 148.438065,93.315567 150.580490,90.940002 
z"/>
<path fill="#E6FCFF" opacity="1.000000" stroke="none" 
	d="
M435.053131,115.581726 
	C433.413055,113.508965 431.721466,111.077263 430.035553,108.262009 
	C431.694702,110.326569 433.348145,112.774673 435.053131,115.581726 
z"/>
<path fill="#ECFDFE" opacity="1.000000" stroke="none" 
	d="
M399.071960,57.610668 
	C397.117126,56.161182 395.099060,54.362385 393.060577,52.207695 
	C395.029694,53.654984 397.019196,55.458172 399.071960,57.610668 
z"/>
<path fill="#EDFDFE" opacity="1.000000" stroke="none" 
	d="
M263.597900,256.037750 
	C262.796082,258.817780 261.661224,261.748932 260.197693,264.822449 
	C261.000946,262.039520 262.132904,259.114197 263.597900,256.037750 
z"/>
<path fill="#EBFDFF" opacity="1.000000" stroke="none" 
	d="
M136.645416,151.991608 
	C135.507904,153.870926 134.056824,155.883514 132.245422,157.916382 
	C133.367371,155.999405 134.849625,154.062149 136.645416,151.991608 
z"/>
<path fill="#EAFCFE" opacity="1.000000" stroke="none" 
	d="
M109.390053,80.967148 
	C110.177521,78.782806 111.290474,76.457489 112.759750,74.097816 
	C111.982567,76.317696 110.849052,78.571930 109.390053,80.967148 
z"/>
<path fill="#E7FCFF" opacity="1.000000" stroke="none" 
	d="
M391.947266,79.419128 
	C393.249542,81.153572 394.605469,83.248161 395.948364,85.724792 
	C394.623840,83.997643 393.312347,81.888458 391.947266,79.419128 
z"/>
<path fill="#ECFDFE" opacity="1.000000" stroke="none" 
	d="
M107.612503,52.928661 
	C106.508286,54.544727 105.054993,56.224308 103.248154,57.923206 
	C104.350876,56.292408 105.807152,54.642288 107.612503,52.928661 
z"/>
<path fill="#E9FEFF" opacity="1.000000" stroke="none" 
	d="
M327.921387,283.585754 
	C324.793060,282.409363 325.646851,280.336975 327.491943,278.092468 
	C327.890656,279.718903 327.943085,281.439728 327.921387,283.585754 
z"/>
<path fill="#EAFCFE" opacity="1.000000" stroke="none" 
	d="
M103.364807,91.970963 
	C103.817513,90.129845 104.596596,88.138412 105.743088,86.103241 
	C105.304070,87.979881 104.497635,89.900261 103.364807,91.970963 
z"/>
<path fill="#E9FCFE" opacity="1.000000" stroke="none" 
	d="
M57.612694,131.026947 
	C57.156490,132.547668 56.379959,134.204926 55.243332,135.898438 
	C55.686279,134.344299 56.489323,132.753891 57.612694,131.026947 
z"/>
<path fill="#E6FCFF" opacity="1.000000" stroke="none" 
	d="
M441.055481,125.591530 
	C440.083557,124.509140 439.061188,123.078079 438.051758,121.270416 
	C439.044830,122.343491 440.024902,123.793175 441.055481,125.591530 
z"/>
<path fill="#EBFDFF" opacity="1.000000" stroke="none" 
	d="
M152.343109,107.011848 
	C153.061188,105.762062 154.081238,104.386345 155.472351,103.000465 
	C154.777313,104.288841 153.711212,105.587379 152.343109,107.011848 
z"/>
<path fill="#ECFDFE" opacity="1.000000" stroke="none" 
	d="
M321.919312,352.666290 
	C319.109619,351.750244 319.388031,350.061707 321.507446,348.075989 
	C321.894867,349.432404 321.942169,350.875153 321.919312,352.666290 
z"/>
<path fill="#EAFCFE" opacity="1.000000" stroke="none" 
	d="
M106.383728,85.970169 
	C106.840004,84.450310 107.616768,82.794151 108.753021,81.099266 
	C108.309746,82.651649 107.506973,84.242752 106.383728,85.970169 
z"/>
<path fill="#EBFDFF" opacity="1.000000" stroke="none" 
	d="
M489.062683,203.588379 
	C488.087646,202.507111 487.060242,201.077255 486.048157,199.270386 
	C487.045715,200.342163 488.028015,201.790970 489.062683,203.588379 
z"/>
<path fill="#E6FCFF" opacity="1.000000" stroke="none" 
	d="
M438.057861,120.589722 
	C437.085785,119.509117 436.062195,118.080093 435.049866,116.274582 
	C436.042877,117.345825 437.024567,118.793564 438.057861,120.589722 
z"/>
<path fill="#E9FCFE" opacity="1.000000" stroke="none" 
	d="
M63.616150,121.030220 
	C63.159962,122.549721 62.383217,124.205254 61.247154,125.899887 
	C61.690418,124.348076 62.493004,122.757156 63.616150,121.030220 
z"/>
<path fill="#E9FCFE" opacity="1.000000" stroke="none" 
	d="
M60.614517,126.028320 
	C60.158524,127.548889 59.382004,129.205627 58.245586,130.899826 
	C58.688454,129.346344 59.491219,127.755417 60.614517,126.028320 
z"/>
<path fill="#E9FCFE" opacity="1.000000" stroke="none" 
	d="
M68.637009,113.013535 
	C68.176239,114.536736 67.393677,116.197388 66.251564,117.899483 
	C66.699745,116.344284 67.507477,114.747643 68.637009,113.013535 
z"/>
<path fill="#EBFDFF" opacity="1.000000" stroke="none" 
	d="
M144.624771,142.021927 
	C144.158859,143.229156 143.381195,144.565292 142.234131,145.930283 
	C142.680832,144.689697 143.496933,143.420258 144.624771,142.021927 
z"/>
<path fill="#EBFDFF" opacity="1.000000" stroke="none" 
	d="
M148.375000,111.977402 
	C148.841217,110.770210 149.619293,109.434265 150.766830,108.069656 
	C150.319824,109.310204 149.503342,110.579430 148.375000,111.977402 
z"/>
<path fill="#EBFDFF" opacity="1.000000" stroke="none" 
	d="
M149.375305,154.978195 
	C149.842056,153.770477 150.620575,152.433792 151.768677,151.068848 
	C151.321198,152.310150 150.504135,153.579681 149.375305,154.978195 
z"/>
<path fill="#EBFDFF" opacity="1.000000" stroke="none" 
	d="
M159.354431,143.010498 
	C159.823181,141.796722 160.605225,140.450256 161.757385,139.073242 
	C161.307602,140.321060 160.487671,141.599457 159.354431,143.010498 
z"/>
<path fill="#EAFCFE" opacity="1.000000" stroke="none" 
	d="
M16.616241,197.033386 
	C16.499668,198.206863 16.064930,199.522049 15.260544,200.889923 
	C15.359956,199.686783 15.829018,198.430939 16.616241,197.033386 
z"/>
<path fill="#E9FEFF" opacity="1.000000" stroke="none" 
	d="
M326.434113,337.910919 
	C326.147095,337.076660 326.183258,336.098816 326.532990,335.056213 
	C326.816803,335.916779 326.787048,336.842041 326.434113,337.910919 
z"/>
<path fill="#EDFDFE" opacity="1.000000" stroke="none" 
	d="
M245.344482,265.996002 
	C245.163147,264.879944 245.290390,263.636414 245.643524,261.979309 
	C245.797287,263.000000 245.725159,264.434265 245.344482,265.996002 
z"/>
<path fill="#ECFDFE" opacity="1.000000" stroke="none" 
	d="
M408.061462,71.611160 
	C407.422943,71.165543 406.730499,70.393250 406.051941,69.254974 
	C406.713074,69.687492 407.360321,70.485992 408.061462,71.611160 
z"/>
<path fill="#EBFDFF" opacity="1.000000" stroke="none" 
	d="
M140.650330,146.993179 
	C140.501755,147.862885 140.044388,148.863831 139.226288,149.911682 
	C139.357559,149.013885 139.849548,148.069138 140.650330,146.993179 
z"/>
<path fill="#ECFDFE" opacity="1.000000" stroke="none" 
	d="
M95.652115,68.985687 
	C95.507675,69.854324 95.055534,70.853607 94.243660,71.895668 
	C94.370743,70.997742 94.857574,70.057037 95.652115,68.985687 
z"/>
<path fill="#E8FCFF" opacity="1.000000" stroke="none" 
	d="
M114.351608,72.010429 
	C114.501755,71.138550 114.961075,70.135902 115.782288,69.088036 
	C115.649719,69.988434 115.155258,70.934044 114.351608,72.010429 
z"/>
<path fill="#E8FCFF" opacity="1.000000" stroke="none" 
	d="
M385.920685,69.369461 
	C386.556641,69.819847 387.257385,70.596771 387.945374,71.741989 
	C387.283600,71.305519 386.634552,70.500755 385.920685,69.369461 
z"/>
<path fill="#E8FCFF" opacity="1.000000" stroke="none" 
	d="
M486.059326,198.610992 
	C485.420349,198.166168 484.730072,197.394852 484.052551,196.257751 
	C484.712860,196.689484 485.360443,197.486984 486.059326,198.610992 
z"/>
<path fill="#E7FCFF" opacity="1.000000" stroke="none" 
	d="
M389.937744,76.392181 
	C390.577759,76.834221 391.269318,77.602768 391.949829,78.736816 
	C391.288971,78.307777 390.639160,77.513229 389.937744,76.392181 
z"/>
<path fill="#E9FCFE" opacity="1.000000" stroke="none" 
	d="
M424.937500,136.394073 
	C425.580322,136.842941 426.276550,137.621399 426.966064,138.767975 
	C426.303192,138.331970 425.647064,137.527832 424.937500,136.394073 
z"/>
<path fill="#EBFDFF" opacity="1.000000" stroke="none" 
	d="
M154.349838,149.009583 
	C154.498734,148.139084 154.956360,147.136642 155.775467,146.087677 
	C155.644150,146.986664 155.151367,147.932144 154.349838,149.009583 
z"/>
<path fill="#EBFDFF" opacity="1.000000" stroke="none" 
	d="
M133.648285,110.987373 
	C133.503647,111.858475 133.048965,112.858986 132.234955,113.908279 
	C132.363174,113.010300 132.850708,112.063538 133.648285,110.987373 
z"/>
<path fill="#ECFDFE" opacity="1.000000" stroke="none" 
	d="
M98.652817,63.988205 
	C98.508415,64.856369 98.056961,65.856155 97.245499,66.897568 
	C97.372238,65.999413 97.859001,65.059616 98.652817,63.988205 
z"/>
<path fill="#E9FCFE" opacity="1.000000" stroke="none" 
	d="
M75.350372,139.014053 
	C75.493958,138.144745 75.946098,137.147079 76.757568,136.106873 
	C76.630920,137.004776 76.144920,137.945236 75.350372,139.014053 
z"/>
<path fill="#E9FCFE" opacity="1.000000" stroke="none" 
	d="
M54.624088,136.013153 
	C54.486317,136.878220 54.042664,137.867981 53.240982,138.896240 
	C53.361370,138.002441 53.839790,137.070145 54.624088,136.013153 
z"/>
<path fill="#E9FCFE" opacity="1.000000" stroke="none" 
	d="
M65.631134,118.019196 
	C65.492760,118.882706 65.047958,119.869682 64.246704,120.898514 
	C64.368408,120.007797 64.846558,119.075233 65.631134,118.019196 
z"/>
<path fill="#E9FCFE" opacity="1.000000" stroke="none" 
	d="
M427.946777,141.386353 
	C428.588043,141.840164 429.280548,142.624298 429.965576,143.777130 
	C429.304749,143.336105 428.651398,142.526382 427.946777,141.386353 
z"/>
<path fill="#ECFDFE" opacity="1.000000" stroke="none" 
	d="
M102.632446,58.023048 
	C102.486671,58.887833 102.033516,59.878407 101.221939,60.914585 
	C101.350708,60.023071 101.837883,59.085953 102.632446,58.023048 
z"/>
<path fill="#ECFDFE" opacity="1.000000" stroke="none" 
	d="
M323.351593,344.999146 
	C323.416565,344.139496 323.792480,343.146393 324.502380,342.074585 
	C324.445099,342.952454 324.053833,343.909027 323.351593,344.999146 
z"/>
<path fill="#E9FCFE" opacity="1.000000" stroke="none" 
	d="
M72.347725,144.008118 
	C72.489449,143.141861 72.938675,142.145233 73.745926,141.101868 
	C73.621048,141.995987 73.138138,142.936890 72.347725,144.008118 
z"/>
<path fill="#EDFDFE" opacity="1.000000" stroke="none" 
	d="
M156.975342,90.617340 
	C155.955917,90.850967 154.763489,90.742241 153.299835,90.398636 
	C154.286514,90.200836 155.544434,90.237915 156.975342,90.617340 
z"/>
<path fill="#E9FCFE" opacity="1.000000" stroke="none" 
	d="
M430.143982,145.317886 
	C430.759613,145.804672 431.368561,146.620987 431.967834,147.789948 
	C431.351196,147.310867 430.744232,146.479141 430.143982,145.317886 
z"/>
<path fill="#ECFDFE" opacity="1.000000" stroke="none" 
	d="
M406.061951,68.655220 
	C405.580475,68.360252 405.045258,67.782387 404.687256,66.893700 
	C405.245728,67.179359 405.626953,67.775841 406.061951,68.655220 
z"/>
<path fill="#E9FCFE" opacity="1.000000" stroke="none" 
	d="
M70.111061,148.243073 
	C70.048782,147.656219 70.224411,146.910278 70.754425,146.111176 
	C70.855530,146.733353 70.602249,147.408676 70.111061,148.243073 
z"/>
<path fill="#E7FCFF" opacity="1.000000" stroke="none" 
	d="
M389.004517,72.988106 
	C389.326019,73.797546 389.647552,74.606987 389.949646,75.762894 
	C389.618011,75.652412 389.305725,75.195450 388.987732,74.146332 
	C388.989502,73.365486 388.997009,73.176796 389.004517,72.988106 
z"/>
<path fill="#E9FCFE" opacity="1.000000" stroke="none" 
	d="
M68.336243,151.007584 
	C68.318130,150.309647 68.571495,149.512833 69.146416,148.781616 
	C69.181221,149.534378 68.894470,150.221527 68.336243,151.007584 
z"/>
<path fill="#EDFDFE" opacity="1.000000" stroke="none" 
	d="
M243.330902,269.017822 
	C243.242142,268.364410 243.446152,267.590271 243.852203,266.960876 
	C243.910706,267.702759 243.767197,268.299927 243.330902,269.017822 
z"/>
<path fill="#ECFDFE" opacity="1.000000" stroke="none" 
	d="
M404.286926,65.908707 
	C403.977264,65.618408 403.502472,65.087631 403.033264,64.208145 
	C403.399872,64.462364 403.760834,65.065300 404.286926,65.908707 
z"/>
<path fill="#E9FCFE" opacity="1.000000" stroke="none" 
	d="
M52.633564,139.011047 
	C52.754185,139.470505 52.578072,140.052902 52.134911,140.800262 
	C52.024189,140.354797 52.180511,139.744385 52.633564,139.011047 
z"/>
<path fill="#E9FEFF" opacity="1.000000" stroke="none" 
	d="
M198.003708,258.656677 
	C197.562256,258.834412 196.993912,258.710724 196.222595,258.371765 
	C196.638687,258.222717 197.257751,258.288940 198.003708,258.656677 
z"/>
<path fill="#E8FCFF" opacity="1.000000" stroke="none" 
	d="
M388.872498,72.773193 
	C388.997009,73.176796 388.989502,73.365486 388.968384,73.837097 
	C388.632141,73.643387 388.309570,73.166748 387.932678,72.372574 
	C388.165741,72.222794 388.453094,72.390541 388.872498,72.773193 
z"/>
<path fill="#EBFDFF" opacity="1.000000" stroke="none" 
	d="
M151.727631,90.105270 
	C151.848907,90.448128 151.626007,90.661835 151.104858,90.871643 
	C151.073624,90.648468 151.265900,90.351257 151.727631,90.105270 
z"/>
<path fill="#EDFDFE" opacity="1.000000" stroke="none" 
	d="
M264.737152,255.099396 
	C264.860046,255.444992 264.633514,255.661499 264.102661,255.871857 
	C264.071930,255.647964 264.268402,255.349503 264.737152,255.099396 
z"/>
<path fill="#ECFDFE" opacity="1.000000" stroke="none" 
	d="
M96.688660,66.970787 
	C96.881485,67.196693 96.744133,67.474419 96.342995,67.853386 
	C96.246506,67.680664 96.339600,67.369987 96.688660,66.970787 
z"/>
<path fill="#E9FEFF" opacity="1.000000" stroke="none" 
	d="
M191.744095,258.094940 
	C191.983871,258.161560 191.649918,258.500244 191.649918,258.500244 
	C191.649918,258.500244 191.212173,258.430206 191.118469,258.295898 
	C191.024780,258.161621 191.504318,258.028320 191.744095,258.094940 
z"/>
<path fill="#EDFDFE" opacity="1.000000" stroke="none" 
	d="
M240.312195,275.030792 
	C240.118256,274.803680 240.255920,274.523926 240.658417,274.141846 
	C240.756088,274.315979 240.662949,274.628876 240.312195,275.030792 
z"/>
<path fill="#EAFCFE" opacity="1.000000" stroke="none" 
	d="
M113.313950,74.030510 
	C113.117256,73.802513 113.254387,73.523277 113.659073,73.143402 
	C113.756744,73.317154 113.663788,73.629318 113.313950,74.030510 
z"/>
<path fill="#ECFDFE" opacity="1.000000" stroke="none" 
	d="
M408.895630,72.731140 
	C408.554840,72.852058 408.340393,72.627724 408.129272,72.103767 
	C408.350311,72.073334 408.646729,72.267250 408.895630,72.731140 
z"/>
<path fill="#ECFDFE" opacity="1.000000" stroke="none" 
	d="
M93.685959,71.968964 
	C93.883224,72.197990 93.746376,72.477150 93.342422,72.856567 
	C93.243614,72.681580 93.335793,72.369003 93.685959,71.968964 
z"/>
<path fill="#ECFDFE" opacity="1.000000" stroke="none" 
	d="
M400.886353,59.723915 
	C400.551910,59.839008 400.337036,59.609947 400.117676,59.083820 
	C400.333679,59.056709 400.631287,59.254379 400.886353,59.723915 
z"/>
<path fill="#ECFDFE" opacity="1.000000" stroke="none" 
	d="
M322.890320,354.726440 
	C322.552002,354.842682 322.335358,354.611176 322.117126,354.078003 
	C322.335327,354.051056 322.634125,354.251862 322.890320,354.726440 
z"/>
<path fill="#ECFDFE" opacity="1.000000" stroke="none" 
	d="
M322.297729,347.046997 
	C322.108459,346.822937 322.249176,346.539520 322.654449,346.149872 
	C322.749969,346.322571 322.652832,346.637238 322.297729,347.046997 
z"/>
<path fill="#EDFDFE" opacity="1.000000" stroke="none" 
	d="
M241.297028,273.049225 
	C241.107941,272.825897 241.248917,272.540802 241.655533,272.148315 
	C241.750793,272.320648 241.652756,272.636139 241.297028,273.049225 
z"/>
<path fill="#EDFDFE" opacity="1.000000" stroke="none" 
	d="
M242.298126,271.051331 
	C242.105637,270.826569 242.245728,270.540741 242.653595,270.148193 
	C242.750519,270.321503 242.653625,270.637787 242.298126,271.051331 
z"/>
<path fill="#ECFDFE" opacity="1.000000" stroke="none" 
	d="
M402.888367,62.726585 
	C402.552094,62.841930 402.336395,62.611599 402.117218,62.082382 
	C402.334503,62.055367 402.632874,62.254501 402.888367,62.726585 
z"/>
<path fill="#ECFDFE" opacity="1.000000" stroke="none" 
	d="
M99.703583,61.955036 
	C99.890678,62.177853 99.749489,62.460300 99.345215,62.849327 
	C99.251083,62.677773 99.348801,62.364025 99.703583,61.955036 
z"/>
<path fill="#E9FCFE" opacity="1.000000" stroke="none" 
	d="
M423.103821,133.273346 
	C423.447266,133.153595 423.665405,133.383575 423.883026,133.916809 
	C423.660156,133.946136 423.358856,133.747147 423.103821,133.273346 
z"/>
<path fill="#ECFDFE" opacity="1.000000" stroke="none" 
	d="
M174.700256,104.950363 
	C174.893738,105.176720 174.753265,105.462250 174.344055,105.853638 
	C174.246948,105.679565 174.343948,105.362915 174.700256,104.950363 
z"/>
<path fill="#E9FCFE" opacity="1.000000" stroke="none" 
	d="
M433.107605,150.269806 
	C433.443146,150.151672 433.656921,150.374985 433.870575,150.893982 
	C433.651550,150.924133 433.356689,150.731323 433.107605,150.269806 
z"/>
<path fill="#E9FCFE" opacity="1.000000" stroke="none" 
	d="
M71.310051,146.025101 
	C71.115883,145.797607 71.253578,145.521622 71.655235,145.145554 
	C71.751457,145.318268 71.659027,145.628662 71.310051,146.025101 
z"/>
<path fill="#E9FCFE" opacity="1.000000" stroke="none" 
	d="
M427.111694,140.268768 
	C427.447815,140.150543 427.660583,140.372635 427.875061,140.887787 
	C427.655487,140.918549 427.359314,140.727951 427.111694,140.268768 
z"/>
<path fill="#E9FCFE" opacity="1.000000" stroke="none" 
	d="
M74.308289,141.021652 
	C74.113686,140.792435 74.251923,140.517334 74.654175,140.143097 
	C74.750504,140.316696 74.658150,140.627304 74.308289,141.021652 
z"/>
<path fill="#EBFDFF" opacity="1.000000" stroke="none" 
	d="
M163.301804,138.048386 
	C163.106308,137.819534 163.246521,137.535492 163.655518,137.147430 
	C163.753830,137.323044 163.658234,137.639633 163.301804,138.048386 
z"/>
<path fill="#E9FCFE" opacity="1.000000" stroke="none" 
	d="
M424.100311,135.267853 
	C424.443359,135.145813 424.659058,135.370026 424.870056,135.895172 
	C424.646393,135.926590 424.348938,135.732605 424.100311,135.267853 
z"/>
<path fill="#E9FCFE" opacity="1.000000" stroke="none" 
	d="
M77.317871,136.032410 
	C77.115395,135.800369 77.251701,135.520462 77.659332,135.141876 
	C77.759758,135.318222 77.668427,135.632019 77.317871,136.032410 
z"/>
<path fill="#EBFDFF" opacity="1.000000" stroke="none" 
	d="
M138.702652,104.954636 
	C138.891434,105.178123 138.750610,105.460129 138.345428,105.847672 
	C138.251068,105.676147 138.348389,105.362801 138.702652,104.954636 
z"/>
<path fill="#E9FCFE" opacity="1.000000" stroke="none" 
	d="
M78.301620,134.050079 
	C78.242554,133.852859 78.443298,133.563904 78.887398,133.161087 
	C78.940979,133.350922 78.751213,133.654648 78.301620,134.050079 
z"/>
<path fill="#E9FCFE" opacity="1.000000" stroke="none" 
	d="
M79.318863,133.033966 
	C79.116669,132.803528 79.252060,132.523727 79.657600,132.144592 
	C79.758217,132.320099 79.667770,132.633209 79.318863,133.033966 
z"/>
<path fill="#E9FCFE" opacity="1.000000" stroke="none" 
	d="
M421.960632,131.311523 
	C422.159851,131.252563 422.447662,131.455078 422.848785,131.900528 
	C422.657806,131.953308 422.353516,131.763153 421.960632,131.311523 
z"/>
<path fill="#E9FCFE" opacity="1.000000" stroke="none" 
	d="
M421.105103,130.272461 
	C421.448883,130.152710 421.661896,130.376587 421.869080,130.899323 
	C421.645355,130.929581 421.349060,130.735550 421.105103,130.272461 
z"/>
<path fill="#E6FCFF" opacity="1.000000" stroke="none" 
	d="
M441.881744,126.723274 
	C441.549042,126.838089 441.338928,126.617706 441.127197,126.108078 
	C441.345337,126.078346 441.638214,126.268097 441.881744,126.723274 
z"/>
<path fill="#EBFDFF" opacity="1.000000" stroke="none" 
	d="
M129.697998,115.952377 
	C129.894379,116.181755 129.754578,116.464714 129.346603,116.851059 
	C129.247833,116.675331 129.342300,116.359161 129.697998,115.952377 
z"/>
<path fill="#E9FCFE" opacity="1.000000" stroke="none" 
	d="
M69.704208,110.965897 
	C69.888863,111.188652 69.748100,111.463615 69.349754,111.841591 
	C69.257378,111.671440 69.352921,111.362610 69.704208,110.965897 
z"/>
<path fill="#EAFCFE" opacity="1.000000" stroke="none" 
	d="
M17.692842,195.964935 
	C17.751877,196.161255 17.552874,196.445129 17.114733,196.842026 
	C17.062000,196.654190 17.248402,196.353333 17.692842,195.964935 
z"/>
<path fill="#EDFDFE" opacity="1.000000" stroke="none" 
	d="
M269.731628,251.101929 
	C269.852783,251.449448 269.619873,251.668564 269.079285,251.884918 
	C269.050751,251.661240 269.252747,251.358353 269.731628,251.101929 
z"/>
<path fill="#EDFDFE" opacity="1.000000" stroke="none" 
	d="
M271.720612,250.116852 
	C271.835236,250.449097 271.607574,250.662491 271.085388,250.881805 
	C271.058411,250.667725 271.254272,250.371140 271.720612,250.116852 
z"/>
<path fill="#ECFDFE" opacity="1.000000" stroke="none" 
	d="
M91.685707,74.967125 
	C91.883377,75.195709 91.746918,75.475456 91.343262,75.855865 
	C91.244011,75.680908 91.335854,75.368164 91.685707,74.967125 
z"/>
<path fill="#ECFDFE" opacity="1.000000" stroke="none" 
	d="
M90.699921,76.952103 
	C90.758430,77.148979 90.556770,77.437637 90.112137,77.841309 
	C90.059357,77.652168 90.249550,77.348030 90.699921,76.952103 
z"/>
<path fill="#EAFCFE" opacity="1.000000" stroke="none" 
	d="
M13.964981,221.307312 
	C14.162151,221.250854 14.448805,221.455231 14.849779,221.902054 
	C14.660888,221.952377 14.357676,221.760269 13.964981,221.307312 
z"/>
<path fill="#EBFDFF" opacity="1.000000" stroke="none" 
	d="
M488.313354,221.031250 
	C488.117126,220.803421 488.253998,220.524307 488.657349,220.144501 
	C488.755524,220.318649 488.663025,220.630707 488.313354,221.031250 
z"/>
<path fill="#ECFDFE" opacity="1.000000" stroke="none" 
	d="
M89.684875,77.966064 
	C89.883408,78.195007 89.747330,78.474823 89.343796,78.855103 
	C89.243942,78.679802 89.335243,78.366928 89.684875,77.966064 
z"/>
<path fill="#EBFDFF" opacity="1.000000" stroke="none" 
	d="
M489.893616,204.729706 
	C489.554657,204.849335 489.340820,204.625092 489.129272,204.102478 
	C489.349121,204.072556 489.644867,204.266449 489.893616,204.729706 
z"/>
<path fill="#ECFDFE" opacity="1.000000" stroke="none" 
	d="
M92.700653,73.951378 
	C92.758675,74.147087 92.557198,74.436256 92.112839,74.841049 
	C92.060364,74.652733 92.250763,74.348785 92.700653,73.951378 
z"/>
<path fill="#ECFDFE" opacity="1.000000" stroke="none" 
	d="
M170.704987,109.962021 
	C170.886398,110.181671 170.745651,110.457840 170.348785,110.838806 
	C170.257309,110.669876 170.354019,110.361526 170.704987,109.962021 
z"/>
<path fill="#E7FCFF" opacity="1.000000" stroke="none" 
	d="
M403.116791,99.280037 
	C403.448792,99.164658 403.662140,99.388992 403.882385,99.904762 
	C403.666077,99.933853 403.369019,99.741714 403.116791,99.280037 
z"/>
<path fill="#EBFDFF" opacity="1.000000" stroke="none" 
	d="
M142.703827,99.956848 
	C142.890457,100.179192 142.749527,100.459747 142.346619,100.845940 
	C142.253143,100.675224 142.350357,100.363052 142.703827,99.956848 
z"/>
<path fill="#ECFDFE" opacity="1.000000" stroke="none" 
	d="
M178.702301,99.951630 
	C178.891800,100.174995 178.751038,100.459183 178.344528,100.850021 
	C178.249512,100.678078 178.347275,100.363335 178.702301,99.951630 
z"/>
<path fill="#EBFDFF" opacity="1.000000" stroke="none" 
	d="
M129.682159,159.964752 
	C129.883438,160.194138 129.748672,160.473557 129.345856,160.852844 
	C129.244751,160.677490 129.334183,160.364838 129.682159,159.964752 
z"/>
<path fill="#EBFDFF" opacity="1.000000" stroke="none" 
	d="
M130.690323,158.958893 
	C130.750580,159.157623 130.551392,159.443695 130.110611,159.841278 
	C130.056305,159.650604 130.243591,159.348404 130.690323,158.958893 
z"/>
<path fill="#EBFDFF" opacity="1.000000" stroke="none" 
	d="
M131.689438,157.963043 
	C131.749878,158.162979 131.550690,158.447388 131.110199,158.842117 
	C131.055862,158.650803 131.242828,158.349167 131.689438,157.963043 
z"/>
</svg>