<svg xmlns="http://www.w3.org/2000/svg" viewBox="0 0 32 32" id="Payment"><path d="M28 1H12A3 3 0 0 0 9 4V14a3 3 0 0 0 3 3H28a3 3 0 0 0 3-3V4A3 3 0 0 0 28 1zM22 8a1 1 0 0 1 1 1v3.2a1 1 0 0 1-1 1h-.91a1 1 0 0 1-1.92 0H18a1 1 0 0 1 0-2h3V10H18a1 1 0 0 1-1-1V5.8a1 1 0 0 1 1-1h1.17a1 1 0 0 1 1.92 0H22a1 1 0 0 1 0 2H19V8zM28 22.45l-4 .82a5.72 5.72 0 0 0 0-.58 3 3 0 0 0-3.1-2.92h0a8.08 8.08 0 0 1-3.76-.8l-1.89-.83A2.56 2.56 0 0 0 13.64 18a.66.66 0 0 0-.2.06l-1.24.56a6 6 0 0 1 .28 3.11L11.3 28.07c0 .15-.08.29-.12.44l5.35 2.06a6.09 6.09 0 0 0 2.26.43 6.17 6.17 0 0 0 2.31-.45l8.29-3.36A2.57 2.57 0 0 0 30.86 24 2.48 2.48 0 0 0 28 22.45zM8 17.29l-5.82-.88A1 1 0 0 0 1 17.4v12a1 1 0 0 0 1 1H6.4a3.08 3.08 0 0 0 2.93-2.69l1.18-6.35a3.76 3.76 0 0 0-.61-2.84A2.88 2.88 0 0 0 8 17.29z" fill="#7b8d9e" class="color000000 svgShape"></path></svg>