<svg xmlns="http://www.w3.org/2000/svg" enable-background="new 0 0 122.185 239.049" viewBox="0 0 122.185 239.049" id="pointing-finger-up"><circle cx="58.273" cy="22.886" r="22.5"></circle><path d="M93.849,225.681l-7.671-94.05c0.552,0.118,1.109,0.199,1.668,0.199c2.39,0,4.754-1.066,6.331-3.102l26.333-34
		c2.295-2.963,2.225-7.124-0.17-10.008c-0.27-0.326-6.712-8.071-14.406-15.944c-15.35-15.705-21.82-17.87-26.527-17.87
		c-0.599,0-1.181,0.071-1.743,0.196c-0.025,0-0.049-0.004-0.074-0.004H38.956c-0.002,0-0.003,0-0.005,0H16V33.243V18.765V2.742
		C16,1.228,14.773,0,13.258,0c-1.514,0-2.742,1.228-2.742,2.742v12.863C5.885,15.034,0,16.085,0,18.765v40.333c0,4.418,3.582,8,8,8
		h23.227v53.987l-8.531,104.595c-0.555,6.807,4.514,12.772,11.318,13.327c6.805,0.554,12.773-4.51,13.328-11.317l7.564-92.742h6.732
		l7.564,92.742c0.555,6.808,6.523,11.872,13.328,11.317C89.335,238.453,94.404,232.488,93.849,225.681z M103.877,90.073
		l-18.558,23.961V71.303C90.382,75.605,97.248,82.511,103.877,90.073z"></path></svg>