<svg xmlns="http://www.w3.org/2000/svg" viewBox="0 0 32 32" id="Shop"><path fill="#7b8d9e" d="M8.924 4h15.158c.504 0 .92.423.92 1v1h-17V5c0-.577.418-1 .922-1zm-3.48 3h22.119l2.43 6.563a1.492 1.492 0 0 1-2.241 1.228 1.498 1.498 0 0 1-.75-1.299c0-.017 0-.034-.002-.05a.505.505 0 0 0-.557-.454.505.505 0 0 0-.365.233l-.002.002a.567.567 0 0 0-.074.27 1.498 1.498 0 0 1-2.25 1.298 1.498 1.498 0 0 1-.75-1.298c0-.017 0-.034-.002-.051a.505.505 0 0 0-.557-.453.505.505 0 0 0-.365.232l-.002.002a.567.567 0 0 0-.075.27 1.498 1.498 0 0 1-2.25 1.299 1.498 1.498 0 0 1-.75-1.3c0-.016 0-.033-.002-.05a.505.505 0 0 0-.556-.453.505.505 0 0 0-.366.233l-.002.002a.567.567 0 0 0-.074.27 1.498 1.498 0 0 1-2.25 1.298 1.498 1.498 0 0 1-.75-1.299c0-.017 0-.034-.002-.05a.505.505 0 0 0-.557-.454.505.505 0 0 0-.365.233l-.002.002a.567.567 0 0 0-.074.27 1.498 1.498 0 0 1-2.25 1.299 1.498 1.498 0 0 1-.75-1.3c0-.016 0-.033-.002-.05a.505.505 0 0 0-.557-.453.505.505 0 0 0-.365.232l-.002.002a.567.567 0 0 0-.075.27 1.498 1.498 0 0 1-2.25 1.299A1.498 1.498 0 0 1 7 13.494a.501.501 0 1 0-1 0 1.498 1.498 0 0 1-2.25 1.3 1.501 1.501 0 0 1-.738-1.23zm1.058 7.957c.202.276.444.525.75.701a2.502 2.502 0 0 0 2.5 0c.306-.176.548-.425.75-.701.202.276.444.525.75.701a2.502 2.502 0 0 0 2.5 0c.306-.176.548-.425.75-.701.202.276.444.525.75.701a2.502 2.502 0 0 0 2.5 0c.306-.176.548-.425.75-.701.202.276.444.525.75.701a2.502 2.502 0 0 0 2.5 0c.306-.176.548-.425.75-.701.202.276.444.525.75.701a2.502 2.502 0 0 0 2.5 0c.306-.176.548-.425.75-.701.14.192.307.361.5.508V29h-14v-6.506a.52.52 0 0 0-.5-.5h-4a.52.52 0 0 0-.5.5V29h-2V15.465c.193-.147.36-.316.5-.508zm11 4.043a.52.52 0 0 0-.5.5v6c0 .262.238.5.5.5h7a.52.52 0 0 0 .5-.5v-6a.52.52 0 0 0-.5-.5zm.5 1h6v5h-6z" color="#000" font-family="sans-serif" font-weight="400" overflow="visible" style="text-indent:0;text-align:start;line-height:normal;text-transform:none;block-progression:tb" class="color373449 svgShape"></path></svg>