<svg xmlns="http://www.w3.org/2000/svg" data-name="Layer 3" viewBox="0 0 64 64" id="VacuumInterior"><path fill="#43515b" d="M30,62a4.162,4.162,0,0,1-3.949-2.846l-1.858-5.576A3.745,3.745,0,0,1,24,52.391h0a3.751,3.751,0,0,1,4.337-3.706L40,51h6V38h0a11.391,11.391,0,0,1,2.5-7.123L50,29V24a4,4,0,0,1,4-4h4a4,4,0,0,1,4,4v2L59.383,57.015A5.4,5.4,0,0,1,54,62H30Z" class="color43525b svgShape"></path><path fill="#69737a" d="M59 24V22a3.959 3.959 0 0 0-.529-1.953A4.061 4.061 0 0 0 58 20H54a4 4 0 0 0-4 4v5l-1.5 1.877A11.391 11.391 0 0 0 46 38V51H40L28.337 48.685a3.744 3.744 0 0 0-4.193 2.723L43 55l13.233.882a5.271 5.271 0 0 0 .15-.867zM61 5a3 3 0 0 0-3-3H54a3 3 0 0 0-3 3v8a3 3 0 0 0 3 3h4a3 3 0 0 0 3-3z" class="color69737a svgShape"></path><path fill="#91989d" d="M54,2a3,3,0,0,0-3,3v8c0,.083.018.16.024.242A2.98,2.98,0,0,0,53,14h4a3,3,0,0,0,3-3V3c0-.083-.018-.16-.024-.242A2.98,2.98,0,0,0,58,2Z" class="color91989d svgShape"></path><rect width="4" height="4" x="54" y="16" fill="#43515b" class="color43525b svgShape"></rect><path fill="#37607d" d="M11,48H5a3,3,0,0,0-3,3V62H18a2,2,0,0,0,2-2V57h0A9,9,0,0,0,11,48Z" class="color377d63 svgShape"></path><path fill="#407092" d="M11,48H5a2.983,2.983,0,0,0-.86.14A2.983,2.983,0,0,0,4,49V60H20V57A9,9,0,0,0,11,48Z" class="color409272 svgShape"></path><circle cx="8" cy="59" r="3" fill="#43515b" class="color43525b svgShape"></circle><rect width="2" height="4" x="4" y="50" fill="#91989d" class="color91989d svgShape"></rect><rect width="2" height="4" x="7" y="50" fill="#91989d" class="color91989d svgShape"></rect><polyline fill="#2f536d" points="5 48 5 44 11 44 11 48" class="color2f6d56 svgShape"></polyline><path fill="#7fc7fb" d="M30 42.32h0a2.774 2.774 0 0 1 2.632 1.9L33 45.32l.368-1.1A2.774 2.774 0 0 1 36 42.32h0a2.774 2.774 0 0 1-2.632-1.9L33 39.32l-.368 1.1A2.774 2.774 0 0 1 30 42.32zM17 16l.272-1.088A3.843 3.843 0 0 1 21 12h0a3.843 3.843 0 0 1-3.729-2.912L17 8l-.272 1.088A3.843 3.843 0 0 1 13 12h0a3.843 3.843 0 0 1 3.729 2.912z" class="colorfbe47f svgShape"></path><path fill="#91989d" d="M37,58H59V57a6,6,0,0,0-6-6H40L28.337,48.685a3.751,3.751,0,0,0-4.144,4.893l.14.422H33Z" class="color91989d svgShape"></path><path fill="#bad9f0" d="M13,55a6.826,6.826,0,0,0,4.828,2H20a9,9,0,0,0-9-9v2.172A6.826,6.826,0,0,0,13,55Z" class="colorbad9f0 svgShape"></path><rect width="6" height="3" x="5" y="44" fill="#37607d" class="color377d63 svgShape"></rect><path fill="#aab2b7" d="M9,44H7V25a3,3,0,0,1,6,0V38a1,1,0,0,0,2,0V34.657a14.569,14.569,0,0,1,2.809-8.629l1.075-1.315,1.547,1.266-1.04,1.271A12.55,12.55,0,0,0,17,34.657V38a3,3,0,0,1-6,0V25a1,1,0,0,0-2,0Z" class="coloraab1b7 svgShape"></path><polyline fill="#1c6ba4" points="40.472 9.472 43 12 37 18 34.471 15.471" class="color296cb2 svgShape"></polyline><path fill="#37607d" d="M33.5,8.5,31,6l-6.5,6.5h0a3.535,3.535,0,0,1,0,5L17,25l3,3L31.3,16.7Z" class="color377d63 svgShape"></path><path fill="#234157" d="M37,5l-5.834,5.834A3.979,3.979,0,0,0,30,13.648h0a3.978,3.978,0,0,0,.823,2.424l1.349,1.756L41,9Z" class="color235743 svgShape"></path><path fill="#2f536d" d="M30,13.648a3.978,3.978,0,0,0,.823,2.424l.48.625L40,8,37,5l-5.834,5.834A3.979,3.979,0,0,0,30,13.648Z" class="color2f6d56 svgShape"></path><rect width="8.485" height="2.162" x="33.993" y="12.155" fill="#1b5681" transform="rotate(-44.995 38.235 13.236)" class="color1b4b81 svgShape"></rect><circle cx="8" cy="59" r="1" fill="#69737a" class="color69737a svgShape"></circle></svg>