<svg xmlns="http://www.w3.org/2000/svg" fill-rule="evenodd" stroke-linejoin="round" stroke-miterlimit="2" clip-rule="evenodd" viewBox="0 0 32 32" id="writing"><path d="M13.984,24.824c0.011,0.057 0.016,0.116 0.016,0.176c0,0.552 -0.448,1 -1,1l-5,0c-0.552,-0 -1,-0.448 -1,-1c0,-0.552 0.448,-1 1,-1l4.764,0c-0.475,-0.531 -0.764,-1.232 -0.764,-2l-0,-2.828c0,-0.796 0.316,-1.559 0.879,-2.122l8.878,-8.878c0.079,-0.079 0.16,-0.153 0.243,-0.224l0,-2.948c0,-1.656 -1.344,-3 -3,-3l-12,0c-1.656,0 -3,1.344 -3,3c0,0 0,22 0,22c0,1.656 1.344,3 3,3c0,0 12,0 12,0c1.656,0 3,-1.344 3,-3l0,-4.929l-2.05,2.05c-0.563,0.563 -1.326,0.879 -2.122,0.879c0,-0 -2.828,0 -2.828,0c-0.356,0 -0.698,-0.062 -1.016,-0.176Zm-5.984,-2.824l2,0c0.552,0 1,-0.448 1,-1c0,-0.552 -0.448,-1 -1,-1l-2,0c-0.552,0 -1,0.448 -1,1c0,0.552 0.448,1 1,1Zm0,-6l4,0c0.552,0 1,-0.448 1,-1c0,-0.552 -0.448,-1 -1,-1l-4,0c-0.552,0 -1,0.448 -1,1c0,0.552 0.448,1 1,1Zm0,-4l8,0c0.552,0 1,-0.448 1,-1c0,-0.552 -0.448,-1 -1,-1l-8,0c-0.552,0 -1,0.448 -1,1c0,0.552 0.448,1 1,1Zm0,-4l8,0c0.552,0 1,-0.448 1,-1c0,-0.552 -0.448,-1 -1,-1l-8,0c-0.552,0 -1,0.448 -1,1c0,0.552 0.448,1 1,1Z"></path><path d="M20.172,12.586l-5.879,5.878c-0.188,0.188 -0.293,0.442 -0.293,0.708l-0,2.828c0,0.552 0.448,1 1,1l2.828,-0c0.266,0 0.52,-0.105 0.708,-0.293l5.878,-5.879l-4.242,-4.242Zm1.414,-1.414l4.242,4.242l1.586,-1.586c0.781,-0.781 0.781,-2.047 0,-2.828l-1.414,-1.414c-0.781,-0.781 -2.047,-0.781 -2.828,-0l-1.586,1.586Z"></path></svg>